<svg width="219" height="116" viewBox="0 0 219 116" fill="none" xmlns="http://www.w3.org/2000/svg">
<circle cx="172" cy="47" r="47" fill="white" fill-opacity="0.1"/>
<circle cx="178.5" cy="33.5" r="22.5" fill="#5C73FE"/>
<path d="M13.984 94V60.4H30.4C34.624 60.4 37.792 61.2 39.904 62.8C42.048 64.4 43.12 66.512 43.12 69.136C43.12 70.896 42.688 72.432 41.824 73.744C40.96 75.024 39.776 76.016 38.272 76.72C36.768 77.424 35.04 77.776 33.088 77.776L34 75.808C36.112 75.808 37.984 76.16 39.616 76.864C41.248 77.536 42.512 78.544 43.408 79.888C44.336 81.232 44.8 82.88 44.8 84.832C44.8 87.712 43.664 89.968 41.392 91.6C39.12 93.2 35.776 94 31.36 94H13.984ZM21.712 88.144H30.784C32.8 88.144 34.32 87.824 35.344 87.184C36.4 86.512 36.928 85.456 36.928 84.016C36.928 82.608 36.4 81.568 35.344 80.896C34.32 80.192 32.8 79.84 30.784 79.84H21.136V74.176H29.44C31.328 74.176 32.768 73.856 33.76 73.216C34.784 72.544 35.296 71.536 35.296 70.192C35.296 68.88 34.784 67.904 33.76 67.264C32.768 66.592 31.328 66.256 29.44 66.256H21.712V88.144ZM46.2711 94L61.2471 60.4H68.9271L83.9511 94H75.7911L63.5031 64.336H66.5751L54.2391 94H46.2711ZM53.7591 86.8L55.8231 80.896H73.1031L75.2151 86.8H53.7591ZM94.3323 94.576C92.0603 94.576 89.9643 94.16 88.0443 93.328C86.1563 92.464 84.6043 91.248 83.3882 89.68L87.7083 84.496C88.6363 85.712 89.6123 86.64 90.6363 87.28C91.6603 87.888 92.7643 88.192 93.9483 88.192C97.1163 88.192 98.7003 86.336 98.7003 82.624V66.64H86.8923V60.4H106.428V82.192C106.428 86.352 105.404 89.456 103.356 91.504C101.308 93.552 98.3003 94.576 94.3323 94.576ZM114.109 94V60.4H121.885V94H114.109ZM136.819 86.32L136.387 77.344L152.467 60.4H161.107L146.611 76L142.291 80.608L136.819 86.32ZM129.859 94V60.4H137.587V94H129.859ZM152.851 94L140.899 79.36L145.987 73.84L161.923 94H152.851Z" fill="#F8FAFC"/>
</svg>
