<svg width="360" height="522" viewBox="0 0 360 522" fill="none" xmlns="http://www.w3.org/2000/svg">
<path d="M84.3738 465.68C41.392 520.062 -38.446 535.587 -97.1884 509.889C-106.747 505.707 -132.856 493.884 -151.347 466.157C-186.944 412.782 -175.2 329.125 -122.351 282.113C-83.8862 247.896 -28.5777 237.477 17.6651 251.13C27.6258 254.071 65.641 265.933 92.0661 302.421C95.9474 307.781 104.324 320.289 110.115 338.124C123.713 380.003 112.386 430.238 84.3738 465.68Z" fill="url(#paint0_linear_530_3342)" fill-opacity="0.2"/>
<path d="M175.855 424.639C169.983 430.762 164.427 434.71 160.038 437.829C108.439 474.498 47.3847 463.809 34.4089 461.199C15.2476 457.344 -21.7906 449.893 -48.5685 418.704C-89.0814 371.518 -82.7729 297.177 -51.3484 248.103C-45.6004 239.127 -15.2376 189.306 46.4746 181.316C83.8222 176.481 127.357 186.233 158.884 212.394C225.062 267.307 220.351 378.243 175.855 424.639Z" fill="url(#paint1_linear_530_3342)" fill-opacity="0.6"/>
<path d="M323.806 352.517C317.934 358.639 312.378 362.588 307.989 365.707C256.391 402.375 195.336 391.687 182.36 389.076C163.199 385.222 126.161 377.771 99.3827 346.582C58.8698 299.396 65.1782 225.055 96.6027 175.981C102.351 167.005 132.714 117.184 194.426 109.194C231.773 104.359 275.309 114.111 306.836 140.271C373.014 195.185 368.302 306.121 323.806 352.517Z" fill="url(#paint2_linear_530_3342)" fill-opacity="0.1"/>
<path opacity="0.5" d="M278.995 202.214L258.141 201.962L247.424 221.429L258.141 240.794L278.995 240.344L289.142 221.23L278.995 202.214Z" fill="#BDD0FB"/>
<path opacity="0.5" d="M313.019 221.284L292.165 221.032L281.447 240.499L292.165 259.864L313.019 259.414L323.165 240.3L313.019 221.284Z" fill="#BDD0FB"/>
<path opacity="0.47" d="M317.545 178.205L292.773 178.344L280.053 197.42L292.773 216.014L317.545 215.215L329.608 196.482L317.545 178.205Z" fill="#BDD0FB"/>
<path d="M259.476 179.861C262.853 203.252 276.962 340.179 151.123 376.527C151.123 376.527 118.679 288.779 256.258 178.58C257.462 177.616 259.255 178.332 259.476 179.861Z" fill="#7D97F4"/>
<path d="M248.178 200.727C248.178 200.727 245.843 212.447 240.887 229.647C238.41 238.245 235.288 248.212 231.513 258.742C227.751 269.276 223.317 280.366 218.342 291.216C213.356 302.06 207.808 312.654 201.96 322.204C196.117 331.757 189.97 340.252 184.176 347.099C181.278 350.522 178.477 353.536 175.914 356.129C175.266 356.771 174.639 357.391 174.033 357.99C173.426 358.587 172.816 359.138 172.243 359.681C171.103 360.773 170.002 361.717 169.022 362.586C168.776 362.803 168.537 363.013 168.305 363.218C168.067 363.416 167.835 363.608 167.611 363.794C167.162 364.167 166.741 364.516 166.349 364.841C165.573 365.5 164.884 366.024 164.329 366.455C163.221 367.316 162.629 367.776 162.629 367.776C162.328 368.01 161.894 367.955 161.66 367.653C161.427 367.351 161.482 366.916 161.783 366.682L161.786 366.68L161.803 366.666C161.803 366.666 162.389 366.215 163.488 365.369C164.037 364.946 164.72 364.431 165.49 363.783C165.878 363.463 166.296 363.12 166.741 362.754C166.964 362.57 167.193 362.382 167.43 362.187C167.66 361.985 167.897 361.778 168.141 361.565C169.114 360.709 170.207 359.78 171.34 358.704C171.909 358.169 172.515 357.627 173.119 357.038C173.721 356.447 174.345 355.835 174.989 355.203C177.539 352.645 180.329 349.669 183.218 346.283C188.996 339.513 195.143 331.096 200.998 321.611C206.859 312.128 212.432 301.594 217.449 290.802C222.456 280.004 226.927 268.955 230.725 258.457C234.538 247.962 237.697 238.023 240.206 229.449C242.713 220.873 244.567 213.659 245.79 208.593C247.012 203.526 247.604 200.611 247.604 200.611C247.636 200.452 247.791 200.35 247.949 200.382C248.107 200.414 248.21 200.569 248.178 200.727Z" fill="#BDD0FB"/>
<g opacity="0.94">
<path d="M309.75 235.608C309.702 259.897 303.665 401.233 170.303 419.379C170.303 419.379 150.376 325.307 306.669 233.825C308.036 233.025 309.753 234.022 309.75 235.608Z" fill="#91B3FA"/>
<path d="M295.148 255.138C295.148 255.138 294.106 257.956 292.127 262.818C291.129 265.246 289.915 268.193 288.46 271.547C287.018 274.907 285.338 278.674 283.471 282.767C281.581 286.851 279.521 291.269 277.237 295.891C274.979 300.526 272.493 305.361 269.886 310.346C267.236 315.306 264.468 320.418 261.513 325.533C260.777 326.813 260.037 328.097 259.296 329.386C258.533 330.663 257.769 331.943 257.002 333.226C255.489 335.803 253.887 338.34 252.306 340.891C251.908 341.526 251.519 342.168 251.113 342.799L249.891 344.686C249.076 345.945 248.262 347.201 247.45 348.456C245.799 350.947 244.117 353.405 242.459 355.85C241.605 357.055 240.753 358.255 239.907 359.449C239.483 360.046 239.061 360.641 238.639 361.236L238.009 362.125L237.36 362.998C236.494 364.159 235.634 365.313 234.78 366.459C233.926 367.605 233.085 368.748 232.204 369.845C228.755 374.293 225.305 378.504 221.913 382.394C221.057 383.36 220.214 384.313 219.382 385.252C218.967 385.721 218.554 386.187 218.145 386.649C217.739 387.114 217.304 387.546 216.891 387.991C216.056 388.873 215.235 389.74 214.429 390.591C214.026 391.016 213.627 391.438 213.232 391.855C212.836 392.272 212.451 392.691 212.042 393.079C210.434 394.658 208.893 396.171 207.427 397.61C207.243 397.79 207.061 397.968 206.88 398.145C206.692 398.315 206.505 398.485 206.32 398.652C205.949 398.988 205.584 399.32 205.223 399.647C204.502 400.3 203.802 400.935 203.123 401.55C202.444 402.164 201.787 402.759 201.152 403.333C200.493 403.88 199.858 404.407 199.248 404.913C198.027 405.925 196.906 406.855 195.894 407.695C195.395 408.124 194.893 408.493 194.424 408.844C193.955 409.196 193.516 409.527 193.107 409.834C192.29 410.448 191.595 410.97 191.031 411.394C189.903 412.241 189.302 412.693 189.302 412.693C188.997 412.922 188.564 412.86 188.335 412.554C188.106 412.248 188.169 411.815 188.474 411.585L188.476 411.584L188.504 411.562C188.504 411.562 189.102 411.117 190.222 410.283C190.782 409.865 191.474 409.351 192.286 408.745C192.692 408.443 193.129 408.118 193.594 407.771C194.061 407.424 194.56 407.061 195.057 406.637C196.065 405.808 197.18 404.89 198.395 403.891C199.003 403.391 199.635 402.872 200.291 402.332C200.923 401.765 201.578 401.177 202.255 400.57C202.931 399.962 203.629 399.334 204.348 398.689C204.707 398.366 205.072 398.038 205.441 397.706C205.626 397.54 205.812 397.373 206 397.204C206.18 397.029 206.362 396.853 206.545 396.675C208.008 395.251 209.546 393.754 211.151 392.192C211.558 391.807 211.943 391.392 212.339 390.98C212.733 390.566 213.132 390.149 213.534 389.727C214.339 388.884 215.159 388.025 215.993 387.152C216.406 386.711 216.84 386.283 217.246 385.822C217.655 385.364 218.068 384.902 218.483 384.437C219.314 383.506 220.158 382.561 221.013 381.604C224.405 377.746 227.858 373.566 231.313 369.149C232.196 368.06 233.038 366.925 233.894 365.786C234.749 364.648 235.611 363.501 236.479 362.348L237.129 361.481L237.762 360.597C238.184 360.006 238.608 359.414 239.032 358.821C239.881 357.634 240.735 356.441 241.592 355.243C243.255 352.812 244.942 350.369 246.599 347.89C247.415 346.643 248.232 345.392 249.05 344.141L250.277 342.263C250.685 341.635 251.075 340.996 251.475 340.364C253.062 337.826 254.671 335.302 256.192 332.736C256.962 331.459 257.731 330.184 258.497 328.914C259.242 327.63 259.985 326.351 260.726 325.077C263.696 319.985 266.481 314.893 269.147 309.951C271.77 304.986 274.273 300.168 276.546 295.549C278.847 290.943 280.923 286.539 282.826 282.469C284.708 278.388 286.402 274.633 287.856 271.284C289.323 267.94 290.547 265.002 291.554 262.582C293.551 257.733 294.6 254.932 294.6 254.932C294.657 254.78 294.826 254.703 294.977 254.76C295.129 254.817 295.205 254.986 295.148 255.138Z" fill="#BDD0FB"/>
</g>
<path d="M59.518 209L200.112 208.875C207.869 208.868 214.27 214.953 214.671 222.716L225.23 426.977C225.544 433.052 220.777 438.18 214.708 438.296L53.5718 441.374C47.8695 441.483 43.1871 436.883 43.1821 431.168L43 225.582C42.992 216.432 50.3873 209.008 59.518 209Z" fill="url(#paint3_linear_530_3342)"/>
<path d="M77.1178 437.841C77.1165 437.841 77.1152 437.841 77.1137 437.841L59.0829 437.623C53.0754 437.551 48.1837 432.594 48.1785 426.573L48.1543 399.292C48.154 399.101 48.3087 398.946 48.4993 398.946H48.4996C48.6902 398.946 48.8446 399.101 48.8449 399.292L48.8691 426.572C48.8739 432.216 53.4593 436.863 59.091 436.931L77.1218 437.149C77.3127 437.151 77.4655 437.308 77.4631 437.499C77.4608 437.689 77.3067 437.841 77.1178 437.841Z" fill="#BDD0FB"/>
<path d="M48.492 391.187C48.3014 391.187 48.147 391.033 48.1467 390.842L48.1426 386.424C48.1423 386.232 48.297 386.078 48.4876 386.077H48.4879C48.6784 386.077 48.8329 386.232 48.8332 386.423L48.8373 390.841C48.8376 391.032 48.6828 391.187 48.4923 391.187H48.492Z" fill="#BDD0FB"/>
<path d="M59.9486 207.343C79.1503 209.935 145.179 217.946 199.762 213.699C202.251 213.505 204.413 215.393 204.547 217.892L215.611 423.063C215.762 425.876 213.621 428.284 210.815 428.453C187.858 429.835 93.3149 435.182 59.5881 431.672C57.5355 431.458 55.976 429.728 55.962 427.66L54.506 212.148C54.4862 209.221 57.0534 206.952 59.9486 207.343Z" fill="url(#paint4_linear_530_3342)"/>
<path opacity="0.6" d="M62.0111 212.664C80.4898 215.158 144.032 222.868 196.559 218.78C198.955 218.593 201.035 220.411 201.165 222.815L211.812 420.26C211.958 422.968 209.897 425.285 207.196 425.447C185.104 426.777 94.1211 431.923 61.6642 428.545C59.6889 428.34 58.188 426.675 58.1746 424.684L56.7735 217.288C56.7545 214.47 59.2249 212.288 62.0111 212.664Z" fill="white"/>
<path opacity="0.78" d="M73.89 232.496L75.8898 274.827C75.9563 276.234 77.0922 277.353 78.4982 277.391C86.3217 277.606 110.7 278.18 124.464 277.448C126.021 277.366 127.251 276.102 127.302 274.541C127.557 266.601 128.111 243.494 126.297 233.836C126.004 232.276 124.665 231.134 123.082 231.08L76.8394 229.501C75.1719 229.444 73.8111 230.826 73.89 232.496Z" fill="white"/>
<path d="M100.512 256.707C105.528 256.707 109.593 252.633 109.593 247.607C109.593 242.581 105.528 238.507 100.512 238.507C95.4972 238.507 91.4316 242.581 91.4316 247.607C91.4316 252.633 95.4972 256.707 100.512 256.707Z" fill="url(#paint5_linear_530_3342)"/>
<path d="M86.7407 274.337L115.671 274.311C117.444 274.31 118.506 272.346 117.549 270.849C115.088 266.998 109.942 261.342 101.038 261.605C92.4565 261.859 87.3745 266.977 84.8208 270.647C83.7366 272.204 84.8455 274.339 86.7407 274.337Z" fill="url(#paint6_linear_530_3342)"/>
<g opacity="0.6">
<path d="M189.846 236.078C190.605 236.077 191.208 235.454 191.185 234.693L191.183 234.62C191.16 233.859 190.52 233.226 189.76 233.213L138.521 232.343C137.761 232.331 137.347 232.907 137.6 233.625L138.02 234.818C138.273 235.536 139.102 236.123 139.861 236.122L189.846 236.078Z" fill="white"/>
</g>
<g opacity="0.6">
<path d="M138.529 240.235C137.769 240.222 137.354 240.799 137.608 241.517L138.028 242.71C138.281 243.428 139.11 244.015 139.869 244.014L189.853 243.97C190.613 243.969 191.216 243.346 191.193 242.585L191.191 242.512C191.168 241.751 190.528 241.118 189.768 241.105L138.529 240.235Z" fill="white"/>
</g>
<g opacity="0.6">
<path d="M138.536 248.242C137.777 248.229 137.362 248.806 137.615 249.523L138.036 250.716C138.289 251.434 139.117 252.021 139.877 252.02L189.861 251.976C190.621 251.975 191.224 251.352 191.201 250.591L191.199 250.518C191.176 249.757 190.536 249.124 189.776 249.111L138.536 248.242Z" fill="white"/>
</g>
<g opacity="0.6">
<path d="M194.821 290.583C195.581 290.582 196.161 289.96 196.11 289.201L196.105 289.123C196.054 288.363 195.391 287.737 194.632 287.732L75.306 286.896C74.5464 286.89 74.3125 287.373 74.7861 287.968L76.0898 289.606C76.5636 290.201 77.5727 290.687 78.3324 290.687L194.821 290.583Z" fill="white"/>
</g>
<g opacity="0.6">
<path d="M75.3138 294.787C74.5542 294.782 74.3203 295.264 74.7939 295.86L76.0976 297.497C76.5714 298.092 77.5805 298.579 78.3402 298.578L194.829 298.475C195.589 298.474 196.169 297.852 196.118 297.092L196.113 297.014C196.062 296.255 195.399 295.629 194.64 295.624L75.3138 294.787Z" fill="white"/>
</g>
<path d="M91.1291 325.215C91.121 325.215 91.1129 325.215 91.1049 325.215L81.0787 325.127C79.6664 325.115 78.4997 324.144 78.3655 322.868L77.4766 314.439C77.4256 313.955 77.5754 313.476 77.8985 313.09C78.2606 312.658 78.8093 312.386 79.4038 312.345C80.2489 312.287 81.4389 312.184 82.6988 312.075C85.3494 311.846 88.6481 311.562 90.5035 311.537C90.5176 311.537 90.5318 311.537 90.5459 311.537C91.8452 311.537 92.9634 312.328 93.2737 313.473C93.7967 315.404 93.7536 319.063 93.6577 322.962C93.6269 324.209 92.4949 325.215 91.1291 325.215ZM90.5457 312.229C90.5345 312.229 90.5238 312.229 90.5124 312.229C88.6822 312.254 85.3974 312.537 82.758 312.765C81.4951 312.873 80.3024 312.976 79.4515 313.036C79.0428 313.064 78.6695 313.246 78.4271 313.535C78.2258 313.776 78.132 314.071 78.1631 314.366L79.052 322.795C79.1498 323.721 80.0236 324.426 81.0847 324.435L91.111 324.523C92.0998 324.534 92.9455 323.824 92.9671 322.945C93.0618 319.099 93.1057 315.495 92.6073 313.654C92.3785 312.811 91.5338 312.229 90.5457 312.229Z" fill="white"/>
<g opacity="0.6">
<path d="M100.482 316.507C99.7227 316.505 99.2602 317.106 99.4545 317.842L100.074 320.186C100.268 320.922 101.048 321.517 101.808 321.508L193.268 320.468C194.027 320.459 194.635 319.829 194.617 319.068L194.595 318.088C194.578 317.327 193.942 316.703 193.182 316.701L100.482 316.507Z" fill="white"/>
</g>
<path d="M80.9628 315.266C81.7067 314.827 82.6648 315.088 83.0859 315.843L85.0666 319.393C85.2648 319.749 85.7827 319.726 85.9489 319.354L90.8441 308.407C91.0884 307.861 91.8997 308.045 91.8913 308.643C91.8441 311.99 90.9636 318.354 85.6313 323.684C85.6313 323.684 82.6893 322.541 80.3162 317.331C79.9733 316.579 80.2512 315.685 80.9628 315.266Z" fill="url(#paint7_linear_530_3342)"/>
<path d="M91.1484 346.749C91.1404 346.749 91.1323 346.749 91.1242 346.749L81.0983 346.662C79.686 346.649 78.5193 345.678 78.3851 344.403L77.4962 335.973C77.4449 335.489 77.5947 335.011 77.9174 334.625C78.2796 334.192 78.8285 333.92 79.4234 333.879C80.2678 333.82 81.4571 333.718 82.716 333.609C85.3673 333.38 88.667 333.096 90.5227 333.071C90.5372 333.071 90.5517 333.071 90.5662 333.071C91.8651 333.071 92.983 333.862 93.2929 335.007C93.8159 336.939 93.7731 340.598 93.6773 344.496C93.6466 345.743 92.5145 346.749 91.1484 346.749ZM79.4711 334.57C79.0624 334.598 78.6888 334.78 78.4464 335.07C78.2451 335.31 78.1516 335.605 78.1827 335.9L79.0716 344.33C79.1694 345.255 80.0432 345.96 81.1044 345.97L91.1302 346.057C91.1363 346.057 91.1424 346.057 91.1484 346.057C92.1425 346.057 92.9654 345.353 92.9867 344.479C93.0815 340.634 93.1252 337.03 92.6265 335.188C92.3989 334.349 91.5245 333.737 90.5321 333.763C88.7013 333.787 85.4155 334.071 82.775 334.299C81.5131 334.408 80.3213 334.51 79.4711 334.57Z" fill="white"/>
<path opacity="0.6" d="M80.553 335.478C82.6591 335.332 87.2364 334.862 89.4075 334.833C90.3275 334.821 91.1348 335.377 91.3513 336.176C91.7716 337.729 91.7189 340.824 91.6487 343.68C91.6276 344.535 90.8443 345.219 89.8869 345.211L81.8748 345.141C80.8895 345.132 80.0708 344.46 79.9784 343.583L79.268 336.847C79.1946 336.15 79.7723 335.532 80.553 335.478Z" fill="white"/>
<g opacity="0.6">
<path d="M100.502 338.041C99.7422 338.039 99.2797 338.64 99.4741 339.376L100.093 341.72C100.287 342.456 101.068 343.051 101.828 343.042L193.287 342.002C194.047 341.993 194.654 341.363 194.637 340.602L194.615 339.622C194.597 338.861 193.962 338.237 193.202 338.235L100.502 338.041Z" fill="white"/>
</g>
<path d="M91.1663 368.283C91.1582 368.283 91.1502 368.283 91.1421 368.283L81.1158 368.195C79.7035 368.183 78.5368 367.212 78.4026 365.937L77.5137 357.507C77.4627 357.023 77.6125 356.544 77.9356 356.158C78.2978 355.726 78.8464 355.454 79.441 355.413C80.2864 355.354 81.4768 355.252 82.737 355.143C85.3872 354.914 88.6856 354.63 90.5406 354.605C91.8476 354.587 92.9976 355.383 93.3109 356.541C93.8335 358.471 93.7908 362.13 93.6953 366.03C93.664 367.277 92.5321 368.283 91.1663 368.283ZM90.5813 355.297C90.5708 355.297 90.5604 355.297 90.5496 355.297C88.7198 355.322 85.4353 355.605 82.7962 355.833C81.533 355.941 80.3396 356.044 79.4887 356.104C79.08 356.132 78.7067 356.314 78.4643 356.603C78.263 356.844 78.1692 357.139 78.2002 357.434L79.0891 365.864C79.1869 366.789 80.0606 367.494 81.1218 367.503L91.148 367.591C91.154 367.591 91.1602 367.591 91.1662 367.591C92.16 367.591 92.9828 366.886 93.0044 366.013C93.0988 362.167 93.1423 358.562 92.6443 356.722C92.4194 355.892 91.5548 355.297 90.5813 355.297Z" fill="white"/>
<path opacity="0.6" d="M80.5725 357.012C82.6786 356.866 87.2559 356.396 89.4269 356.367C90.347 356.355 91.1543 356.911 91.3707 357.71C91.7911 359.263 91.7383 362.357 91.6681 365.214C91.6471 366.069 90.8637 366.753 89.9063 366.745L81.8942 366.675C80.9089 366.666 80.0904 365.993 79.9979 365.117L79.2875 358.381C79.2141 357.684 79.7917 357.066 80.5725 357.012Z" fill="white"/>
<g opacity="0.6">
<path d="M100.521 359.575C99.7618 359.574 99.2992 360.174 99.4936 360.91L100.113 363.254C100.307 363.99 101.088 364.585 101.847 364.576L193.307 363.536C194.066 363.527 194.674 362.898 194.656 362.136L194.634 361.156C194.617 360.395 193.981 359.771 193.221 359.769L100.521 359.575Z" fill="white"/>
</g>
<path d="M91.1855 389.817C91.1775 389.817 91.1694 389.817 91.1613 389.817L81.1355 389.73C79.7231 389.717 78.5564 388.746 78.4222 387.471L77.5333 379.041C77.4821 378.557 77.6318 378.079 77.9545 377.693C78.3167 377.26 78.8656 376.988 79.4605 376.947C80.3049 376.888 81.4943 376.786 82.7531 376.677C85.4044 376.448 88.7041 376.164 90.5598 376.139C91.8679 376.118 93.0164 376.917 93.3301 378.076C93.8532 380.007 93.8103 383.666 93.7146 387.564C93.6837 388.811 92.5516 389.817 91.1855 389.817ZM79.5084 377.638C79.0996 377.666 78.726 377.848 78.4836 378.138C78.2823 378.378 78.1888 378.673 78.2199 378.968L79.1088 387.397C79.2066 388.323 80.0804 389.028 81.1416 389.037L91.1674 389.125C92.1606 389.144 93.0023 388.426 93.0239 387.547C93.1186 383.702 93.1625 380.098 92.6637 378.257C92.4361 377.417 91.5675 376.81 90.5693 376.831C88.7386 376.855 85.4527 377.139 82.8123 377.367C81.5502 377.476 80.3585 377.578 79.5084 377.638Z" fill="white"/>
<path opacity="0.6" d="M80.5919 378.546C82.6979 378.4 87.2753 377.93 89.4464 377.901C90.3663 377.889 91.1737 378.445 91.3902 379.244C91.8105 380.797 91.7578 383.892 91.6876 386.748C91.6665 387.604 90.8831 388.287 89.9259 388.279L81.9138 388.209C80.9285 388.2 80.1099 387.528 80.0175 386.651L79.3071 379.915C79.2335 379.218 79.8112 378.601 80.5919 378.546Z" fill="white"/>
<g opacity="0.6">
<path d="M100.541 381.109C99.7813 381.108 99.3188 381.708 99.5131 382.444L100.132 384.788C100.327 385.524 101.107 386.119 101.867 386.11L193.326 385.07C194.086 385.061 194.693 384.432 194.676 383.671L194.654 382.69C194.636 381.929 194.001 381.305 193.241 381.303L100.541 381.109Z" fill="white"/>
</g>
<path d="M138.51 181.078C133.429 177.542 129.013 177.616 125.905 178.538C123.07 179.379 121.235 182.124 121.507 185.075L122.861 199.737L138.814 201.141C138.814 201.141 148.476 188.013 138.51 181.078ZM131.506 192.914C129.309 192.916 127.526 191.133 127.524 188.931C127.522 186.73 129.302 184.944 131.498 184.942C133.695 184.94 135.478 186.723 135.48 188.924C135.482 191.126 133.702 192.912 131.506 192.914Z" fill="url(#paint8_linear_530_3342)"/>
<path d="M124.449 193.527C124.273 193.527 124.122 193.392 124.105 193.213L123.89 190.878C123.872 190.688 124.012 190.519 124.202 190.502C124.392 190.481 124.56 190.625 124.578 190.815L124.793 193.149C124.811 193.34 124.671 193.508 124.481 193.526C124.47 193.527 124.46 193.527 124.449 193.527ZM124.026 188.952C123.85 188.952 123.699 188.817 123.683 188.637L123.519 186.864C123.262 184.073 125.012 181.472 127.681 180.679C129.578 180.117 131.532 180.035 133.492 180.435C133.679 180.473 133.8 180.656 133.762 180.843C133.723 181.031 133.541 181.151 133.354 181.113C131.508 180.736 129.665 180.813 127.878 181.343C125.523 182.042 123.979 184.337 124.207 186.801L124.371 188.574C124.388 188.764 124.248 188.933 124.058 188.95C124.048 188.951 124.037 188.952 124.026 188.952Z" fill="#BDD0FB"/>
<path d="M101.098 209.232L101.092 201.86C101.09 199.315 103.193 197.275 105.731 197.36L156.453 199.056C158.704 199.131 160.528 200.91 160.665 203.163L161.095 210.247L101.098 209.232Z" fill="url(#paint9_linear_530_3342)"/>
<path d="M117.82 200.087C117.629 200.087 117.475 199.932 117.475 199.741C117.474 199.55 117.629 199.395 117.82 199.395L120.001 199.393H120.001C120.192 199.393 120.346 199.548 120.347 199.739C120.347 199.93 120.192 200.085 120.002 200.085L117.82 200.087H117.82Z" fill="#BDD0FB"/>
<path d="M103.84 206.875C103.65 206.875 103.495 206.72 103.495 206.529L103.492 203.547C103.491 201.264 105.342 199.406 107.619 199.404L115.638 199.397H115.639C115.829 199.397 115.984 199.552 115.984 199.743C115.984 199.934 115.83 200.089 115.639 200.089L107.62 200.096C105.723 200.098 104.181 201.646 104.183 203.546L104.185 206.529C104.186 206.72 104.031 206.875 103.84 206.875H103.84V206.875Z" fill="#BDD0FB"/>
<path d="M85.2026 206.548L173.897 206.467C177.086 206.464 179.815 208.762 180.362 211.91L180.437 212.345C181.036 215.794 178.389 218.951 174.896 218.954L83.9001 219.035C81.8096 219.037 80.142 217.287 80.2405 215.194L80.4326 211.112C80.5529 208.559 82.6522 206.551 85.2026 206.548Z" fill="url(#paint10_linear_530_3342)"/>
<path d="M328.563 325.549L325.918 437.725L325.508 455.029C325.508 457.296 323.652 459.087 321.39 459.087H98.8232C96.5606 459.087 94.7053 457.296 94.7053 455.029L94.4539 437.692L92.8535 326.903C92.8535 324.635 95.5196 320.219 100.402 320.552L317.92 314.914C320.76 314.843 323.507 315.938 325.518 317.95C327.529 319.959 328.631 322.707 328.563 325.549Z" fill="#7D97F4"/>
<path d="M320.064 450.499C320.064 452.614 318.3 454.345 316.144 454.345H104.124C101.968 454.345 100.204 452.614 100.204 450.499L98.4395 330.884C98.4395 328.769 100.978 324.64 105.629 324.951L312.838 319.687C315.544 319.618 318.16 320.641 320.076 322.516C321.992 324.391 323.04 326.954 322.976 329.608L320.064 450.499Z" fill="url(#paint11_linear_530_3342)"/>
<path d="M223.671 403.857C223.595 405.827 222.119 407.394 220.372 407.401L116.5 407.813C114.533 407.821 112.946 406.19 112.959 404.094C112.972 401.995 114.584 400.352 116.555 400.352H220.642C222.392 400.352 223.747 401.884 223.671 403.857Z" fill="#7D97F4"/>
<path d="M244.457 347.706C244.47 349.837 243.131 351.562 241.457 351.58L122.12 352.836C119.409 352.865 117.294 350.702 117.422 347.961C117.549 345.225 119.857 343.067 122.556 343.085L241.423 343.876C243.092 343.887 244.445 345.579 244.457 347.706Z" fill="#7D97F4"/>
<path d="M167.751 418.861C167.714 420.508 166.459 421.856 164.946 421.874L116.489 422.461C114.89 422.48 113.6 421.122 113.611 419.426L113.613 419.235C113.624 417.537 114.933 416.148 116.535 416.134L165.079 415.714C166.595 415.701 167.792 417.028 167.755 418.676L167.751 418.861Z" fill="#7D97F4"/>
<path d="M214.062 418.034C214.035 419.247 213.11 420.241 211.995 420.255L176.279 420.687C175.1 420.701 174.15 419.7 174.158 418.45L174.159 418.309C174.167 417.058 175.133 416.034 176.314 416.024L212.093 415.714C213.21 415.704 214.093 416.682 214.065 417.897L214.062 418.034Z" fill="#7D97F4"/>
<path d="M167.423 433.407C167.386 435.04 166.137 436.387 164.63 436.417L116.377 437.393C114.785 437.425 113.501 436.09 113.512 434.409L113.513 434.219C113.524 432.536 114.828 431.149 116.423 431.122L164.762 430.309C166.271 430.284 167.464 431.589 167.427 433.223L167.423 433.407Z" fill="#7D97F4"/>
<path d="M316.018 455.927H292.402C292.234 455.927 292.098 455.79 292.098 455.621C292.098 455.453 292.234 455.316 292.402 455.316H316.018C319.073 455.316 321.654 452.69 321.654 449.582V376.535C321.654 376.366 321.79 376.229 321.959 376.229C322.127 376.229 322.263 376.366 322.263 376.535V449.582C322.263 453.021 319.403 455.927 316.018 455.927Z" fill="#BDD0FB"/>
<path d="M98.7109 376.229C98.5426 376.229 98.4062 376.093 98.4062 375.924V333.228C98.4062 328.746 101.777 325.235 106.081 325.235H125.017C125.185 325.235 125.322 325.372 125.322 325.54C125.322 325.709 125.185 325.846 125.017 325.846H106.081C102.119 325.846 99.0156 329.088 99.0156 333.228V375.924C99.0156 376.093 98.8793 376.229 98.7109 376.229Z" fill="#BDD0FB"/>
<path d="M246.942 430.277H245.334C244.89 430.277 244.463 430.495 244.463 430.824V444.262C244.463 444.592 244.89 444.527 245.334 444.527H246.942C247.386 444.527 247.916 444.592 247.916 444.262V430.824C247.916 430.495 247.386 430.277 246.942 430.277Z" fill="#7D97F4"/>
<path d="M258.854 430.277H256.543C255.904 430.277 255.637 430.495 255.637 430.824V444.262C255.637 444.592 255.904 444.527 256.543 444.527H258.854C259.493 444.527 259.699 444.592 259.699 444.262V430.824C259.699 430.495 259.493 430.277 258.854 430.277Z" fill="#7D97F4"/>
<path d="M250.962 430.277H250.158C249.936 430.277 249.135 430.495 249.135 430.824V444.262C249.135 444.592 249.936 444.527 250.158 444.527H250.962C251.184 444.527 251.166 444.592 251.166 444.262V430.824C251.166 430.495 251.184 430.277 250.962 430.277Z" fill="#7D97F4"/>
<path d="M253.778 430.277H252.974C252.752 430.277 252.996 430.495 252.996 430.824V444.262C252.996 444.592 252.752 444.527 252.974 444.527H253.778C254 444.527 254.012 444.592 254.012 444.262V430.824C254.012 430.495 254 430.277 253.778 430.277Z" fill="#7D97F4"/>
<path d="M262.622 430.277H261.817C261.595 430.277 261.322 430.495 261.322 430.824V444.262C261.322 444.592 261.595 444.527 261.817 444.527H262.622C262.844 444.527 262.947 444.592 262.947 444.262V430.824C262.947 430.495 262.844 430.277 262.622 430.277Z" fill="#7D97F4"/>
<path d="M268.251 430.277H267.447C267.225 430.277 267.417 430.495 267.417 430.824V444.262C267.417 444.592 267.225 444.527 267.447 444.527H268.251C268.473 444.527 268.839 444.592 268.839 444.262V430.824C268.839 430.495 268.473 430.277 268.251 430.277Z" fill="#7D97F4"/>
<path d="M265.336 430.277H264.331C264.053 430.277 264.37 430.495 264.37 430.824V444.262C264.37 444.592 264.053 444.527 264.331 444.527H265.336C265.614 444.527 265.792 444.592 265.792 444.262V430.824C265.792 430.495 265.614 430.277 265.336 430.277Z" fill="#7D97F4"/>
<path d="M272.673 430.277H271.064C270.62 430.277 269.854 430.495 269.854 430.824V444.262C269.854 444.592 270.62 444.527 271.064 444.527H272.673C273.117 444.527 273.916 444.592 273.916 444.262V430.824C273.916 430.495 273.117 430.277 272.673 430.277Z" fill="#7D97F4"/>
<path d="M284.585 430.277H282.273C281.635 430.277 280.824 430.495 280.824 430.824V444.262C280.824 444.592 281.635 444.527 282.273 444.527H284.585C285.224 444.527 285.293 444.592 285.293 444.262V430.824C285.293 430.495 285.224 430.277 284.585 430.277Z" fill="#7D97F4"/>
<path d="M276.693 430.277H275.889C275.667 430.277 275.541 430.495 275.541 430.824V444.262C275.541 444.592 275.667 444.527 275.889 444.527H276.693C276.915 444.527 277.166 444.592 277.166 444.262V430.824C277.166 430.495 276.915 430.277 276.693 430.277Z" fill="#7D97F4"/>
<path d="M279.506 430.277H278.701C278.479 430.277 278.586 430.495 278.586 430.824V444.262C278.586 444.592 278.479 444.527 278.701 444.527H279.506C279.728 444.527 279.805 444.592 279.805 444.262V430.824C279.805 430.495 279.728 430.277 279.506 430.277Z" fill="#7D97F4"/>
<path d="M288.352 430.277H287.548C287.326 430.277 286.916 430.495 286.916 430.824V444.262C286.916 444.592 287.326 444.527 287.548 444.527H288.352C288.574 444.527 288.947 444.592 288.947 444.262V430.824C288.947 430.495 288.574 430.277 288.352 430.277Z" fill="#7D97F4"/>
<path d="M293.983 430.277H293.179C292.957 430.277 292.605 430.495 292.605 430.824V444.262C292.605 444.592 292.957 444.527 293.179 444.527H293.983C294.205 444.527 294.637 444.592 294.637 444.262V430.824C294.637 430.495 294.205 430.277 293.983 430.277Z" fill="#7D97F4"/>
<path d="M291.067 430.277H290.061C289.784 430.277 289.963 430.495 289.963 430.824V444.262C289.963 444.592 289.784 444.527 290.061 444.527H291.067C291.344 444.527 291.792 444.592 291.792 444.262V430.824C291.792 430.495 291.344 430.277 291.067 430.277Z" fill="#7D97F4"/>
<path d="M298.405 430.277H296.797C296.353 430.277 296.059 430.495 296.059 430.824V444.262C296.059 444.592 296.353 444.527 296.797 444.527H298.405C298.849 444.527 299.512 444.592 299.512 444.262V430.824C299.512 430.495 298.849 430.277 298.405 430.277Z" fill="#7D97F4"/>
<path d="M310.316 430.277H308.004C307.366 430.277 306.824 430.495 306.824 430.824V444.262C306.824 444.592 307.366 444.527 308.004 444.527H310.316C310.954 444.527 311.293 444.592 311.293 444.262V430.824C311.293 430.495 310.954 430.277 310.316 430.277Z" fill="#7D97F4"/>
<path d="M302.426 430.277H301.622C301.399 430.277 301.137 430.495 301.137 430.824V444.262C301.137 444.592 301.399 444.527 301.622 444.527H302.426C302.648 444.527 303.168 444.592 303.168 444.262V430.824C303.168 430.495 302.648 430.277 302.426 430.277Z" fill="#7D97F4"/>
<path d="M305.24 430.277H304.436C304.214 430.277 304.184 430.495 304.184 430.824V444.262C304.184 444.592 304.214 444.527 304.436 444.527H305.24C305.462 444.527 305.809 444.592 305.809 444.262V430.824C305.809 430.495 305.462 430.277 305.24 430.277Z" fill="#7D97F4"/>
<path d="M305.581 361.452H285.517V341.345C285.517 340.505 284.837 339.824 283.999 339.824H274.894C274.056 339.824 273.377 340.505 273.377 341.345V361.452H253.312C252.474 361.452 251.795 362.133 251.795 362.973V372.098C251.795 372.937 252.474 373.618 253.312 373.618H273.377V393.726C273.377 394.565 274.056 395.246 274.894 395.246H283.999C284.837 395.246 285.517 394.565 285.517 393.726V373.618H305.581C306.419 373.618 307.099 372.937 307.099 372.098V362.973C307.099 362.133 306.419 361.452 305.581 361.452Z" fill="#91B3FA"/>
<path d="M173.823 348.652L170.834 349.383C167.191 350.483 164.114 350.763 161.483 350.484C153.266 349.613 149.41 343.27 146.356 339.236C142.324 333.911 137.873 334.831 137.873 334.831L140.597 346.582C146.693 356.316 155.413 356.779 161.274 355.666C165.005 354.958 167.578 353.612 167.578 353.612C174.44 351.61 173.823 348.652 173.823 348.652Z" fill="#BDD0FB"/>
<path d="M180.589 354.369C180.566 353.76 180.268 353.196 179.78 352.834L175.014 349.303C175.014 349.303 175.111 348.598 176.437 348.447C177.762 348.296 177.831 346.87 177.831 346.87C177.831 346.87 175.99 347.194 173.271 347.759C171.716 348.083 170.63 349.086 169.984 349.887L170.886 352.049C173.91 353.891 177.18 354.945 180.629 355.425L180.589 354.369Z" fill="url(#paint12_linear_530_3342)"/>
<path d="M109.496 419.399L133.155 420.316V411.649L113.176 409.816L109.496 419.399Z" fill="#BDD0FB"/>
<path d="M133.78 307.789C133.78 307.789 127.766 309.798 123.87 318.409C122.805 320.763 117.02 321.181 116.423 326.011C116.115 328.504 114.274 330.501 111.796 330.881C105.623 331.829 96.1116 335.041 94.5896 345.781C93.428 353.978 97.5979 357.086 101.974 358.162C105.188 358.952 107.324 362.085 106.674 365.337C106.05 368.456 106.98 372.062 112.372 374.913C124.456 381.303 136.523 359.776 136.523 359.776L138.996 322.189L133.78 307.789Z" fill="url(#paint13_linear_530_3342)"/>
<path d="M98.5665 459.225L98.0787 463.244C97.9862 464.006 97.3872 464.609 96.6256 464.696C95.34 464.843 93.2769 464.994 91.2584 464.78C90.3723 464.686 89.7971 463.787 90.067 462.937C90.5591 461.385 91.4593 459.056 92.7572 457.686H97.2061C98.0286 457.686 98.6658 458.407 98.5665 459.225Z" fill="url(#paint14_linear_530_3342)"/>
<path d="M133.411 412.145L134.162 416.572C134.162 416.572 131.647 442.097 131.2 452.307C131.13 453.907 131.543 455.489 132.381 456.854L136.754 463.969L125.641 457.398L125.42 456.039L127.239 453.532L124.857 424.938C124.717 423.258 125.062 421.574 125.853 420.086L128.151 415.758L133.411 412.145Z" fill="url(#paint15_linear_530_3342)"/>
<path d="M137.485 465H133.939C133.275 465 132.649 464.695 132.244 464.167C131.139 462.728 128.848 459.919 127.753 459.846C126.279 459.747 126.467 465 126.467 465H125.641L124.594 458.473C124.331 456.831 125.146 455.204 126.617 454.434C126.617 454.434 126.954 456.932 128.782 458.037C130.609 459.142 136.218 463.098 136.218 463.098C136.218 463.098 136.905 463 137.659 463.137C138.778 463.34 138.622 465 137.485 465Z" fill="url(#paint16_linear_530_3342)"/>
<path d="M118.189 414.248C118.189 414.248 103.458 442.251 101.116 448.645C98.7749 455.038 97.9545 460.372 97.9231 460.877C97.874 461.666 96.8944 462.423 94.1945 462.423C92.801 462.423 92.1186 461.863 91.7844 461.321C91.4994 460.859 91.4846 460.281 91.7248 459.794C92.5769 458.065 95.2811 452.542 96.2827 450.038C97.4784 447.047 100.051 433.493 101.461 428.781C102.872 424.068 104.466 418.956 110.609 414.248C110.609 414.248 114.826 410.109 118.189 414.248Z" fill="url(#paint17_linear_530_3342)"/>
<path d="M127.496 368.363C131.296 352.227 121.67 343.1 121.67 343.1C125.559 339.359 131.495 336.923 135.262 335.655C137.496 334.903 139.96 335.417 141.701 337.009C144.727 339.776 148.936 344.441 148.119 348.391C147.384 351.941 140.696 369.652 140.696 369.652C140.696 369.652 134.511 372.585 127.496 368.363Z" fill="url(#paint18_linear_530_3342)"/>
<path d="M119.071 376.352C120.618 371.683 127.496 368.363 127.496 368.363C134.511 372.585 140.696 369.652 140.696 369.652C140.696 369.652 142.083 374.965 141.125 379.902C140.168 384.84 134.162 416.572 134.162 416.572C124.698 418.493 110.143 414.638 110.143 414.638C116.171 403.913 117.525 381.02 119.071 376.352Z" fill="url(#paint19_linear_530_3342)"/>
<path d="M131.907 323.935L128.818 337.842C128.522 339.067 129.636 338.867 130.872 338.633C132.896 338.251 135.504 337.463 136.376 335.885C136.465 335.724 136.509 335.543 136.534 335.361L137.862 325.718C137.967 324.953 137.554 324.21 136.85 323.897L134.289 322.759C133.302 322.321 132.161 322.884 131.907 323.935Z" fill="url(#paint20_linear_530_3342)"/>
<path d="M139.995 312.849C139.995 312.849 142.602 315.851 142.513 321.706C142.424 327.562 139.682 328.941 137.439 328.215C135.195 327.488 132.083 325.905 130.268 321.205C128.453 316.504 136.527 309.105 139.995 312.849Z" fill="url(#paint21_linear_530_3342)"/>
<path d="M133.737 319.757C133.737 319.757 134.657 311.578 140.857 314.516L141.811 316.242C141.811 316.242 145.956 313.49 143.146 309.828C140.336 306.166 135.251 305.559 131.227 309.794C127.202 314.029 125.296 317.249 126.752 320.934C128.209 324.618 130.618 322.432 130.618 322.432C130.618 322.432 130.282 319.489 131.45 318.575C132.618 317.661 133.254 319.767 133.254 319.767L133.737 319.757Z" fill="url(#paint22_linear_530_3342)"/>
<path d="M132.667 320.194C132.667 320.194 133.164 315.992 130.795 316.6C128.425 317.209 130.536 320.58 131.425 321.773L132.667 320.194Z" fill="url(#paint23_linear_530_3342)"/>
<path opacity="0.44" d="M136.66 308.237C135.21 308.712 133.916 309.582 132.74 310.543C131.561 311.511 130.539 312.662 129.676 313.914C128.811 315.166 128.114 316.534 127.628 317.976C127.386 318.697 127.193 319.431 127.051 320.181C126.905 320.931 126.783 321.698 126.551 322.451C126.324 323.2 125.956 323.944 125.391 324.519C124.839 325.103 124.16 325.526 123.48 325.896C122.796 326.264 122.098 326.584 121.442 326.957C120.783 327.323 120.182 327.77 119.646 328.295C118.573 329.342 117.8 330.675 117.411 332.126C117.203 332.855 117.046 333.615 116.772 334.36C116.506 335.102 116.079 335.842 115.44 336.361C114.812 336.889 114.055 337.206 113.303 337.423C112.545 337.639 111.779 337.766 111.025 337.896C109.518 338.134 108.051 338.527 106.652 339.116C105.259 339.707 103.936 340.481 102.782 341.458C101.628 342.431 100.641 343.616 99.9707 344.967C99.2972 346.312 98.9792 347.843 99.1782 349.335C99.3838 350.815 100.038 352.267 101.149 353.276C101.699 353.779 102.351 354.176 103.068 354.382C103.787 354.586 104.555 354.611 105.295 354.486C106.772 354.254 108.187 353.306 108.743 351.878L108.855 351.919C108.311 353.408 106.862 354.423 105.333 354.695C104.566 354.841 103.764 354.831 103 354.632C102.236 354.428 101.535 354.022 100.945 353.502C99.7562 352.449 99.0676 350.928 98.8397 349.381C98.6195 347.817 98.9447 346.204 99.6354 344.802C100.323 343.391 101.336 342.161 102.519 341.149C103.703 340.132 105.055 339.329 106.481 338.712C107.908 338.099 109.422 337.684 110.944 337.433C111.699 337.298 112.449 337.167 113.167 336.957C113.882 336.745 114.569 336.445 115.117 335.976C115.67 335.513 116.053 334.886 116.31 334.187C116.572 333.491 116.735 332.742 116.952 331.994C117.371 330.479 118.201 329.065 119.337 327.976C119.902 327.429 120.548 326.957 121.233 326.583C121.914 326.203 122.616 325.888 123.286 325.533C123.953 325.177 124.597 324.778 125.106 324.246C125.627 323.723 125.967 323.053 126.19 322.338C126.417 321.622 126.544 320.867 126.696 320.111C126.846 319.352 127.049 318.597 127.302 317.864C127.81 316.395 128.53 315.004 129.421 313.735C130.327 312.479 131.39 311.332 132.605 310.376C133.818 309.428 135.14 308.577 136.625 308.123L136.66 308.237Z" fill="white"/>
<path opacity="0.44" d="M128.505 318.771C128.456 319.761 128.397 320.756 128.215 321.741C128.036 322.723 127.749 323.71 127.215 324.588C126.949 325.024 126.625 325.433 126.25 325.783C125.876 326.135 125.467 326.436 125.056 326.72C124.227 327.278 123.422 327.816 122.687 328.457C121.222 329.716 119.991 331.292 119.606 333.177C119.165 335.042 119.285 337.106 118.457 339.056C118.038 340.021 117.339 340.853 116.525 341.485C115.709 342.123 114.786 342.588 113.836 342.94C111.921 343.633 109.935 343.877 108.032 344.311C106.145 344.74 104.256 345.462 102.921 346.862C102.275 347.552 101.704 348.407 101.692 349.36C101.684 350.317 102.127 351.236 102.562 352.114L102.456 352.171C101.969 351.32 101.455 350.413 101.419 349.361C101.404 348.841 101.541 348.318 101.767 347.858C101.992 347.395 102.288 346.975 102.623 346.588C104.006 345.052 105.975 344.254 107.897 343.76C109.829 343.249 111.804 343.017 113.61 342.331C114.509 341.99 115.368 341.543 116.108 340.954C116.848 340.367 117.45 339.629 117.818 338.772C118.585 337.044 118.505 335.009 118.976 333.027C119.207 332.031 119.636 331.058 120.232 330.226C120.817 329.383 121.543 328.657 122.326 328.023C123.102 327.382 123.961 326.841 124.787 326.317C125.613 325.792 126.361 325.186 126.875 324.373C127.409 323.576 127.732 322.64 127.948 321.687C128.164 320.73 128.275 319.746 128.386 318.762L128.505 318.771Z" fill="white"/>
<path d="M135.108 348.531L129.299 335.674C126.821 336.31 121.605 343.243 121.605 343.243C121.605 343.243 126.638 364.094 121.669 369.65C117.259 374.581 106.204 410.679 103.775 418.728C103.657 419.118 103.719 419.542 103.945 419.882C104.171 420.222 104.536 420.443 104.942 420.485L117.032 421.732C117.699 421.801 118.317 421.374 118.49 420.725L135.725 356.032C136.39 353.535 136.172 350.885 135.108 348.531Z" fill="url(#paint24_linear_530_3342)"/>
<path d="M148.223 350.316C148.223 350.316 150.266 343.257 141.003 336.453C141.003 336.453 137.008 333.405 136.536 335.361L139.834 351.19L129.596 421.165C129.53 421.616 129.693 422.071 130.031 422.377C130.368 422.683 130.836 422.8 131.277 422.69L133.797 422.059C134.303 421.932 134.693 421.527 134.802 421.015C136.235 414.259 145.755 368.774 142.962 365.777C142.962 365.777 148.451 351.718 148.223 350.316Z" fill="#BDD0FB"/>
<path d="M121.605 343.243C121.605 343.243 115.55 367.716 128.467 372.368C141.384 377.019 157.933 365.086 157.933 365.086C157.933 365.086 160.759 363.671 162.373 364.075C163.988 364.48 163.786 358.412 160.759 356.794C157.731 355.176 154.3 362.053 154.3 362.053C154.3 362.053 125.917 376.224 128.504 351.845C128.504 351.845 132.302 343.647 121.605 343.243Z" fill="url(#paint25_linear_530_3342)"/>
<path d="M139.796 378.846L146.818 354.269C146.898 353.99 147.135 353.787 147.423 353.753C148.695 353.604 152.382 353.187 156.639 352.826C161.766 352.391 167.721 352.039 171.279 352.339C171.785 352.381 172.091 352.918 171.866 353.374C169.842 357.476 161.519 374.163 157.351 379.63C157.213 379.811 157 379.917 156.772 379.915L140.479 379.763C140.005 379.758 139.665 379.303 139.796 378.846Z" fill="url(#paint26_linear_530_3342)"/>
<path d="M157.368 350.695L162.459 349.845C162.73 349.8 162.952 350.059 162.866 350.321L162.362 351.852C162.318 351.985 162.202 352.081 162.064 352.1L157.164 352.756C156.911 352.79 156.702 352.559 156.76 352.309L157.072 350.973C157.106 350.829 157.222 350.72 157.368 350.695Z" fill="url(#paint27_linear_530_3342)"/>
<path d="M153.554 355.015L153.974 352.825C154.016 352.606 154.197 352.44 154.419 352.417L164.702 351.371C165.048 351.336 165.325 351.654 165.244 351.993L164.59 354.721C164.538 354.94 164.348 355.097 164.125 355.109L154.075 355.616C153.748 355.632 153.492 355.337 153.554 355.015Z" fill="url(#paint28_linear_530_3342)"/>
<path d="M141.492 372.908C141.492 372.908 140.514 368.877 140.908 367.447C141.303 366.017 142.067 364.178 144.616 364.586C147.164 364.995 150.17 366.071 150.17 366.071C150.17 366.071 150.018 367.934 148.082 367.333L149.283 368.264C149.283 368.264 149.111 369.756 147.475 368.959L148.592 370.194C148.592 370.194 147.889 371.419 146.686 370.633C145.482 369.847 144.905 373.394 141.492 372.908Z" fill="url(#paint29_linear_530_3342)"/>
<path d="M131.176 372.593C131.171 372.593 131.166 372.593 131.16 372.593C125.28 372.593 123.031 368.133 123.009 368.086C122.93 367.92 123.001 367.931 123.166 367.852C123.332 367.774 123.53 367.949 123.609 368.115C123.63 368.158 125.721 372.463 131.191 372.714C131.374 372.722 131.516 372.485 131.508 372.669C131.5 372.847 131.353 372.593 131.176 372.593Z" fill="#91B3FA"/>
<path d="M133.321 364.862C133.269 364.862 133.217 364.85 133.167 364.824C126.628 361.407 128.31 351.654 128.385 351.24C128.417 351.059 128.591 350.938 128.771 350.972C128.952 351.004 129.072 351.178 129.039 351.359C129.022 351.455 127.371 361.044 133.475 364.233C133.638 364.319 133.701 364.52 133.616 364.683C133.557 364.797 133.441 364.862 133.321 364.862Z" fill="#91B3FA"/>
<path d="M136.104 350.483C134.982 346.9 129.3 335.674 129.3 335.674L127.002 337.156L131.208 350.365C131.389 350.932 131.915 351.316 132.508 351.316C132.824 351.316 133.085 351.562 133.106 351.878L133.834 363.132C133.834 363.132 137.225 354.066 136.104 350.483Z" fill="#BDD0FB"/>
<path d="M142.437 347.156C142.617 346.721 142.638 346.237 142.495 345.789L138.998 334.779L136.852 333.061L136.615 334.779L138.558 345.066L137.871 363.816L141.505 353.747C141.682 353.255 141.66 352.713 141.441 352.238L141.22 351.757C140.989 351.253 140.978 350.674 141.19 350.162L142.437 347.156Z" fill="url(#paint30_linear_530_3342)"/>
<circle cx="58.4633" cy="96.4624" r="28.1384" transform="rotate(15 58.4633 96.4624)" fill="white" fill-opacity="0.1"/>
<circle cx="51.662" cy="90.6106" r="13.4705" transform="rotate(-75 51.662 90.6106)" fill="#5C73FE"/>
<defs>
<linearGradient id="paint0_linear_530_3342" x1="93.145" y1="567.891" x2="-63.0861" y2="335.094" gradientUnits="userSpaceOnUse">
<stop stop-color="#DAE3FE"/>
<stop offset="1" stop-color="#E9EFFD"/>
</linearGradient>
<linearGradient id="paint1_linear_530_3342" x1="244.93" y1="549.75" x2="-9.55758" y2="234.365" gradientUnits="userSpaceOnUse">
<stop stop-color="#DAE3FE"/>
<stop offset="1" stop-color="#E9EFFD"/>
</linearGradient>
<linearGradient id="paint2_linear_530_3342" x1="392.881" y1="477.627" x2="138.394" y2="162.243" gradientUnits="userSpaceOnUse">
<stop stop-color="#DAE3FE"/>
<stop offset="1" stop-color="#E9EFFD"/>
</linearGradient>
<linearGradient id="paint3_linear_530_3342" x1="219.356" y1="213.171" x2="-3.8459" y2="506.264" gradientUnits="userSpaceOnUse">
<stop stop-color="#09005D"/>
<stop offset="1" stop-color="#1A0F91"/>
</linearGradient>
<linearGradient id="paint4_linear_530_3342" x1="181.214" y1="210.963" x2="74.3888" y2="457.102" gradientUnits="userSpaceOnUse">
<stop stop-color="#FF928E"/>
<stop offset="1" stop-color="#FE7062"/>
</linearGradient>
<linearGradient id="paint5_linear_530_3342" x1="111.375" y1="231.369" x2="42.7478" y2="333.52" gradientUnits="userSpaceOnUse">
<stop stop-color="#FF928E"/>
<stop offset="1" stop-color="#FE7062"/>
</linearGradient>
<linearGradient id="paint6_linear_530_3342" x1="123.081" y1="239.235" x2="54.4536" y2="341.385" gradientUnits="userSpaceOnUse">
<stop stop-color="#FF928E"/>
<stop offset="1" stop-color="#FE7062"/>
</linearGradient>
<linearGradient id="paint7_linear_530_3342" x1="110.364" y1="273.578" x2="59.0842" y2="361.095" gradientUnits="userSpaceOnUse">
<stop stop-color="#FF928E"/>
<stop offset="1" stop-color="#FE7062"/>
</linearGradient>
<linearGradient id="paint8_linear_530_3342" x1="154.177" y1="160.033" x2="89.4104" y2="245.21" gradientUnits="userSpaceOnUse">
<stop stop-color="#09005D"/>
<stop offset="1" stop-color="#1A0F91"/>
</linearGradient>
<linearGradient id="paint9_linear_530_3342" x1="161.276" y1="165.431" x2="96.5101" y2="250.606" gradientUnits="userSpaceOnUse">
<stop stop-color="#09005D"/>
<stop offset="1" stop-color="#1A0F91"/>
</linearGradient>
<linearGradient id="paint10_linear_530_3342" x1="139.325" y1="133.215" x2="125.799" y2="253.646" gradientUnits="userSpaceOnUse">
<stop stop-color="#FF928E"/>
<stop offset="1" stop-color="#FE7062"/>
</linearGradient>
<linearGradient id="paint11_linear_530_3342" x1="98.4394" y1="387.014" x2="322.979" y2="387.014" gradientUnits="userSpaceOnUse">
<stop stop-color="#4F52FF"/>
<stop offset="1" stop-color="#4042E2"/>
</linearGradient>
<linearGradient id="paint12_linear_530_3342" x1="189.383" y1="341.74" x2="140.914" y2="378.74" gradientUnits="userSpaceOnUse">
<stop stop-color="#FEBBBA"/>
<stop offset="1" stop-color="#FF928E"/>
</linearGradient>
<linearGradient id="paint13_linear_530_3342" x1="142.903" y1="283.346" x2="125.163" y2="327.752" gradientUnits="userSpaceOnUse">
<stop stop-color="#09005D"/>
<stop offset="1" stop-color="#1A0F91"/>
</linearGradient>
<linearGradient id="paint14_linear_530_3342" x1="98.5767" y1="461.286" x2="90.0001" y2="461.286" gradientUnits="userSpaceOnUse">
<stop stop-color="#09005D"/>
<stop offset="1" stop-color="#1A0F91"/>
</linearGradient>
<linearGradient id="paint15_linear_530_3342" x1="134.818" y1="495.18" x2="122.423" y2="350.624" gradientUnits="userSpaceOnUse">
<stop stop-color="#FEBBBA"/>
<stop offset="1" stop-color="#FF928E"/>
</linearGradient>
<linearGradient id="paint16_linear_530_3342" x1="138.423" y1="459.717" x2="124.545" y2="459.717" gradientUnits="userSpaceOnUse">
<stop stop-color="#09005D"/>
<stop offset="1" stop-color="#1A0F91"/>
</linearGradient>
<linearGradient id="paint17_linear_530_3342" x1="109.989" y1="497.331" x2="97.5905" y2="352.737" gradientUnits="userSpaceOnUse">
<stop stop-color="#FEBBBA"/>
<stop offset="1" stop-color="#FF928E"/>
</linearGradient>
<linearGradient id="paint18_linear_530_3342" x1="189.1" y1="313.99" x2="167.89" y2="329.404" gradientUnits="userSpaceOnUse">
<stop stop-color="#FF928E"/>
<stop offset="1" stop-color="#FE7062"/>
</linearGradient>
<linearGradient id="paint19_linear_530_3342" x1="146.646" y1="362.725" x2="111.022" y2="422.174" gradientUnits="userSpaceOnUse">
<stop stop-color="#09005D"/>
<stop offset="1" stop-color="#1A0F91"/>
</linearGradient>
<linearGradient id="paint20_linear_530_3342" x1="136.171" y1="352.686" x2="133.843" y2="335.69" gradientUnits="userSpaceOnUse">
<stop stop-color="#FEBBBA"/>
<stop offset="1" stop-color="#FF928E"/>
</linearGradient>
<linearGradient id="paint21_linear_530_3342" x1="137.02" y1="333.742" x2="134.663" y2="292.426" gradientUnits="userSpaceOnUse">
<stop stop-color="#FEBBBA"/>
<stop offset="1" stop-color="#FF928E"/>
</linearGradient>
<linearGradient id="paint22_linear_530_3342" x1="146.891" y1="303.605" x2="126.615" y2="321.946" gradientUnits="userSpaceOnUse">
<stop stop-color="#09005D"/>
<stop offset="1" stop-color="#1A0F91"/>
</linearGradient>
<linearGradient id="paint23_linear_530_3342" x1="132.087" y1="334.023" x2="129.73" y2="292.707" gradientUnits="userSpaceOnUse">
<stop stop-color="#FEBBBA"/>
<stop offset="1" stop-color="#FF928E"/>
</linearGradient>
<linearGradient id="paint24_linear_530_3342" x1="103.717" y1="378.707" x2="136.102" y2="378.707" gradientUnits="userSpaceOnUse">
<stop stop-color="#DAE3FE"/>
<stop offset="1" stop-color="#E9EFFD"/>
</linearGradient>
<linearGradient id="paint25_linear_530_3342" x1="120.188" y1="358.343" x2="163.374" y2="358.343" gradientUnits="userSpaceOnUse">
<stop stop-color="#DAE3FE"/>
<stop offset="1" stop-color="#E9EFFD"/>
</linearGradient>
<linearGradient id="paint26_linear_530_3342" x1="152.13" y1="350.5" x2="168.71" y2="419.435" gradientUnits="userSpaceOnUse">
<stop stop-color="#09005D"/>
<stop offset="1" stop-color="#1A0F91"/>
</linearGradient>
<linearGradient id="paint27_linear_530_3342" x1="162.469" y1="339.632" x2="158.938" y2="355.105" gradientUnits="userSpaceOnUse">
<stop stop-color="#FF928E"/>
<stop offset="1" stop-color="#FE7062"/>
</linearGradient>
<linearGradient id="paint28_linear_530_3342" x1="160.627" y1="346.123" x2="158.938" y2="356.235" gradientUnits="userSpaceOnUse">
<stop stop-color="#FF928E"/>
<stop offset="1" stop-color="#FE7062"/>
</linearGradient>
<linearGradient id="paint29_linear_530_3342" x1="140.814" y1="368.741" x2="150.17" y2="368.741" gradientUnits="userSpaceOnUse">
<stop stop-color="#FEBBBA"/>
<stop offset="1" stop-color="#FF928E"/>
</linearGradient>
<linearGradient id="paint30_linear_530_3342" x1="136.615" y1="348.438" x2="142.589" y2="348.438" gradientUnits="userSpaceOnUse">
<stop stop-color="#DAE3FE"/>
<stop offset="1" stop-color="#E9EFFD"/>
</linearGradient>
</defs>
</svg>
