<svg width="360" height="529" viewBox="0 0 360 529" fill="none" xmlns="http://www.w3.org/2000/svg">
<path d="M535.806 422.047C529.934 428.146 524.378 432.08 519.989 435.187C468.391 471.716 407.336 461.068 394.36 458.468C375.199 454.628 338.161 447.206 311.383 416.135C270.87 369.128 277.178 295.07 308.603 246.183C314.351 237.241 344.714 187.609 406.426 179.65C443.773 174.833 487.309 184.548 518.836 210.609C585.014 265.314 580.302 375.827 535.806 422.047Z" fill="url(#paint0_linear_523_4141)" fill-opacity="0.6"/>
<path d="M78.0309 347.988C72.1771 354.082 66.6383 358.012 62.2622 361.116C10.822 397.613 -50.0454 386.974 -62.9814 384.376C-82.0839 380.54 -119.009 373.124 -145.704 342.081C-186.093 295.116 -179.804 221.124 -148.476 172.28C-142.745 163.346 -112.476 113.758 -50.9528 105.806C-13.7197 100.994 29.682 110.7 61.1125 136.738C127.088 191.394 122.391 301.809 78.0309 347.988Z" fill="url(#paint1_linear_523_4141)" fill-opacity="0.6"/>
<path d="M450.374 462.932C407.392 517.108 327.554 532.573 268.812 506.973C259.253 502.807 233.144 491.029 214.653 463.408C179.056 410.235 190.8 326.896 243.649 280.063C282.114 245.976 337.422 235.597 383.665 249.198C393.626 252.128 431.641 263.945 458.066 300.294C461.947 305.633 470.324 318.094 476.115 335.861C489.713 377.581 478.386 427.625 450.374 462.932Z" fill="url(#paint2_linear_523_4141)" fill-opacity="0.2"/>
<path d="M245.376 418.103C202.394 472.279 122.556 487.744 63.8135 462.144C54.255 457.978 28.146 446.2 9.65467 418.579C-25.9423 365.406 -14.1978 282.067 38.6511 235.234C77.1158 201.148 132.424 190.768 178.667 204.37C188.628 207.299 226.643 219.116 253.068 255.465C256.949 260.804 265.326 273.265 271.117 291.032C284.715 332.752 273.388 382.797 245.376 418.103Z" fill="url(#paint3_linear_523_4141)" fill-opacity="0.2"/>
<path d="M37.0547 292.648C37.0547 283.102 44.8081 275.365 54.3725 275.365H201.643C209.768 275.365 216.468 281.719 216.881 289.817L227.751 502.908C228.075 509.245 223.076 514.591 216.719 514.706L47.9284 517.768C41.9553 517.876 37.0547 513.073 37.0547 507.111V292.648Z" fill="url(#paint4_linear_523_4141)"/>
<path d="M72.597 514.145C72.5953 514.145 72.5935 514.145 72.5917 514.145L53.705 513.901C47.3897 513.819 42.252 508.625 42.252 502.322V473.863C42.252 473.641 42.4325 473.461 42.6551 473.461C42.8778 473.461 43.0583 473.641 43.0583 473.863V502.322C43.0583 508.187 47.839 513.02 53.7155 513.096L72.602 513.34C72.8246 513.343 73.0028 513.526 73.0001 513.748C72.997 513.968 72.8171 514.145 72.597 514.145Z" fill="#91B3FA"/>
<path d="M42.6551 465.45C42.4325 465.45 42.252 465.27 42.252 465.048V460.439C42.252 460.217 42.4325 460.037 42.6551 460.037C42.8778 460.037 43.0583 460.217 43.0583 460.439V465.048C43.0583 465.27 42.8778 465.45 42.6551 465.45Z" fill="#91B3FA"/>
<path d="M49.1192 278.644C49.1012 275.59 51.7923 273.227 54.8247 273.637C74.9358 276.359 144.093 284.777 201.271 280.396C203.879 280.197 206.142 282.168 206.28 284.775L217.679 498.816C217.835 501.75 215.59 504.26 212.65 504.434C188.602 505.854 89.5642 511.344 54.2389 507.652C52.0889 507.427 50.457 505.621 50.4442 503.463L49.1192 278.644Z" fill="#7D97F4"/>
<path d="M51.4884 284.008C51.4711 281.069 54.0608 278.794 56.9789 279.189C76.3328 281.809 142.886 289.91 197.911 285.694C200.42 285.502 202.598 287.399 202.731 289.908L213.701 495.889C213.851 498.713 211.69 501.128 208.861 501.295C185.719 502.662 90.4104 507.946 56.4154 504.392C54.3464 504.176 52.7759 502.437 52.7636 500.361L51.4884 284.008Z" fill="#91B3FA"/>
<path opacity="0.78" d="M64.14 299.889L66.1955 344.049C66.2639 345.518 67.4528 346.685 68.9255 346.727C77.1203 346.958 102.656 347.579 117.074 346.829C118.705 346.744 119.995 345.427 120.049 343.798C120.324 335.517 120.926 311.412 119.035 301.336C118.729 299.708 117.327 298.515 115.669 298.457L67.2322 296.767C65.4855 296.706 64.0589 298.146 64.14 299.889Z" fill="white"/>
<path d="M92.012 325.17C97.2653 325.17 101.524 320.92 101.524 315.677C101.524 310.434 97.2653 306.184 92.012 306.184C86.7587 306.184 82.5 310.434 82.5 315.677C82.5 320.92 86.7587 325.17 92.012 325.17Z" fill="url(#paint5_linear_523_4141)"/>
<path d="M77.5629 343.548H107.867C109.725 343.548 110.838 341.501 109.837 339.939C107.263 335.919 101.878 330.013 92.5509 330.28C83.5615 330.537 78.2335 335.871 75.5551 339.697C74.4181 341.321 75.5777 343.548 77.5629 343.548Z" fill="url(#paint6_linear_523_4141)"/>
<g opacity="0.6">
<path d="M191.498 303.733C191.753 303.733 191.956 303.525 191.948 303.27L191.883 301.234C191.875 300.979 191.66 300.767 191.404 300.762L131.279 299.772C131.023 299.768 130.889 299.959 130.979 300.198L132.161 303.3C132.252 303.538 132.535 303.733 132.791 303.733H191.498Z" fill="white"/>
</g>
<g opacity="0.6">
<path d="M131.279 308.004C131.023 308 130.889 308.191 130.979 308.43L132.161 311.532C132.252 311.77 132.535 311.965 132.791 311.965H191.498C191.753 311.965 191.956 311.757 191.948 311.502L191.883 309.466C191.875 309.211 191.66 308.999 191.404 308.995L131.279 308.004Z" fill="white"/>
</g>
<g opacity="0.6">
<path d="M131.279 316.356C131.023 316.352 130.889 316.544 130.979 316.782L132.161 319.884C132.252 320.123 132.535 320.318 132.791 320.318H191.498C191.753 320.318 191.956 320.109 191.948 319.854L191.883 317.818C191.875 317.563 191.66 317.351 191.404 317.347L131.279 316.356Z" fill="white"/>
</g>
<g opacity="0.6">
<path d="M191.741 360.596C191.997 360.596 192.192 360.388 192.175 360.133L192.041 358.096C192.024 357.841 191.801 357.631 191.545 357.629L64.5895 356.631C64.3339 356.629 64.2552 356.79 64.4143 356.99L67.002 360.233C67.1612 360.433 67.5005 360.596 67.7561 360.596H191.741Z" fill="white"/>
</g>
<g opacity="0.6">
<path d="M64.5895 364.863C64.3339 364.861 64.2552 365.023 64.4143 365.222L67.002 368.466C67.1612 368.665 67.5005 368.829 67.7561 368.829H191.741C191.997 368.829 192.192 368.62 192.175 368.366L192.041 366.328C192.024 366.074 191.801 365.864 191.545 365.862L64.5895 364.863Z" fill="white"/>
</g>
<path d="M64.2362 378.619C67.2281 378.39 72.8308 378.284 75.9149 378.241C77.2217 378.223 78.3679 379.106 78.6743 380.374C79.2695 382.837 80.0906 387.113 79.9873 391.644C79.9563 393.001 78.8427 394.084 77.4827 394.069L66.1016 393.947C64.702 393.932 63.5401 392.864 63.4099 391.473L62.4092 380.788C62.3057 379.682 63.1272 378.703 64.2362 378.619Z" fill="#BDD0FB"/>
<g opacity="0.6">
<path d="M84.0214 382.954C83.766 382.943 83.5882 383.141 83.6262 383.393L84.2763 387.713C84.3143 387.966 84.5545 388.172 84.8099 388.172H114.973C115.228 388.172 115.435 387.963 115.432 387.708L115.395 384.726C115.391 384.471 115.18 384.253 114.925 384.243L84.0214 382.954Z" fill="white"/>
</g>
<path opacity="0.6" d="M126.238 378.619C129.23 378.39 134.833 378.284 137.917 378.241C139.224 378.223 140.37 379.106 140.676 380.374C141.271 382.837 142.093 387.113 141.989 391.644C141.958 393.001 140.844 394.084 139.485 394.069L128.103 393.947C126.704 393.932 125.542 392.864 125.412 391.473L124.411 380.788C124.308 379.682 125.129 378.703 126.238 378.619Z" fill="white"/>
<g opacity="0.6">
<path d="M146.025 382.954C145.77 382.943 145.592 383.141 145.63 383.393L146.28 387.713C146.318 387.966 146.558 388.172 146.814 388.172H176.977C177.233 388.172 177.439 387.963 177.436 387.708L177.399 384.726C177.395 384.471 177.184 384.253 176.929 384.243L146.025 382.954Z" fill="white"/>
</g>
<path d="M77.1344 421.014C77.125 421.014 77.1153 421.014 77.1056 421.014L66.6036 420.913C65.1031 420.899 63.8646 419.868 63.7225 418.517L62.7994 409.723C62.7452 409.206 62.9059 408.696 63.2516 408.286C63.6386 407.826 64.2243 407.538 64.8585 407.494C65.7433 407.434 66.9894 407.328 68.3085 407.216C71.0861 406.98 74.5432 406.686 76.4881 406.662C77.8993 406.655 79.0963 407.488 79.429 408.715C79.9761 410.734 79.928 414.555 79.8239 418.626C79.79 419.948 78.5863 421.014 77.1344 421.014ZM64.9135 408.297C64.4965 408.326 64.1157 408.51 63.8689 408.803C63.6651 409.045 63.5702 409.342 63.6013 409.639L64.5244 418.433C64.6236 419.377 65.5208 420.098 66.6114 420.108L77.1133 420.209C77.1202 420.209 77.1273 420.209 77.1344 420.209C78.1521 420.209 78.9948 419.493 79.0176 418.605C79.1199 414.596 79.1689 410.839 78.6502 408.924C78.4177 408.067 77.5233 407.47 76.4981 407.466C74.582 407.49 71.1414 407.783 68.3768 408.018C67.0543 408.13 65.8048 408.236 64.9135 408.297Z" fill="white"/>
<path opacity="0.6" d="M66.0432 409.205C68.2495 409.054 73.0445 408.569 75.3188 408.54C76.2824 408.528 77.1276 409.109 77.3535 409.943C77.7924 411.563 77.7343 414.791 77.6581 417.771C77.6353 418.663 76.814 419.376 75.8112 419.366L67.4187 419.286C66.3866 419.276 65.5297 418.574 65.4338 417.659L64.6959 410.631C64.6197 409.904 65.2254 409.261 66.0432 409.205Z" fill="white"/>
<g opacity="0.6">
<path d="M86.3591 415.174C86.6632 416.325 87.7106 417.123 88.9028 417.113L186.072 416.286C187.172 416.277 188.051 415.372 188.027 414.275C188.004 413.209 187.133 412.355 186.065 412.351L88.8925 411.908C87.1772 411.9 85.9216 413.519 86.3591 415.174Z" fill="white"/>
</g>
<path d="M66.4899 410.584C67.2696 410.127 68.273 410.4 68.7134 411.188L70.7849 414.894C70.9923 415.265 71.5347 415.241 71.7091 414.854L76.847 403.438C77.1032 402.869 77.9529 403.061 77.9436 403.685C77.8912 407.177 76.9629 413.814 71.3725 419.37C71.3725 419.37 68.2918 418.175 65.8108 412.738C65.4523 411.953 65.7442 411.021 66.4899 410.584Z" fill="url(#paint7_linear_523_4141)"/>
<path d="M77.1344 443.478C77.125 443.478 77.1153 443.478 77.1056 443.478L66.6036 443.377C65.1031 443.362 63.8646 442.332 63.7225 440.981L62.7994 432.186C62.7452 431.67 62.9059 431.16 63.2516 430.749C63.6386 430.29 64.2243 430.002 64.8585 429.958C65.7433 429.898 66.9894 429.792 68.3085 429.68C71.0861 429.444 74.5432 429.15 76.4881 429.126C76.5023 429.126 76.5164 429.125 76.5304 429.125C77.9115 429.125 79.0997 429.965 79.429 431.179C79.9761 433.197 79.928 437.019 79.8239 441.09C79.79 442.412 78.5863 443.478 77.1344 443.478ZM64.9135 430.761C64.4965 430.789 64.1157 430.974 63.8689 431.267C63.6651 431.509 63.5702 431.806 63.6013 432.102L64.5244 440.896C64.6236 441.841 65.5208 442.561 66.6114 442.572L77.1133 442.673C77.1202 442.673 77.1273 442.673 77.1344 442.673C78.1521 442.673 78.9948 441.957 79.0176 441.069C79.1199 437.06 79.1689 433.303 78.6502 431.388C78.4175 430.531 77.5105 429.914 76.4979 429.931C74.582 429.954 71.1414 430.247 68.3768 430.482C67.0543 430.594 65.8048 430.7 64.9135 430.761Z" fill="white"/>
<path opacity="0.6" d="M66.0432 431.669C68.2495 431.518 73.0445 431.033 75.3188 431.004C76.2824 430.992 77.1276 431.573 77.3535 432.407C77.7924 434.027 77.7343 437.255 77.6581 440.235C77.6353 441.128 76.814 441.84 75.8112 441.83L67.4187 441.75C66.3866 441.74 65.5297 441.038 65.4338 440.123L64.6959 433.095C64.6197 432.369 65.2254 431.725 66.0432 431.669Z" fill="white"/>
<g opacity="0.6">
<path d="M86.3591 437.638C86.6632 438.789 87.7106 439.587 88.9028 439.577L186.072 438.75C187.172 438.741 188.051 437.836 188.027 436.739C188.004 435.673 187.133 434.82 186.065 434.815L88.8925 434.372C87.1772 434.364 85.9216 435.983 86.3591 437.638Z" fill="white"/>
</g>
<path d="M66.4899 433.048C67.2696 432.591 68.273 432.864 68.7134 433.652L70.7849 437.357C70.9923 437.728 71.5347 437.705 71.7091 437.317L76.847 425.902C77.1032 425.332 77.9529 425.525 77.9436 426.149C77.8912 429.641 76.9629 436.278 71.3725 441.834C71.3725 441.834 68.2918 440.639 65.8108 435.202C65.4523 434.417 65.7442 433.485 66.4899 433.048Z" fill="url(#paint8_linear_523_4141)"/>
<path d="M77.1344 465.942C77.125 465.942 77.1153 465.942 77.1056 465.942L66.6036 465.841C65.1031 465.827 63.8646 464.797 63.7225 463.445L62.7994 454.651C62.7452 454.135 62.9059 453.624 63.2518 453.213C63.6388 452.754 64.2244 452.466 64.8585 452.422C65.7433 452.362 66.9894 452.256 68.3085 452.144C71.0861 451.908 74.5432 451.614 76.4881 451.59C76.5023 451.59 76.5164 451.589 76.5304 451.589C77.9115 451.589 79.0997 452.429 79.429 453.643C79.9761 455.661 79.928 459.483 79.8239 463.554C79.79 464.876 78.5863 465.942 77.1344 465.942ZM64.9135 453.225C64.4965 453.253 64.1157 453.438 63.8689 453.731C63.6651 453.973 63.5702 454.27 63.6013 454.567L64.5244 463.361C64.6236 464.306 65.5208 465.026 66.6111 465.036L77.1133 465.137C77.1202 465.137 77.1273 465.137 77.1344 465.137C78.1521 465.137 78.9948 464.421 79.0176 463.533C79.1199 459.524 79.1689 455.767 78.6502 453.852C78.4175 452.995 77.5105 452.375 76.4979 452.394C74.582 452.418 71.1414 452.711 68.3768 452.946C67.0543 453.058 65.8048 453.164 64.9135 453.225Z" fill="white"/>
<path opacity="0.6" d="M66.0432 454.133C68.2495 453.982 73.0445 453.496 75.3188 453.468C76.2824 453.456 77.1276 454.037 77.3535 454.871C77.7924 456.491 77.7343 459.719 77.6581 462.699C77.6353 463.591 76.814 464.304 75.8112 464.294L67.4187 464.214C66.3866 464.204 65.5297 463.502 65.4338 462.587L64.6959 455.559C64.6197 454.832 65.2254 454.189 66.0432 454.133Z" fill="white"/>
<g opacity="0.6">
<path d="M86.3591 460.102C86.6632 461.253 87.7106 462.051 88.9028 462.041L186.072 461.214C187.172 461.205 188.051 460.3 188.027 459.203C188.004 458.137 187.133 457.283 186.065 457.279L88.8925 456.836C87.1772 456.828 85.9216 458.447 86.3591 460.102Z" fill="white"/>
</g>
<path d="M77.1344 488.405C77.125 488.405 77.1153 488.405 77.1056 488.405L66.6036 488.305C65.1031 488.291 63.8646 487.261 63.7225 485.909L62.7994 477.115C62.7452 476.598 62.9059 476.088 63.2518 475.677C63.6388 475.218 64.2244 474.929 64.8585 474.886C65.7433 474.826 66.9894 474.719 68.3085 474.607C71.0861 474.371 74.5432 474.078 76.4881 474.053C76.5023 474.053 76.5164 474.053 76.5304 474.053C77.9115 474.053 79.0997 474.892 79.429 476.106C79.9761 478.125 79.928 481.946 79.8239 486.017C79.79 487.34 78.5863 488.405 77.1344 488.405ZM64.9135 475.689C64.4965 475.717 64.1157 475.902 63.8689 476.195C63.6651 476.437 63.5702 476.733 63.6013 477.031L64.5244 485.825C64.6236 486.769 65.5208 487.49 66.6111 487.5L77.1133 487.601C77.1202 487.601 77.1273 487.601 77.1344 487.601C78.1521 487.601 78.9948 486.885 79.0176 485.997C79.1199 481.988 79.1689 478.231 78.6502 476.316C78.4175 475.459 77.5105 474.836 76.4979 474.858C74.582 474.882 71.1414 475.175 68.3768 475.41C67.0543 475.522 65.8048 475.628 64.9135 475.689Z" fill="white"/>
<path opacity="0.6" d="M66.0432 476.596C68.2495 476.446 73.0445 475.96 75.3188 475.932C76.2824 475.92 77.1276 476.501 77.3535 477.335C77.7924 478.954 77.7343 482.183 77.6581 485.163C77.6353 486.055 76.814 486.767 75.8112 486.758L67.4187 486.677C66.3866 486.668 65.5297 485.965 65.4338 485.051L64.6959 478.023C64.6197 477.296 65.2254 476.652 66.0432 476.596Z" fill="white"/>
<g opacity="0.6">
<path d="M86.3591 482.566C86.6632 483.717 87.7106 484.515 88.9028 484.505L186.072 483.678C187.172 483.669 188.051 482.764 188.027 481.667C188.004 480.601 187.133 479.747 186.065 479.742L88.8925 479.3C87.1772 479.292 85.9216 480.911 86.3591 482.566Z" fill="white"/>
</g>
<path d="M66.4899 477.976C67.2696 477.519 68.273 477.791 68.7134 478.579L70.7849 482.285C70.9923 482.656 71.5347 482.633 71.7091 482.245L76.847 470.83C77.1032 470.26 77.9529 470.453 77.9436 471.077C77.8912 474.569 76.9629 481.206 71.3725 486.762C71.3725 486.762 68.2918 485.567 65.8108 480.13C65.4523 479.344 65.7442 478.412 66.4899 477.976Z" fill="url(#paint9_linear_523_4141)"/>
<path d="M66.4899 454.921C67.2696 454.465 68.273 454.737 68.7134 455.525L70.7849 459.231C70.9923 459.602 71.5347 459.579 71.7091 459.191L76.847 447.775C77.1032 447.206 77.9529 447.399 77.9436 448.023C77.8912 451.514 76.9629 458.152 71.3725 463.708C71.3725 463.708 68.2918 462.512 65.8108 457.075C65.4523 456.29 65.7442 455.358 66.4899 454.921Z" fill="url(#paint10_linear_523_4141)"/>
<path d="M137.14 246.311C131.821 242.617 127.195 242.69 123.939 243.649C120.969 244.524 119.044 247.386 119.326 250.464L120.731 265.76L137.44 267.24C137.44 267.24 147.573 253.554 137.14 246.311ZM129.792 258.651C127.491 258.651 125.626 256.79 125.626 254.493C125.626 252.196 127.491 250.335 129.792 250.335C132.093 250.335 133.959 252.196 133.959 254.493C133.959 256.79 132.093 258.651 129.792 258.651Z" fill="url(#paint11_linear_523_4141)"/>
<path d="M122.401 259.326C122.194 259.326 122.019 259.169 121.999 258.96L121.776 256.524C121.755 256.303 121.919 256.107 122.14 256.087C122.367 256.065 122.559 256.229 122.579 256.451L122.802 258.887C122.823 259.108 122.66 259.304 122.438 259.324C122.425 259.326 122.413 259.326 122.401 259.326ZM121.962 254.552C121.756 254.552 121.58 254.395 121.561 254.186L121.391 252.337C121.122 249.405 122.971 246.675 125.787 245.845C127.781 245.258 129.836 245.174 131.894 245.595C132.112 245.639 132.252 245.852 132.208 246.07C132.163 246.287 131.951 246.426 131.732 246.383C129.804 245.989 127.881 246.068 126.015 246.617C123.567 247.338 121.96 249.713 122.194 252.264L122.364 254.113C122.385 254.334 122.221 254.53 121.999 254.551C121.987 254.552 121.974 254.552 121.962 254.552Z" fill="#91B3FA"/>
<path d="M97.9258 275.646V267.955C97.9258 265.3 100.131 263.174 102.789 263.265L155.918 265.082C158.276 265.162 160.186 267.02 160.327 269.37L160.771 276.76L97.9258 275.646Z" fill="url(#paint12_linear_523_4141)"/>
<path d="M117.737 266.163H115.452C115.229 266.163 115.049 265.983 115.049 265.761C115.049 265.538 115.229 265.358 115.452 265.358H117.737C117.959 265.358 118.14 265.538 118.14 265.761C118.14 265.983 117.959 266.163 117.737 266.163Z" fill="#91B3FA"/>
<path d="M100.802 273.231C100.579 273.231 100.398 273.051 100.398 272.828V269.717C100.398 267.313 102.358 265.358 104.767 265.358H113.167C113.389 265.358 113.57 265.538 113.57 265.76C113.57 265.983 113.389 266.163 113.167 266.163H104.767C102.803 266.163 101.205 267.757 101.205 269.717V272.828C101.205 273.051 101.024 273.231 100.802 273.231Z" fill="#91B3FA"/>
<path d="M77.477 277.39C77.6052 274.727 79.8061 272.634 82.4777 272.634L175.384 272.631C178.725 272.631 181.581 275.03 182.151 278.315L182.229 278.769C182.853 282.367 180.078 285.658 176.419 285.658H81.1018C78.912 285.658 77.1669 283.831 77.2721 281.648L77.477 277.39Z" fill="url(#paint13_linear_523_4141)"/>
<path d="M275.219 276.372C275.16 275.167 273.519 274.842 273.008 275.934C268.066 286.494 254.239 313.778 237.755 326.752C210.915 347.875 189.116 385.761 200.222 409.069C200.222 409.069 281.647 407.563 275.219 276.372Z" fill="#BDD0FB"/>
<path opacity="0.43" d="M270.42 291.81C270.332 292.167 270.231 292.455 270.136 292.769L269.835 293.69L269.215 295.522C268.793 296.74 268.353 297.952 267.913 299.163C267.023 301.583 266.104 303.992 265.162 306.392C263.27 311.188 261.248 315.933 259.154 320.647C257.067 325.363 254.849 330.022 252.532 334.632C250.211 339.239 247.824 343.816 245.287 348.312C240.232 357.311 234.682 366.045 228.536 374.353C225.42 378.473 222.194 382.515 218.74 386.361C215.26 390.181 211.615 393.855 207.718 397.247C207.634 397.321 207.505 397.312 207.431 397.228C207.359 397.145 207.366 397.021 207.444 396.946L207.447 396.945C211.195 393.417 214.746 389.694 218.107 385.806C221.479 381.926 224.623 377.854 227.655 373.707C230.686 369.556 233.548 365.285 236.313 360.952C239.076 356.617 241.658 352.17 244.214 347.71C249.29 338.765 253.885 329.554 258.222 320.225C260.381 315.556 262.446 310.843 264.426 306.094C265.421 303.721 266.393 301.339 267.335 298.945L268.721 295.344L269.395 293.537L269.721 292.631C269.823 292.332 269.938 292.013 270.017 291.748L270.03 291.705C270.062 291.598 270.174 291.537 270.281 291.569C270.385 291.599 270.445 291.706 270.42 291.81Z" fill="white"/>
<path d="M240.928 244.899C240.545 243.811 238.951 243.959 238.781 245.1C237.135 256.129 231.913 284.915 220.342 301.3C201.503 327.979 191.868 368.657 208.424 387.008C208.424 387.008 282.684 363.458 240.928 244.899Z" fill="#91B3FA"/>
<path opacity="0.43" d="M240.749 260.363C240.766 260.715 240.752 261.006 240.751 261.32L240.728 262.246L240.66 264.096C240.607 265.328 240.534 266.559 240.462 267.79C240.308 270.251 240.124 272.71 239.917 275.168C239.494 280.082 238.937 284.984 238.306 289.877C237.682 294.77 236.921 299.647 236.057 304.505C235.188 309.363 234.25 314.21 233.153 319.023C230.977 328.653 228.274 338.174 224.908 347.466C223.176 352.093 221.321 356.677 219.205 361.145C217.056 365.595 214.717 369.956 212.069 374.128C212.011 374.22 211.888 374.247 211.795 374.189C211.705 374.132 211.677 374.014 211.73 373.923L211.731 373.92C214.202 369.664 216.441 365.283 218.459 360.802C220.49 356.325 222.259 351.736 223.905 347.107C225.549 342.476 227.007 337.779 228.357 333.053C229.706 328.326 230.858 323.545 231.983 318.759C234.194 309.175 235.889 299.476 237.318 289.741C238.023 284.872 238.628 279.987 239.147 275.094C239.411 272.647 239.652 270.198 239.862 267.746L240.149 264.066L240.274 262.226L240.326 261.306C240.338 261.005 240.356 260.68 240.356 260.417V260.372C240.356 260.264 240.444 260.176 240.553 260.176C240.658 260.176 240.744 260.259 240.749 260.363Z" fill="white"/>
<path d="M184.782 442.651H111.877L118.345 514.158C118.516 516.045 120.1 517.49 121.998 517.49H184.782V442.651H184.782Z" fill="url(#paint14_linear_523_4141)"/>
<path d="M159.785 517.49H130.623L127.299 480.996C127.126 479.104 128.619 477.472 130.524 477.472H158.457C160.311 477.472 161.787 479.023 161.691 480.871L159.785 517.49Z" fill="url(#paint15_linear_523_4141)"/>
<path d="M180.095 446.289H111.126C109.229 446.289 107.922 444.389 108.603 442.622L109.127 441.262C109.528 440.22 110.531 439.532 111.65 439.532H180.095V446.289Z" fill="url(#paint16_linear_523_4141)"/>
<path d="M143.641 453.045H135.83V464.999H143.641V453.045Z" fill="url(#paint17_linear_523_4141)"/>
<path d="M158.223 453.045H150.412V464.999H158.223V453.045Z" fill="url(#paint18_linear_523_4141)"/>
<path opacity="0.76" d="M129.061 453.045H121.25V464.999H129.061V453.045Z" fill="white"/>
<path d="M160.307 363.654L169.016 517.49H313.928L320.177 363.654H160.307Z" fill="url(#paint19_linear_523_4141)"/>
<path d="M320.727 366.772H159.543C158.759 366.772 158.066 366.262 157.835 365.514L156.852 362.323C156.498 361.177 157.357 360.016 158.559 360.016H321.219C322.314 360.016 323.151 360.99 322.985 362.07L322.493 365.26C322.359 366.13 321.609 366.772 320.727 366.772Z" fill="url(#paint20_linear_523_4141)"/>
<path d="M318.785 397.955L319.671 376.127H161.014L162.249 397.955H318.785Z" fill="url(#paint21_linear_523_4141)"/>
<path d="M182.177 376.127H178.531V397.955H182.177V376.127Z" fill="url(#paint22_linear_523_4141)"/>
<path d="M207.175 376.127H203.529V397.955H207.175V376.127Z" fill="url(#paint23_linear_523_4141)"/>
<path d="M232.171 376.127H228.525V397.955H232.171V376.127Z" fill="url(#paint24_linear_523_4141)"/>
<path d="M257.165 376.127H253.52V397.955H257.165V376.127Z" fill="url(#paint25_linear_523_4141)"/>
<path d="M282.161 376.127H278.516V397.955H282.161V376.127Z" fill="url(#paint26_linear_523_4141)"/>
<path d="M307.159 376.127H303.514V397.955H307.159V376.127Z" fill="url(#paint27_linear_523_4141)"/>
<path d="M217.617 406.79H180.096V422.901H217.617V406.79Z" fill="url(#paint28_linear_523_4141)"/>
<path d="M216.228 408.35H181.486V421.862H216.228V408.35Z" fill="url(#paint29_linear_523_4141)"/>
<path d="M258.611 406.791H221.09V422.902H258.611V406.791Z" fill="url(#paint30_linear_523_4141)"/>
<path d="M257.222 408.35H222.48V421.862H257.222V408.35Z" fill="url(#paint31_linear_523_4141)"/>
<path d="M299.605 406.79H262.084V422.901H299.605V406.79Z" fill="url(#paint32_linear_523_4141)"/>
<path d="M298.216 408.35H263.475V421.862H298.216V408.35Z" fill="url(#paint33_linear_523_4141)"/>
<path d="M258.726 460.321H187.904V521.128H258.726V460.321Z" fill="url(#paint34_linear_523_4141)"/>
<path d="M195.196 521.128H183.287C182.675 521.128 182.178 520.632 182.178 520.02V458.242H195.196V521.128Z" fill="url(#paint35_linear_523_4141)"/>
<path d="M246.23 521.128H200.404V480.75C200.404 479.801 201.175 479.031 202.127 479.031H243.941C245.205 479.031 246.23 480.054 246.23 481.316V521.128Z" fill="url(#paint36_linear_523_4141)"/>
<path d="M176.666 433.32L178.533 464.999H251.438V521.128H298.928C301.49 521.128 303.595 519.11 303.699 516.555L307.016 434.731C307.094 432.806 305.565 431.198 303.635 431.175L180.126 429.702C178.139 429.678 176.55 431.341 176.666 433.32Z" fill="url(#paint37_linear_523_4141)"/>
<path d="M177.919 454.604H258.728V442.651H177.215L177.919 454.604Z" fill="url(#paint38_linear_523_4141)"/>
<path d="M193.115 442.651H189.99V454.604H193.115V442.651Z" fill="url(#paint39_linear_523_4141)"/>
<path d="M207.173 442.651H204.049V454.604H207.173V442.651Z" fill="url(#paint40_linear_523_4141)"/>
<path d="M221.234 442.651H218.109V454.604H221.234V442.651Z" fill="url(#paint41_linear_523_4141)"/>
<path d="M235.294 442.651H232.17V454.604H235.294V442.651Z" fill="url(#paint42_linear_523_4141)"/>
<path d="M249.355 442.651H246.23V454.604H249.355V442.651Z" fill="url(#paint43_linear_523_4141)"/>
<path d="M295.888 491.696C303.615 483.984 303.615 471.479 295.888 463.767C288.16 456.055 275.63 456.055 267.903 463.767C260.175 471.479 260.175 483.984 267.903 491.696C275.63 499.409 288.16 499.409 295.888 491.696Z" fill="#91B3FA"/>
<path d="M293.227 472.275H286.652V466.622C286.652 465.295 285.574 464.219 284.244 464.219H279.426C278.096 464.219 277.018 465.295 277.018 466.622V472.275H270.443C269.113 472.275 268.035 473.351 268.035 474.678V480.266C268.035 481.593 269.113 482.669 270.443 482.669H277.018V488.322C277.018 489.649 278.096 490.725 279.426 490.725H284.244C285.574 490.725 286.652 489.649 286.652 488.322V482.669H293.227C294.557 482.669 295.635 481.593 295.635 480.266V474.678C295.635 473.35 294.557 472.275 293.227 472.275Z" fill="white"/>
<path d="M172.641 332.85C174.416 332.563 176.91 332.347 180.424 332.347C183.976 332.347 186.507 332.994 188.207 334.289C189.832 335.511 190.928 337.524 190.928 339.898C190.928 342.271 190.096 344.284 188.585 345.65C186.62 347.412 183.711 348.203 180.31 348.203C179.555 348.203 178.875 348.167 178.346 348.095V356.76H172.641V332.85ZM178.346 343.853C178.837 343.961 179.442 343.996 180.273 343.996C183.333 343.996 185.222 342.522 185.222 340.041C185.222 337.812 183.598 336.482 180.726 336.482C179.555 336.482 178.761 336.59 178.346 336.698V343.853Z" fill="url(#paint44_linear_523_4141)"/>
<path d="M194.594 332.85C196.445 332.563 199.203 332.347 202.264 332.347C206.042 332.347 208.687 332.886 210.5 334.253C212.012 335.403 212.843 337.093 212.843 339.322C212.843 342.414 210.538 344.536 208.347 345.291V345.398C210.123 346.082 211.105 347.699 211.747 349.929C212.541 352.661 213.334 355.825 213.825 356.76H207.931C207.515 356.077 206.911 354.099 206.155 351.115C205.475 348.095 204.38 347.268 202.037 347.232H200.299V356.76H194.594L194.594 332.85ZM200.299 343.277H202.566C205.438 343.277 207.138 341.911 207.138 339.79C207.138 337.561 205.551 336.446 202.906 336.41C201.508 336.41 200.715 336.518 200.299 336.59L200.299 343.277Z" fill="url(#paint45_linear_523_4141)"/>
<path d="M222.781 332.527V356.76H217V332.527H222.781Z" fill="url(#paint46_linear_523_4141)"/>
<path d="M233.774 356.76L225.613 332.527H231.923L235.021 342.774C235.89 345.65 236.684 348.418 237.288 351.439H237.402C238.044 348.526 238.837 345.65 239.706 342.882L242.956 332.527H249.076L240.5 356.76H233.774Z" fill="url(#paint47_linear_523_4141)"/>
<path d="M255.689 350.54L253.876 356.76H247.906L255.689 332.527H263.246L271.143 356.76H264.946L262.982 350.54H255.689ZM262.15 346.441L260.563 341.3C260.11 339.861 259.657 338.064 259.279 336.625H259.203C258.825 338.064 258.448 339.898 258.032 341.3L256.521 346.441H262.15Z" fill="url(#paint48_linear_523_4141)"/>
<path d="M276.319 337.129H269.48V332.527H289.052V337.129H282.1V356.76H276.319V337.129Z" fill="url(#paint49_linear_523_4141)"/>
<path d="M307.264 346.513H297.894V352.266H308.36V356.76H292.113V332.527H307.831V337.021H297.894V342.055H307.264V346.513Z" fill="url(#paint50_linear_523_4141)"/>
<path d="M125.616 519.33C125.616 519.33 125.038 522.596 124.755 525.83C124.644 527.093 125.62 528.19 126.89 528.243C131.204 528.423 140.433 528.771 143.745 528.624C144.242 528.602 144.568 528.093 144.384 527.631C144.229 527.244 143.931 526.931 143.552 526.757L128.308 519.765L125.616 519.33Z" fill="url(#paint51_linear_523_4141)"/>
<path d="M125.143 517.411L125.607 521.318C125.607 521.318 128.277 522.558 130.101 521.161L128.995 516.807L125.143 517.411Z" fill="url(#paint52_linear_523_4141)"/>
<path d="M125.491 443.959C125.291 444.979 124.415 494.873 129.759 517.232C129.846 517.597 129.66 517.973 129.312 518.115C128.493 518.449 126.886 518.933 124.96 518.998C124.364 519.018 123.829 518.631 123.661 518.059C122.134 512.872 114.814 486.88 113.859 462.051C112.792 434.307 113.859 461.106 113.859 461.106L114.485 443.957L125.491 443.959Z" fill="url(#paint53_linear_523_4141)"/>
<path d="M108.081 521.034C108.081 521.034 107.161 522.683 106.27 527.065C106.109 527.856 106.663 528.613 107.468 528.692C108.893 528.832 111.086 529.012 112.843 529C113.653 528.994 114.285 528.29 114.187 527.488C113.993 525.889 113.386 523.265 111.514 521.22L108.081 521.034Z" fill="url(#paint54_linear_523_4141)"/>
<path d="M107.273 516.009L108.359 521.917C108.359 521.917 109.432 522.714 111.555 522.136L111.037 515.779L107.273 516.009Z" fill="url(#paint55_linear_523_4141)"/>
<path d="M104.341 445.49C99.9701 471.814 105.289 510.553 107.083 518.135C107.192 518.599 107.568 518.955 108.039 519.033C108.84 519.165 110.158 519.273 111.458 518.897C111.905 518.767 112.22 518.364 112.238 517.899C112.479 511.769 112.046 474.137 116.118 459.265C116.325 458.511 116.786 457.854 117.424 457.401L125.328 451.793L125.934 442.728L104.341 445.49Z" fill="url(#paint56_linear_523_4141)"/>
<path d="M132.191 395.61C119.093 395.394 104.641 399.042 104.641 399.042C100.737 421.778 103.958 448.002 103.958 448.002C114.098 450.656 125.537 446.379 125.537 446.379C127.222 436.876 135.085 410.132 135.085 410.132C141.485 409.339 140.095 404.098 144.436 401.662C141.125 397.831 146.225 399.689 145.547 396.807C140.917 398.243 136.23 395.677 132.191 395.61Z" fill="url(#paint57_linear_523_4141)"/>
<path d="M170.879 376.356C169.592 374.805 167.964 375.538 167.964 375.538C166.036 383.664 155.93 390.253 145.547 393.473C146.225 396.354 147.786 401.229 151.098 405.06C168.329 395.391 170.879 376.356 170.879 376.356Z" fill="white"/>
<path d="M170.568 376.75C170.702 377.178 169.143 377.828 168.225 376.081C168.193 375.244 167.683 371.657 168.184 370.975C170.854 367.342 176.031 362.788 176.031 362.788C176.905 363.649 176.185 364.496 176.185 364.496L173.674 367.106C174.199 368.054 174.84 368.853 175.14 369.999C175.367 370.867 175.228 371.794 174.789 372.584C174.348 373.376 173.747 374.407 173.178 375.213C172.102 376.739 170.568 376.75 170.568 376.75Z" fill="url(#paint58_linear_523_4141)"/>
<path d="M172.575 368.801L170.287 370.737L169.568 372.664L171.609 374.923C171.609 374.923 172.295 371.098 172.805 370.271C173.314 369.443 173.05 369.043 172.575 368.801Z" fill="url(#paint59_linear_523_4141)"/>
<path d="M109.663 411.7L104.639 399.042C104.639 399.042 92.4046 407.338 90.3926 417.857C92.7042 418.027 96.9107 418.627 101.028 420.702C101.933 415.735 109.663 411.7 109.663 411.7Z" fill="white"/>
<path d="M118.924 384.998L114.757 397.026C114.688 397.225 114.77 397.446 114.955 397.548C116.091 398.175 120.184 399.987 125.116 396.866C125.63 396.541 125.979 396.011 126.057 395.408L127.407 384.998H118.924Z" fill="url(#paint60_linear_523_4141)"/>
<path d="M111.015 397.688L115.988 393.473L123.427 411.6L118.002 483.63L101.064 484.136C100.944 484.139 100.828 484.093 100.744 484.008C100.659 483.924 100.613 483.808 100.617 483.688L102.982 414.391C102.982 414.391 103.047 399.417 104.642 399.042C106.236 398.668 111.015 397.688 111.015 397.688Z" fill="white"/>
<path d="M123.427 410.669L126.308 393.473L128.774 395.637L133.973 395.586L135.086 410.132L127.668 484.565C127.656 484.683 127.597 484.79 127.504 484.863C127.411 484.936 127.292 484.967 127.175 484.951L118.002 483.63L123.427 410.669Z" fill="url(#paint61_linear_523_4141)"/>
<path d="M133.289 395.606C133.289 395.606 141.644 395.031 146.468 393.178C152.132 403.225 153.605 403.52 153.605 403.52C153.605 403.52 146.744 409.595 135.085 410.132C123.426 410.669 133.289 395.606 133.289 395.606Z" fill="white"/>
<path d="M126.682 411.453V413.216L133.24 412.824V410.865L126.682 411.453Z" fill="url(#paint62_linear_523_4141)"/>
<path d="M123.025 415.766C122.997 415.766 122.969 415.759 122.943 415.745L117.227 412.682C117.179 412.656 117.146 412.609 117.138 412.555L116.355 407.291L114.266 406.921C114.202 406.909 114.15 406.863 114.131 406.802L111.926 399.652C111.897 399.561 111.949 399.464 112.04 399.436C112.133 399.408 112.228 399.459 112.255 399.55L114.43 406.6L116.538 406.973C116.61 406.986 116.667 407.044 116.678 407.118L117.467 412.419L123.107 415.442C123.191 415.487 123.222 415.591 123.177 415.675C123.146 415.733 123.086 415.766 123.025 415.766Z" fill="#91B3FA"/>
<path d="M124.383 414.006C124.362 414.006 124.34 414.001 124.319 413.989C124.257 413.954 124.235 413.875 124.271 413.813L127.272 408.563L126.776 405.597C126.767 405.542 126.794 405.488 126.843 405.462L129.258 404.179L128.645 395.645C128.64 395.574 128.693 395.513 128.765 395.508C128.833 395.497 128.898 395.556 128.903 395.627L129.523 404.244C129.526 404.295 129.499 404.344 129.454 404.368L127.047 405.646L127.534 408.567C127.539 408.596 127.534 408.626 127.519 408.652L124.496 413.941C124.472 413.983 124.428 414.006 124.383 414.006Z" fill="#91B3FA"/>
<path d="M120.373 423.239C120.373 423.239 106.637 430.987 102.002 424.371C101.04 422.998 100.81 421.633 101.047 420.331C96.9298 418.256 92.7233 417.656 90.4117 417.486C89.8051 420.657 90.1258 424.03 91.9927 427.438C100.111 442.26 122.191 426.619 122.191 426.619L120.373 423.239Z" fill="white"/>
<path d="M118.721 433.041L126.218 406.913C126.303 406.616 126.557 406.4 126.864 406.364C128.222 406.206 132.157 405.762 136.702 405.379C142.175 404.917 148.532 404.542 152.33 404.861C152.87 404.906 153.196 405.476 152.956 405.961C150.796 410.322 141.911 428.063 137.462 433.874C137.315 434.067 137.087 434.179 136.844 434.177L119.451 434.016C118.945 434.011 118.582 433.526 118.721 433.041Z" fill="url(#paint63_linear_523_4141)"/>
<path d="M137.48 403.114L142.915 402.21C143.204 402.162 143.441 402.438 143.349 402.716L142.811 404.343C142.764 404.484 142.641 404.587 142.492 404.607L137.262 405.304C136.992 405.34 136.769 405.095 136.831 404.83L137.164 403.409C137.2 403.256 137.324 403.139 137.48 403.114Z" fill="url(#paint64_linear_523_4141)"/>
<path d="M133.408 407.706L133.856 405.378C133.901 405.145 134.094 404.968 134.331 404.944L145.309 403.833C145.678 403.795 145.974 404.133 145.887 404.494L145.189 407.394C145.134 407.626 144.931 407.794 144.692 407.806L133.965 408.345C133.616 408.362 133.342 408.049 133.408 407.706Z" fill="url(#paint65_linear_523_4141)"/>
<path d="M120.532 426.728C120.532 426.728 119.487 422.443 119.909 420.923C120.33 419.402 121.146 417.447 123.867 417.882C126.587 418.316 129.796 419.46 129.796 419.46C129.796 419.46 129.634 421.44 127.566 420.801L128.848 421.791C128.848 421.791 128.665 423.377 126.919 422.53L128.111 423.843C128.111 423.843 127.361 425.145 126.076 424.31C124.791 423.475 124.176 427.244 120.532 426.728Z" fill="url(#paint66_linear_523_4141)"/>
<path d="M107.44 427.081C106.164 427.081 104.994 426.893 104.103 426.405C104.02 426.359 103.989 426.255 104.035 426.171C104.081 426.088 104.187 426.058 104.269 426.103C107.932 428.111 116.968 424.675 117.059 424.64C117.083 424.631 118.841 424.022 119.468 422.798C119.512 422.714 119.617 422.681 119.701 422.723C119.786 422.767 119.819 422.871 119.776 422.955C119.084 424.305 117.254 424.938 117.176 424.964C116.892 425.073 111.607 427.081 107.44 427.081Z" fill="#91B3FA"/>
<path d="M102.485 433.984C102.392 433.984 102.316 433.91 102.313 433.818C102.31 433.722 102.384 433.643 102.479 433.639C112.913 433.281 118.852 428.514 118.91 428.466C118.984 428.406 119.093 428.416 119.153 428.49C119.214 428.563 119.203 428.672 119.129 428.732C119.07 428.781 113.04 433.621 102.491 433.984C102.489 433.984 102.487 433.984 102.485 433.984Z" fill="#91B3FA"/>
<path d="M128.745 371.548C128.881 371.736 133.108 386.441 133.108 386.441L124.644 388.671L118.563 375.328C118.563 375.328 126.478 368.404 128.745 371.548Z" fill="url(#paint67_linear_523_4141)"/>
<path d="M121.923 376.316C121.716 376.645 121.672 377.05 121.806 377.416L124.418 384.585C124.457 384.694 124.51 384.795 124.578 384.889C124.955 385.405 126.286 386.95 127.83 385.495C129.146 384.255 130.372 383.134 131.519 382.795C132.188 382.597 132.888 382.994 133.078 383.665C133.469 385.046 134.203 387.849 134.504 390.43C134.579 391.077 134.137 391.671 133.496 391.796C131.806 392.126 128.486 392.672 125.664 392.519C125.2 392.494 124.79 392.217 124.593 391.798C123.725 389.952 121.27 384.789 120.352 383.437C119.5 382.182 117.472 382.201 116.544 382.283C116.192 382.314 115.846 382.199 115.583 381.963C114.796 381.254 113.499 379.618 115.362 377.633C115.825 377.14 115.79 376.357 115.305 375.884C114.437 375.038 113.595 373.602 115.01 371.815C116.443 370.005 118.339 370.185 119.576 370.585C120.123 370.761 120.75 370.578 121.066 370.099C121.207 369.885 121.435 369.724 121.801 369.721C122.491 369.715 123.045 369.193 123.043 368.504C123.041 367.323 123.497 365.877 125.512 365.23C129.207 364.045 131.552 367.597 131.806 370.261C132.06 372.925 127.98 373.984 125.574 373.826C123.806 373.711 122.495 375.407 121.923 376.316Z" fill="url(#paint68_linear_523_4141)"/>
<path d="M121.343 386.076C121.343 386.076 120.701 381.453 118.77 381.244C116.838 381.035 114.975 382.635 116.917 385.216C119.334 388.426 121.343 386.076 121.343 386.076Z" fill="url(#paint69_linear_523_4141)"/>
<path d="M129.392 372.034C129.36 372.034 129.327 372.024 129.297 372.005C129.218 371.953 129.196 371.846 129.248 371.767C129.257 371.754 130.118 370.424 129.666 369.025C129.332 367.992 128.377 367.169 126.826 366.578C126.737 366.544 126.692 366.445 126.726 366.355C126.76 366.266 126.861 366.222 126.949 366.256C128.604 366.887 129.629 367.784 129.996 368.923C130.497 370.481 129.576 371.897 129.536 371.957C129.503 372.007 129.448 372.034 129.392 372.034Z" fill="#91B3FA"/>
<circle cx="28.7486" cy="28.7486" r="28.7486" transform="matrix(0.708452 0.705759 -0.708452 0.705759 -7.26562 -11.9353)" fill="white" fill-opacity="0.1"/>
<circle cx="13.7626" cy="13.7626" r="13.7626" transform="matrix(0.708452 -0.705759 0.708452 0.705759 -29.7988 20.0095)" fill="#5C73FE"/>
<ellipse cx="49.8911" cy="49.8089" rx="49.8911" ry="49.8089" transform="matrix(-0.966295 -0.257442 0.260202 -0.965555 287.42 191.628)" fill="white" fill-opacity="0.1"/>
<ellipse cx="23.8447" cy="23.8841" rx="23.8447" ry="23.8841" transform="matrix(-0.260202 0.965555 -0.966295 -0.257442 293.523 124.163)" fill="#5C73FE"/>
<defs>
<linearGradient id="paint0_linear_523_4141" x1="604.881" y1="546.682" x2="351.567" y2="231.554" gradientUnits="userSpaceOnUse">
<stop stop-color="#DAE3FE"/>
<stop offset="1" stop-color="#E9EFFD"/>
</linearGradient>
<linearGradient id="paint1_linear_523_4141" x1="148.129" y1="471.423" x2="-103.271" y2="155.707" gradientUnits="userSpaceOnUse">
<stop stop-color="#DAE3FE"/>
<stop offset="1" stop-color="#E9EFFD"/>
</linearGradient>
<linearGradient id="paint2_linear_523_4141" x1="459.145" y1="564.754" x2="303.733" y2="332.295" gradientUnits="userSpaceOnUse">
<stop stop-color="#DAE3FE"/>
<stop offset="1" stop-color="#E9EFFD"/>
</linearGradient>
<linearGradient id="paint3_linear_523_4141" x1="254.147" y1="519.925" x2="98.7353" y2="287.466" gradientUnits="userSpaceOnUse">
<stop stop-color="#DAE3FE"/>
<stop offset="1" stop-color="#E9EFFD"/>
</linearGradient>
<linearGradient id="paint4_linear_523_4141" x1="435.796" y1="239.904" x2="308.537" y2="305.734" gradientUnits="userSpaceOnUse">
<stop stop-color="#4F52FF"/>
<stop offset="1" stop-color="#4042E2"/>
</linearGradient>
<linearGradient id="paint5_linear_523_4141" x1="74.548" y1="259.654" x2="107.465" y2="365.668" gradientUnits="userSpaceOnUse">
<stop stop-color="#FEBBBA"/>
<stop offset="1" stop-color="#FF928E"/>
</linearGradient>
<linearGradient id="paint6_linear_523_4141" x1="67.8966" y1="261.719" x2="100.813" y2="367.733" gradientUnits="userSpaceOnUse">
<stop stop-color="#FEBBBA"/>
<stop offset="1" stop-color="#FF928E"/>
</linearGradient>
<linearGradient id="paint7_linear_523_4141" x1="97.3268" y1="367.123" x2="43.8583" y2="458.563" gradientUnits="userSpaceOnUse">
<stop stop-color="#E1473D"/>
<stop offset="1" stop-color="#E9605A"/>
</linearGradient>
<linearGradient id="paint8_linear_523_4141" x1="107.145" y1="372.864" x2="53.6759" y2="464.304" gradientUnits="userSpaceOnUse">
<stop stop-color="#E1473D"/>
<stop offset="1" stop-color="#E9605A"/>
</linearGradient>
<linearGradient id="paint9_linear_523_4141" x1="126.78" y1="384.345" x2="73.3113" y2="475.785" gradientUnits="userSpaceOnUse">
<stop stop-color="#E1473D"/>
<stop offset="1" stop-color="#E9605A"/>
</linearGradient>
<linearGradient id="paint10_linear_523_4141" x1="126.78" y1="361.291" x2="73.3113" y2="452.731" gradientUnits="userSpaceOnUse">
<stop stop-color="#E1473D"/>
<stop offset="1" stop-color="#E9605A"/>
</linearGradient>
<linearGradient id="paint11_linear_523_4141" x1="153.571" y1="224.372" x2="86.0026" y2="313.434" gradientUnits="userSpaceOnUse">
<stop stop-color="#09005D"/>
<stop offset="1" stop-color="#1A0F91"/>
</linearGradient>
<linearGradient id="paint12_linear_523_4141" x1="161.003" y1="230.009" x2="93.4341" y2="319.071" gradientUnits="userSpaceOnUse">
<stop stop-color="#09005D"/>
<stop offset="1" stop-color="#1A0F91"/>
</linearGradient>
<linearGradient id="paint13_linear_523_4141" x1="129.428" y1="342.636" x2="129.944" y2="254.794" gradientUnits="userSpaceOnUse">
<stop stop-color="#4F52FF"/>
<stop offset="1" stop-color="#4042E2"/>
</linearGradient>
<linearGradient id="paint14_linear_523_4141" x1="253.584" y1="398.607" x2="202.92" y2="437.975" gradientUnits="userSpaceOnUse">
<stop stop-color="#FF928E"/>
<stop offset="1" stop-color="#FE7062"/>
</linearGradient>
<linearGradient id="paint15_linear_523_4141" x1="153.845" y1="489.241" x2="214.951" y2="434.919" gradientUnits="userSpaceOnUse">
<stop stop-color="#E1473D"/>
<stop offset="1" stop-color="#E9605A"/>
</linearGradient>
<linearGradient id="paint16_linear_523_4141" x1="155.084" y1="354.663" x2="142.543" y2="459.565" gradientUnits="userSpaceOnUse">
<stop stop-color="#E1473D"/>
<stop offset="1" stop-color="#E9605A"/>
</linearGradient>
<linearGradient id="paint17_linear_523_4141" x1="145.914" y1="445.015" x2="164.492" y2="402.729" gradientUnits="userSpaceOnUse">
<stop stop-color="#FEBBBA"/>
<stop offset="1" stop-color="#FF928E"/>
</linearGradient>
<linearGradient id="paint18_linear_523_4141" x1="158.129" y1="450.381" x2="176.707" y2="408.095" gradientUnits="userSpaceOnUse">
<stop stop-color="#FEBBBA"/>
<stop offset="1" stop-color="#FF928E"/>
</linearGradient>
<linearGradient id="paint19_linear_523_4141" x1="163.938" y1="538.8" x2="297.175" y2="359.244" gradientUnits="userSpaceOnUse">
<stop stop-color="#FF928E"/>
<stop offset="1" stop-color="#FE7062"/>
</linearGradient>
<linearGradient id="paint20_linear_523_4141" x1="239.889" y1="341.741" x2="239.889" y2="351.617" gradientUnits="userSpaceOnUse">
<stop stop-color="#E1473D"/>
<stop offset="1" stop-color="#E9605A"/>
</linearGradient>
<linearGradient id="paint21_linear_523_4141" x1="241.712" y1="307.307" x2="240.681" y2="359.326" gradientUnits="userSpaceOnUse">
<stop stop-color="#FEBBBA"/>
<stop offset="1" stop-color="#FF928E"/>
</linearGradient>
<linearGradient id="paint22_linear_523_4141" x1="227.571" y1="303.609" x2="213.576" y2="328.437" gradientUnits="userSpaceOnUse">
<stop stop-color="#FF928E"/>
<stop offset="1" stop-color="#FE7062"/>
</linearGradient>
<linearGradient id="paint23_linear_523_4141" x1="246.524" y1="314.291" x2="232.529" y2="339.119" gradientUnits="userSpaceOnUse">
<stop stop-color="#FF928E"/>
<stop offset="1" stop-color="#FE7062"/>
</linearGradient>
<linearGradient id="paint24_linear_523_4141" x1="265.475" y1="324.973" x2="251.479" y2="349.801" gradientUnits="userSpaceOnUse">
<stop stop-color="#FF928E"/>
<stop offset="1" stop-color="#FE7062"/>
</linearGradient>
<linearGradient id="paint25_linear_523_4141" x1="284.423" y1="335.656" x2="270.428" y2="360.483" gradientUnits="userSpaceOnUse">
<stop stop-color="#FF928E"/>
<stop offset="1" stop-color="#FE7062"/>
</linearGradient>
<linearGradient id="paint26_linear_523_4141" x1="303.374" y1="346.338" x2="289.379" y2="371.166" gradientUnits="userSpaceOnUse">
<stop stop-color="#FF928E"/>
<stop offset="1" stop-color="#FE7062"/>
</linearGradient>
<linearGradient id="paint27_linear_523_4141" x1="322.326" y1="357.02" x2="308.331" y2="381.848" gradientUnits="userSpaceOnUse">
<stop stop-color="#FF928E"/>
<stop offset="1" stop-color="#FE7062"/>
</linearGradient>
<linearGradient id="paint28_linear_523_4141" x1="201.605" y1="396.436" x2="210.316" y2="337.866" gradientUnits="userSpaceOnUse">
<stop stop-color="#FEBBBA"/>
<stop offset="1" stop-color="#FF928E"/>
</linearGradient>
<linearGradient id="paint29_linear_523_4141" x1="205.057" y1="364.058" x2="198.023" y2="422.209" gradientUnits="userSpaceOnUse">
<stop stop-color="#E1473D"/>
<stop offset="1" stop-color="#E9605A"/>
</linearGradient>
<linearGradient id="paint30_linear_523_4141" x1="241.709" y1="402.4" x2="250.419" y2="343.831" gradientUnits="userSpaceOnUse">
<stop stop-color="#FEBBBA"/>
<stop offset="1" stop-color="#FF928E"/>
</linearGradient>
<linearGradient id="paint31_linear_523_4141" x1="245.458" y1="368.945" x2="238.423" y2="427.096" gradientUnits="userSpaceOnUse">
<stop stop-color="#E1473D"/>
<stop offset="1" stop-color="#E9605A"/>
</linearGradient>
<linearGradient id="paint32_linear_523_4141" x1="281.812" y1="408.365" x2="290.523" y2="349.795" gradientUnits="userSpaceOnUse">
<stop stop-color="#FEBBBA"/>
<stop offset="1" stop-color="#FF928E"/>
</linearGradient>
<linearGradient id="paint33_linear_523_4141" x1="285.858" y1="373.833" x2="278.824" y2="431.983" gradientUnits="userSpaceOnUse">
<stop stop-color="#E1473D"/>
<stop offset="1" stop-color="#E9605A"/>
</linearGradient>
<linearGradient id="paint34_linear_523_4141" x1="274.433" y1="362.435" x2="239.346" y2="450.842" gradientUnits="userSpaceOnUse">
<stop stop-color="#FEBBBA"/>
<stop offset="1" stop-color="#FF928E"/>
</linearGradient>
<linearGradient id="paint35_linear_523_4141" x1="187.957" y1="604.139" x2="189.411" y2="375.329" gradientUnits="userSpaceOnUse">
<stop stop-color="#E1473D"/>
<stop offset="1" stop-color="#E9605A"/>
</linearGradient>
<linearGradient id="paint36_linear_523_4141" x1="259.258" y1="413.518" x2="246.134" y2="445.506" gradientUnits="userSpaceOnUse">
<stop stop-color="#09005D"/>
<stop offset="1" stop-color="#1A0F91"/>
</linearGradient>
<linearGradient id="paint37_linear_523_4141" x1="261.802" y1="443.976" x2="377.984" y2="276.859" gradientUnits="userSpaceOnUse">
<stop stop-color="#FEBBBA"/>
<stop offset="1" stop-color="#FF928E"/>
</linearGradient>
<linearGradient id="paint38_linear_523_4141" x1="177.215" y1="448.628" x2="258.728" y2="448.628" gradientUnits="userSpaceOnUse">
<stop stop-color="#E1473D"/>
<stop offset="1" stop-color="#E9605A"/>
</linearGradient>
<linearGradient id="paint39_linear_523_4141" x1="189.99" y1="448.628" x2="193.115" y2="448.628" gradientUnits="userSpaceOnUse">
<stop stop-color="#DAE3FE"/>
<stop offset="1" stop-color="#E9EFFD"/>
</linearGradient>
<linearGradient id="paint40_linear_523_4141" x1="204.049" y1="448.628" x2="207.173" y2="448.628" gradientUnits="userSpaceOnUse">
<stop stop-color="#DAE3FE"/>
<stop offset="1" stop-color="#E9EFFD"/>
</linearGradient>
<linearGradient id="paint41_linear_523_4141" x1="218.109" y1="448.628" x2="221.234" y2="448.628" gradientUnits="userSpaceOnUse">
<stop stop-color="#DAE3FE"/>
<stop offset="1" stop-color="#E9EFFD"/>
</linearGradient>
<linearGradient id="paint42_linear_523_4141" x1="232.17" y1="448.628" x2="235.294" y2="448.628" gradientUnits="userSpaceOnUse">
<stop stop-color="#DAE3FE"/>
<stop offset="1" stop-color="#E9EFFD"/>
</linearGradient>
<linearGradient id="paint43_linear_523_4141" x1="246.23" y1="448.628" x2="249.355" y2="448.628" gradientUnits="userSpaceOnUse">
<stop stop-color="#DAE3FE"/>
<stop offset="1" stop-color="#E9EFFD"/>
</linearGradient>
<linearGradient id="paint44_linear_523_4141" x1="189.605" y1="235.877" x2="184.448" y2="302.535" gradientUnits="userSpaceOnUse">
<stop stop-color="#09005D"/>
<stop offset="1" stop-color="#1A0F91"/>
</linearGradient>
<linearGradient id="paint45_linear_523_4141" x1="212.533" y1="237.65" x2="207.376" y2="304.309" gradientUnits="userSpaceOnUse">
<stop stop-color="#09005D"/>
<stop offset="1" stop-color="#1A0F91"/>
</linearGradient>
<linearGradient id="paint46_linear_523_4141" x1="228.107" y1="238.855" x2="222.95" y2="305.514" gradientUnits="userSpaceOnUse">
<stop stop-color="#09005D"/>
<stop offset="1" stop-color="#1A0F91"/>
</linearGradient>
<linearGradient id="paint47_linear_523_4141" x1="244.522" y1="240.125" x2="239.365" y2="306.784" gradientUnits="userSpaceOnUse">
<stop stop-color="#09005D"/>
<stop offset="1" stop-color="#1A0F91"/>
</linearGradient>
<linearGradient id="paint48_linear_523_4141" x1="268.44" y1="241.975" x2="263.283" y2="308.634" gradientUnits="userSpaceOnUse">
<stop stop-color="#09005D"/>
<stop offset="1" stop-color="#1A0F91"/>
</linearGradient>
<linearGradient id="paint49_linear_523_4141" x1="286.371" y1="243.363" x2="281.214" y2="310.021" gradientUnits="userSpaceOnUse">
<stop stop-color="#09005D"/>
<stop offset="1" stop-color="#1A0F91"/>
</linearGradient>
<linearGradient id="paint50_linear_523_4141" x1="307.974" y1="245.034" x2="302.817" y2="311.692" gradientUnits="userSpaceOnUse">
<stop stop-color="#09005D"/>
<stop offset="1" stop-color="#1A0F91"/>
</linearGradient>
<linearGradient id="paint51_linear_523_4141" x1="143.262" y1="514.816" x2="87.5591" y2="575.525" gradientUnits="userSpaceOnUse">
<stop stop-color="#09005D"/>
<stop offset="1" stop-color="#1A0F91"/>
</linearGradient>
<linearGradient id="paint52_linear_523_4141" x1="125.143" y1="519.316" x2="130.101" y2="519.316" gradientUnits="userSpaceOnUse">
<stop stop-color="#FEBBBA"/>
<stop offset="1" stop-color="#FF928E"/>
</linearGradient>
<linearGradient id="paint53_linear_523_4141" x1="147.657" y1="446.284" x2="100.279" y2="510.627" gradientUnits="userSpaceOnUse">
<stop stop-color="#09005D"/>
<stop offset="1" stop-color="#1A0F91"/>
</linearGradient>
<linearGradient id="paint54_linear_523_4141" x1="130.74" y1="503.325" x2="75.0368" y2="564.035" gradientUnits="userSpaceOnUse">
<stop stop-color="#09005D"/>
<stop offset="1" stop-color="#1A0F91"/>
</linearGradient>
<linearGradient id="paint55_linear_523_4141" x1="107.273" y1="519.063" x2="111.555" y2="519.063" gradientUnits="userSpaceOnUse">
<stop stop-color="#FEBBBA"/>
<stop offset="1" stop-color="#FF928E"/>
</linearGradient>
<linearGradient id="paint56_linear_523_4141" x1="139.192" y1="440.051" x2="91.8144" y2="504.393" gradientUnits="userSpaceOnUse">
<stop stop-color="#09005D"/>
<stop offset="1" stop-color="#1A0F91"/>
</linearGradient>
<linearGradient id="paint57_linear_523_4141" x1="102.709" y1="422.236" x2="145.61" y2="422.236" gradientUnits="userSpaceOnUse">
<stop stop-color="#09005D"/>
<stop offset="1" stop-color="#1A0F91"/>
</linearGradient>
<linearGradient id="paint58_linear_523_4141" x1="161.271" y1="383.344" x2="183.396" y2="358.933" gradientUnits="userSpaceOnUse">
<stop stop-color="#FEBBBA"/>
<stop offset="1" stop-color="#FF928E"/>
</linearGradient>
<linearGradient id="paint59_linear_523_4141" x1="171.457" y1="368.137" x2="169.968" y2="401.455" gradientUnits="userSpaceOnUse">
<stop stop-color="#FEBBBA"/>
<stop offset="1" stop-color="#FF928E"/>
</linearGradient>
<linearGradient id="paint60_linear_523_4141" x1="114.732" y1="391.82" x2="127.407" y2="391.82" gradientUnits="userSpaceOnUse">
<stop stop-color="#FEBBBA"/>
<stop offset="1" stop-color="#FF928E"/>
</linearGradient>
<linearGradient id="paint61_linear_523_4141" x1="118.002" y1="439.214" x2="135.086" y2="439.214" gradientUnits="userSpaceOnUse">
<stop stop-color="#DAE3FE"/>
<stop offset="1" stop-color="#E9EFFD"/>
</linearGradient>
<linearGradient id="paint62_linear_523_4141" x1="125.779" y1="415.142" x2="148.901" y2="398.469" gradientUnits="userSpaceOnUse">
<stop stop-color="#9CFFFB"/>
<stop offset="1" stop-color="#9BFFFA"/>
</linearGradient>
<linearGradient id="paint63_linear_523_4141" x1="131.888" y1="402.906" x2="149.45" y2="476.224" gradientUnits="userSpaceOnUse">
<stop stop-color="#09005D"/>
<stop offset="1" stop-color="#1A0F91"/>
</linearGradient>
<linearGradient id="paint64_linear_523_4141" x1="136.82" y1="403.756" x2="143.369" y2="403.756" gradientUnits="userSpaceOnUse">
<stop stop-color="#4F52FF"/>
<stop offset="1" stop-color="#4042E2"/>
</linearGradient>
<linearGradient id="paint65_linear_523_4141" x1="140.959" y1="398.253" x2="139.17" y2="409.006" gradientUnits="userSpaceOnUse">
<stop stop-color="#4F52FF"/>
<stop offset="1" stop-color="#4042E2"/>
</linearGradient>
<linearGradient id="paint66_linear_523_4141" x1="119.809" y1="422.299" x2="129.796" y2="422.299" gradientUnits="userSpaceOnUse">
<stop stop-color="#FEBBBA"/>
<stop offset="1" stop-color="#FF928E"/>
</linearGradient>
<linearGradient id="paint67_linear_523_4141" x1="126.004" y1="373.643" x2="125.328" y2="402.74" gradientUnits="userSpaceOnUse">
<stop stop-color="#FEBBBA"/>
<stop offset="1" stop-color="#FF928E"/>
</linearGradient>
<linearGradient id="paint68_linear_523_4141" x1="118.368" y1="385.999" x2="135.393" y2="373.718" gradientUnits="userSpaceOnUse">
<stop stop-color="#09005D"/>
<stop offset="1" stop-color="#1A0F91"/>
</linearGradient>
<linearGradient id="paint69_linear_523_4141" x1="115.866" y1="403.583" x2="118.846" y2="383.636" gradientUnits="userSpaceOnUse">
<stop stop-color="#FEBBBA"/>
<stop offset="1" stop-color="#FF928E"/>
</linearGradient>
</defs>
</svg>
