<svg width="360" height="524" viewBox="0 0 360 524" fill="none" xmlns="http://www.w3.org/2000/svg">
<path d="M531.031 477.087C525.177 483.204 519.638 487.149 515.262 490.266C463.822 526.901 402.955 516.222 390.019 513.614C370.916 509.763 333.991 502.319 307.296 471.158C266.907 424.013 273.196 349.739 304.524 300.709C310.255 291.74 340.524 241.964 402.047 233.981C439.28 229.15 482.682 238.894 514.112 265.031C580.088 319.896 575.391 430.732 531.031 477.087Z" fill="url(#paint0_linear_519_3362)" fill-opacity="0.4"/>
<path d="M154.888 420.955C162.219 428.52 168.779 432.968 173.801 436.325C222.784 469.067 278.776 459.63 296.088 456.405C324.018 451.2 347.595 447.529 367.851 429.208C413.88 387.576 411.642 300.728 376.47 246.93C372.299 240.551 337.181 188.436 281.067 181.093C279.694 180.913 278.67 180.811 277.774 180.716C269.093 179.796 215.301 174.94 171.438 211.729C165.16 216.995 155.055 226.494 145.686 240.981C111.425 293.952 111.317 375.994 154.888 420.955Z" fill="url(#paint1_linear_519_3362)" fill-opacity="0.2"/>
<path d="M121.542 238.398C117.004 258.918 95.4682 379.41 204.78 419.952C204.78 419.952 239.355 344.281 124.482 237.475C123.477 236.54 121.839 237.057 121.542 238.398Z" fill="#BDD0FB"/>
<path opacity="0.65" d="M180.223 410.692C179.996 410.692 179.774 410.58 179.642 410.374C163.759 385.592 151.046 345.402 143.178 316.051C134.659 284.274 129.825 258.001 129.777 257.74C129.709 257.364 129.957 257.005 130.331 256.936C130.709 256.87 131.065 257.116 131.134 257.491C131.181 257.752 136.007 283.979 144.513 315.704C152.355 344.957 165.017 384.998 180.803 409.629C181.008 409.95 180.915 410.377 180.595 410.583C180.48 410.656 180.351 410.692 180.223 410.692Z" fill="white"/>
<path d="M58.238 241.594C57.6133 272.007 61.1977 449.146 227.841 475.637C227.841 475.637 255.468 358.412 62.1496 239.448C60.4584 238.407 58.2789 239.607 58.238 241.594Z" fill="#7D97F4"/>
<path opacity="0.65" d="M76.6129 266.245C78.2653 271.075 80.0605 275.866 81.8972 280.635C83.7417 285.403 85.6499 290.146 87.619 294.863C91.5538 304.3 95.7163 313.641 100.108 322.872C108.897 341.328 118.563 359.378 129.373 376.721C140.197 394.042 152.155 410.7 165.797 425.889C169.194 429.696 172.734 433.372 176.364 436.952C177.281 437.837 178.176 438.746 179.11 439.613L181.902 442.225C183.799 443.927 185.682 445.645 187.639 447.276C195.386 453.896 203.704 459.843 212.527 464.908L212.533 464.911C212.863 465.101 212.977 465.522 212.788 465.853C212.598 466.184 212.177 466.298 211.846 466.109L211.845 466.108C202.95 460.964 194.586 454.94 186.809 448.252C184.845 446.603 182.956 444.868 181.053 443.15L178.253 440.514C177.316 439.639 176.42 438.723 175.501 437.829C171.863 434.218 168.318 430.513 164.918 426.679C158.088 419.038 151.7 411.012 145.657 402.743C142.646 398.6 139.702 394.409 136.856 390.153C134.013 385.894 131.238 381.591 128.539 377.24C117.762 359.825 108.141 341.716 99.4004 323.208C95.0331 313.95 90.8962 304.585 86.9878 295.126C85.0319 290.397 83.1368 285.643 81.3056 280.864C79.4813 276.081 77.7019 271.285 76.0585 266.43C76.0068 266.277 76.0886 266.111 76.2415 266.059C76.3942 266.007 76.56 266.089 76.6119 266.242L76.6129 266.245Z" fill="white"/>
<path d="M37.0747 335.384C43.7004 360.659 88.2578 506.166 232.158 488.834C232.158 488.834 227.456 385.482 39.8025 332.691C38.1609 332.229 36.6419 333.733 37.0747 335.384Z" fill="#91B3FA"/>
<path opacity="0.65" d="M58.075 351.401C63.0719 358.384 68.3513 365.177 73.7277 371.879C79.1179 378.573 84.6587 385.145 90.3305 391.6C95.9978 398.059 101.827 404.376 107.791 410.559L110.025 412.881L112.292 415.17L114.56 417.457L115.695 418.601L116.846 419.726L121.457 424.226L126.142 428.647C127.692 430.133 129.299 431.557 130.885 433.004C132.475 434.447 134.056 435.9 135.687 437.297L140.547 441.521L145.493 445.644L146.73 446.674L147.988 447.678L150.509 449.679L153.029 451.681C153.865 452.354 154.738 452.979 155.59 453.631C157.307 454.917 159.011 456.22 160.739 457.492L165.986 461.217L167.298 462.148L168.635 463.041L171.314 464.821L173.992 466.602C174.884 467.197 175.81 467.738 176.718 468.308L179.453 469.998L180.821 470.843C181.276 471.126 181.731 471.409 182.2 471.667L187.789 474.844C195.312 478.945 203.061 482.627 211.052 485.692L211.061 485.695C211.417 485.831 211.595 486.23 211.458 486.586C211.322 486.943 210.924 487.12 210.568 486.984L210.565 486.983C202.513 483.86 194.723 480.121 187.17 475.965L181.562 472.748C181.09 472.487 180.634 472.201 180.178 471.914L178.806 471.06L176.063 469.35C175.154 468.774 174.225 468.227 173.331 467.626L170.647 465.827L167.964 464.027L166.624 463.125L165.31 462.185L160.056 458.426C158.328 457.142 156.622 455.828 154.904 454.53C154.051 453.873 153.178 453.242 152.342 452.564L149.821 450.546L147.3 448.529L146.042 447.517L144.806 446.478L139.862 442.325L135.005 438.071C133.376 436.664 131.797 435.202 130.209 433.75C128.625 432.293 127.019 430.859 125.472 429.364L120.793 424.916L116.191 420.39L115.042 419.257L113.91 418.107L111.646 415.807L109.384 413.506L107.155 411.172C101.206 404.955 95.3925 398.607 89.7423 392.117C84.0879 385.631 78.5661 379.03 73.1953 372.307C67.8367 365.574 62.583 358.761 57.597 351.737C57.5035 351.605 57.5345 351.422 57.666 351.329C57.7976 351.235 57.9799 351.266 58.0732 351.398L58.075 351.401Z" fill="white"/>
<path d="M43.7207 376.409C43.7207 390.589 57.0063 402.084 71.1705 402.084C85.3348 402.084 96.8171 390.589 96.8171 376.409C96.8171 362.229 85.3348 350.734 71.1705 350.734C57.0063 350.734 43.7207 362.229 43.7207 376.409Z" fill="url(#paint2_linear_519_3362)"/>
<path opacity="0.88" d="M50.8588 368.527C51.8686 366.025 53.3679 363.722 55.2484 361.774C57.1294 359.828 59.3892 358.23 61.8917 357.134C64.3881 356.029 67.1174 355.415 69.8674 355.348C72.6158 355.282 75.403 355.752 77.9963 356.765C80.5869 357.779 82.9889 359.308 85.0007 361.259C87.0129 363.209 88.6374 365.572 89.7359 368.17C90.2829 369.469 90.7074 370.823 90.9845 372.207C91.2618 373.591 91.4017 375.001 91.4065 376.41C91.4017 377.818 91.2618 379.228 90.9845 380.612C90.7075 381.997 90.2829 383.35 89.7359 384.649C88.6374 387.247 87.0129 389.61 85.0007 391.56C82.9889 393.511 80.5869 395.04 77.9963 396.055C75.4029 397.067 72.6158 397.537 69.8674 397.471C67.1174 397.404 64.3881 396.79 61.8917 395.685C59.3892 394.589 57.1294 392.991 55.2484 391.045C53.368 389.097 51.8687 386.794 50.8588 384.292C49.8474 381.793 49.326 379.098 49.3301 376.41C49.3259 373.721 49.8473 371.026 50.8588 368.527ZM52.5011 379.873C52.7402 381.011 53.1078 382.122 53.5796 383.19C54.5281 385.323 55.9326 387.266 57.6719 388.865C59.4112 390.466 61.4855 391.712 63.7111 392.534C65.9408 393.353 68.3268 393.725 70.6921 393.66C75.4298 393.537 79.9817 391.563 83.174 388.35C84.7755 386.753 86.049 384.87 86.9046 382.833C87.7612 380.796 88.204 378.609 88.2006 376.41C88.204 374.21 87.7612 372.023 86.9046 369.987C86.0491 367.95 84.7755 366.066 83.174 364.469C79.9817 361.256 75.4298 359.282 70.6921 359.159C68.3268 359.094 65.9409 359.466 63.7111 360.285C61.4854 361.107 59.4112 362.353 57.6719 363.954C55.9325 365.553 54.528 367.496 53.5796 369.63C53.1078 370.697 52.7402 371.808 52.5011 372.946C52.2618 374.084 52.1402 375.246 52.1352 376.41C52.1402 377.573 52.2618 378.735 52.5011 379.873Z" fill="white"/>
<path d="M70.4323 363.507C70.015 362.92 69.1463 362.92 68.729 363.507C66.4303 366.744 60.2715 375.808 60.2715 379.994C60.2715 385.141 64.4393 389.314 69.5805 389.314C74.7218 389.314 78.8897 385.141 78.8897 379.994C78.8898 375.808 72.731 366.744 70.4323 363.507ZM67.7389 386.431C67.6852 386.672 67.4716 386.836 67.2347 386.836C67.1972 386.836 67.1594 386.832 67.1216 386.823C65.1203 386.376 63.6758 385.415 62.8286 383.965C61.3605 381.452 62.249 378.415 62.2875 378.287C62.3696 378.013 62.6585 377.857 62.9318 377.94C63.205 378.023 63.3599 378.311 63.2781 378.585C63.2684 378.618 62.4841 381.332 63.7249 383.448C64.4215 384.636 65.6401 385.431 67.3468 385.813C67.6257 385.875 67.8012 386.152 67.7389 386.431Z" fill="white"/>
<path d="M75.9961 304.316C75.9961 318.496 89.2817 329.991 103.446 329.991C117.61 329.991 129.092 318.496 129.092 304.316C129.092 290.136 117.61 278.641 103.446 278.641C89.2817 278.641 75.9961 290.136 75.9961 304.316Z" fill="url(#paint3_linear_519_3362)"/>
<path opacity="0.73" d="M83.1342 296.433C84.144 293.932 85.6433 291.628 87.5238 289.681C89.4048 287.735 91.6645 286.137 94.167 285.041C96.6635 283.935 99.3928 283.322 102.143 283.255C104.891 283.189 107.678 283.659 110.272 284.671C112.862 285.686 115.264 287.215 117.276 289.166C119.288 291.116 120.913 293.479 122.011 296.076C122.558 297.375 122.983 298.729 123.26 300.113C123.537 301.497 123.677 302.908 123.682 304.316C123.677 305.724 123.537 307.135 123.26 308.519C122.983 309.903 122.558 311.257 122.011 312.556C120.913 315.154 119.288 317.517 117.276 319.467C115.264 321.418 112.862 322.947 110.272 323.961C107.678 324.974 104.891 325.444 102.143 325.378C99.3928 325.311 96.6635 324.697 94.167 323.592C91.6645 322.496 89.4048 320.897 87.5238 318.952C85.6434 317.004 84.1441 314.7 83.1342 312.199C82.1228 309.699 81.6014 307.005 81.6055 304.316C81.6014 301.628 82.1228 298.933 83.1342 296.433ZM84.7765 307.779C85.0156 308.918 85.3832 310.029 85.855 311.096C86.8035 313.229 88.208 315.172 89.9474 316.771C91.6867 318.372 93.761 319.618 95.9866 320.441C98.2163 321.26 100.602 321.632 102.968 321.567C107.705 321.443 112.257 319.47 115.449 316.257C117.051 314.659 118.324 312.776 119.18 310.739C120.037 308.702 120.48 306.515 120.476 304.316C120.48 302.117 120.037 299.93 119.18 297.893C118.324 295.856 117.051 293.973 115.449 292.376C112.257 289.163 107.705 287.189 102.968 287.066C100.602 287.001 98.2163 287.372 95.9866 288.192C93.7609 289.014 91.6867 290.26 89.9474 291.861C88.208 293.46 86.8035 295.403 85.855 297.536C85.3832 298.603 85.0156 299.715 84.7765 300.853C84.5372 301.991 84.4156 303.152 84.4106 304.316C84.4156 305.48 84.5372 306.641 84.7765 307.779Z" fill="white"/>
<path d="M95.047 314.027H90.737C90.5942 314.027 90.4785 313.911 90.4785 313.768V295.647C90.4785 295.504 90.5942 295.388 90.737 295.388H95.047C95.1898 295.388 95.3055 295.504 95.3055 295.647V313.768C95.3055 313.911 95.1897 314.027 95.047 314.027Z" fill="white"/>
<path d="M89.5298 307.987H88.323C88.1802 307.987 88.0645 307.871 88.0645 307.728V301.687C88.0645 301.544 88.1802 301.428 88.323 301.428H89.5298C89.6726 301.428 89.7883 301.544 89.7883 301.687V307.728C89.7883 307.871 89.6726 307.987 89.5298 307.987Z" fill="white"/>
<path d="M110.733 314.027H115.043C115.186 314.027 115.302 313.911 115.302 313.768V295.647C115.302 295.504 115.186 295.388 115.043 295.388H110.733C110.59 295.388 110.475 295.504 110.475 295.647V313.768C110.475 313.911 110.59 314.027 110.733 314.027Z" fill="white"/>
<path d="M116.251 307.987H117.458C117.6 307.987 117.716 307.871 117.716 307.728V301.687C117.716 301.544 117.6 301.428 117.458 301.428H116.251C116.108 301.428 115.992 301.544 115.992 301.687V307.728C115.992 307.871 116.108 307.987 116.251 307.987Z" fill="white"/>
<path d="M109.527 305.933H96.2527C96.1099 305.933 95.9941 305.817 95.9941 305.674V303.569C95.9941 303.426 96.1099 303.31 96.2527 303.31H109.527C109.67 303.31 109.785 303.426 109.785 303.569V305.674C109.785 305.817 109.67 305.933 109.527 305.933Z" fill="white"/>
<path d="M65.7168 454.563C65.7168 468.743 79.0024 480.239 93.1666 480.239C107.331 480.239 118.813 468.743 118.813 454.563C118.813 440.383 107.331 428.888 93.1666 428.888C79.0024 428.888 65.7168 440.383 65.7168 454.563Z" fill="url(#paint4_linear_519_3362)"/>
<path opacity="0.73" d="M72.8549 446.68C73.8647 444.179 75.364 441.876 77.2445 439.928C79.1255 437.982 81.3852 436.384 83.8877 435.288C86.3842 434.182 89.1135 433.569 91.8635 433.502C94.612 433.436 97.3991 433.906 99.9924 434.918C102.583 435.933 104.985 437.462 106.997 439.413C109.009 441.363 110.633 443.726 111.732 446.324C112.279 447.623 112.703 448.976 112.981 450.361C113.258 451.745 113.398 453.155 113.403 454.563C113.398 455.972 113.258 457.382 112.981 458.766C112.704 460.15 112.279 461.504 111.732 462.803C110.633 465.401 109.009 467.764 106.997 469.714C104.985 471.665 102.583 473.194 99.9924 474.208C97.399 475.221 94.6119 475.691 91.8635 475.625C89.1135 475.558 86.3842 474.944 83.8877 473.839C81.3852 472.743 79.1255 471.144 77.2445 469.199C75.364 467.251 73.8648 464.948 72.8549 462.446C71.8435 459.946 71.3221 457.252 71.3262 454.563C71.3221 451.875 71.8435 449.18 72.8549 446.68ZM74.4972 458.027C74.7363 459.165 75.1039 460.276 75.5757 461.343C76.5242 463.476 77.9287 465.419 79.6681 467.019C81.4074 468.619 83.4817 469.865 85.7073 470.688C87.937 471.507 90.323 471.879 92.6882 471.814C97.426 471.69 101.978 469.717 105.17 466.504C106.772 464.906 108.045 463.023 108.901 460.986C109.757 458.95 110.2 456.763 110.197 454.563C110.2 452.364 109.757 450.177 108.901 448.14C108.045 446.103 106.772 444.22 105.17 442.623C101.978 439.41 97.426 437.436 92.6882 437.313C90.323 437.248 87.9371 437.619 85.7073 438.439C83.4816 439.261 81.4074 440.507 79.6681 442.108C77.9287 443.707 76.5242 445.65 75.5757 447.783C75.1039 448.85 74.7363 449.962 74.4972 451.1C74.2579 452.238 74.1363 453.399 74.1313 454.563C74.1363 455.727 74.2579 456.889 74.4972 458.027Z" fill="white"/>
<g opacity="0.88">
<path d="M86.5363 446.586C86.4713 446.594 86.4082 446.609 86.3476 446.63C86.1735 446.689 86.0204 446.799 85.9051 446.948C85.5846 447.363 85.6612 447.961 86.0757 448.282C86.2765 448.438 86.5258 448.505 86.7776 448.473C87.0293 448.441 87.2534 448.312 87.4088 448.111C87.7292 447.696 87.6526 447.098 87.2382 446.777C87.0374 446.621 86.7881 446.554 86.5363 446.586Z" fill="white"/>
<path d="M91.5482 444.515L90.7458 443.491C90.7224 443.461 90.6826 443.45 90.6467 443.462L89.6237 443.817C89.2173 443.491 88.7662 443.24 88.2911 443.067L88.063 442.006C88.055 441.969 88.0243 441.941 87.9866 441.937L86.6965 441.781C86.6587 441.776 86.6223 441.796 86.6058 441.831L86.1326 442.806C85.6298 442.862 85.1322 442.998 84.66 443.218L83.7505 442.63C83.7185 442.609 83.6772 442.611 83.6473 442.635L82.6251 443.438C82.5952 443.461 82.5836 443.501 82.596 443.537L82.9502 444.561C82.6248 444.968 82.3743 445.42 82.2007 445.896L81.1418 446.124C81.1047 446.132 81.0767 446.163 81.0722 446.2L80.9167 447.492C80.9121 447.53 80.932 447.566 80.9662 447.583L81.9407 448.056C81.9962 448.56 82.1325 449.058 82.352 449.531L81.7648 450.441C81.7442 450.473 81.7461 450.515 81.7695 450.544L82.5719 451.568C82.5953 451.598 82.6352 451.609 82.671 451.597L83.694 451.242C84.1004 451.568 84.5515 451.819 85.0267 451.993L85.2548 453.053C85.2628 453.09 85.2935 453.118 85.3311 453.123L86.6212 453.278C86.6589 453.283 86.6954 453.263 86.7119 453.229L87.1851 452.253C87.6879 452.197 88.1855 452.061 88.6576 451.841L89.5671 452.429C89.599 452.45 89.6404 452.448 89.6703 452.424L90.6925 451.621C90.7224 451.598 90.734 451.558 90.7216 451.522L90.3674 450.498C90.6928 450.091 90.9433 449.64 91.1169 449.164L92.1759 448.936C92.2131 448.928 92.241 448.897 92.2455 448.859L92.401 447.568C92.4056 447.53 92.3857 447.493 92.3515 447.477L91.377 447.003C91.3214 446.5 91.1852 446.001 90.9657 445.529L91.5529 444.618C91.5735 444.586 91.5716 444.545 91.5482 444.515ZM89.5414 446.34C89.4407 446.389 89.3185 446.347 89.2693 446.246C89.1784 446.059 89.0668 445.881 88.9377 445.716C88.4542 445.1 87.7597 444.708 86.9822 444.614C86.2046 444.521 85.4374 444.736 84.821 445.22C84.205 445.704 83.8141 446.399 83.7204 447.177C83.6668 447.623 83.7142 448.065 83.8551 448.477C83.9605 448.786 84.1181 449.077 84.3249 449.341C84.8085 449.958 85.5029 450.349 86.2804 450.443C87.0578 450.536 87.8253 450.322 88.4416 449.838C88.8597 449.509 89.1805 449.074 89.3691 448.58C89.4092 448.475 89.5269 448.422 89.632 448.462C89.6906 448.485 89.7329 448.532 89.7518 448.587C89.7668 448.63 89.7671 448.679 89.7494 448.726C89.5344 449.289 89.169 449.784 88.6928 450.158C88.3924 450.394 88.0604 450.574 87.7094 450.694C87.2406 450.855 86.7382 450.909 86.2317 450.847C85.3461 450.741 84.5553 450.295 84.0046 449.592C83.7691 449.292 83.5896 448.96 83.4696 448.609C83.309 448.14 83.2551 447.636 83.3162 447.129C83.4229 446.242 83.8681 445.45 84.5698 444.899C85.2713 444.348 86.1453 444.103 87.0308 444.21C87.9164 444.317 88.7071 444.762 89.2578 445.465C89.2679 445.478 89.2778 445.491 89.2877 445.504C89.3987 445.649 89.4976 445.804 89.583 445.965C89.5833 445.965 89.5834 445.966 89.5837 445.966C89.5898 445.977 89.5957 445.989 89.6016 446C89.6037 446.005 89.6059 446.009 89.6081 446.013C89.6174 446.031 89.6264 446.049 89.6353 446.068C89.6391 446.076 89.6422 446.083 89.645 446.091C89.6778 446.187 89.6347 446.294 89.5414 446.34ZM87.7328 448.361C87.5645 448.579 87.3426 448.731 87.0999 448.814C86.6824 448.957 86.2032 448.894 85.8287 448.605C85.2365 448.146 85.1272 447.291 85.585 446.699C85.8068 446.411 86.1268 446.228 86.4865 446.182C86.8461 446.136 87.2022 446.232 87.4891 446.454C88.0812 446.913 88.1906 447.768 87.7328 448.361Z" fill="white"/>
</g>
<g opacity="0.97">
<path d="M96.389 456.863C96.2867 456.842 96.1839 456.832 96.0819 456.832C95.7884 456.832 95.5011 456.918 95.2504 457.083C94.5532 457.544 94.3603 458.487 94.8204 459.185C95.0433 459.523 95.3845 459.754 95.781 459.835C96.1771 459.917 96.5815 459.838 96.9196 459.615C97.6168 459.155 97.8097 458.212 97.3496 457.514C97.1267 457.176 96.7855 456.945 96.389 456.863Z" fill="white"/>
<path d="M105.013 456.325L104.33 454.367C104.31 454.31 104.256 454.272 104.196 454.272L102.47 454.279C102.024 453.577 101.473 452.966 100.846 452.459L101.048 450.741C101.055 450.681 101.023 450.623 100.968 450.597L99.1022 449.696C99.0476 449.67 98.9825 449.681 98.9399 449.724L97.7234 450.951C96.9361 450.776 96.1152 450.725 95.2897 450.812L94.2203 449.456C94.1827 449.408 94.1192 449.39 94.062 449.41L92.1061 450.094C92.049 450.114 92.0108 450.168 92.011 450.229L92.0179 451.957C91.3174 452.402 90.7068 452.954 90.2 453.582L88.4846 453.38C88.4245 453.373 88.3665 453.405 88.3402 453.459L87.4403 455.328C87.4139 455.382 87.4252 455.448 87.4681 455.49L88.6944 456.708C88.5189 457.496 88.4677 458.318 88.5555 459.145L87.2005 460.215C87.1529 460.253 87.1345 460.316 87.1544 460.373L87.8376 462.332C87.8575 462.389 87.9116 462.427 87.9721 462.427L89.6982 462.42C90.1435 463.121 90.6947 463.733 91.3222 464.24L91.1201 465.957C91.1129 466.017 91.1448 466.076 91.1994 466.102L93.0655 467.003C93.12 467.029 93.1853 467.018 93.2279 466.975L94.4443 465.747C95.2317 465.923 96.0526 465.974 96.8781 465.886L97.9475 467.243C97.9849 467.291 98.0485 467.309 98.1057 467.289L100.062 466.605C100.119 466.585 100.157 466.531 100.157 466.47L100.15 464.742C100.85 464.297 101.461 463.745 101.968 463.117L103.683 463.319C103.743 463.326 103.801 463.294 103.828 463.24L104.728 461.371C104.754 461.317 104.743 461.251 104.7 461.209L103.473 459.991C103.649 459.203 103.7 458.381 103.612 457.554L104.967 456.484C105.015 456.446 105.033 456.382 105.013 456.325ZM101.046 458.043C100.868 458.065 100.706 457.939 100.683 457.761C100.643 457.432 100.566 457.105 100.456 456.79C100.044 455.61 99.1981 454.661 98.0734 454.118C96.9486 453.575 95.6804 453.503 94.5012 453.915C93.3225 454.328 92.3746 455.175 91.8321 456.3C91.5218 456.945 91.3654 457.636 91.3658 458.331C91.366 458.851 91.4536 459.372 91.6296 459.877C92.0415 461.057 92.8876 462.006 94.0122 462.549C95.1368 463.091 96.4054 463.163 97.5844 462.752C98.3847 462.472 99.0926 461.981 99.6317 461.333C99.7464 461.195 99.951 461.177 100.089 461.291C100.166 461.356 100.205 461.448 100.206 461.541C100.206 461.614 100.181 461.688 100.131 461.749C99.5162 462.487 98.7097 463.046 97.7986 463.365C97.2239 463.566 96.6302 463.666 96.0388 463.666C95.2488 463.666 94.4631 463.488 93.7304 463.134C92.4495 462.516 91.4859 461.435 91.0171 460.091C90.8165 459.516 90.7166 458.922 90.7165 458.331C90.7162 457.54 90.8941 456.752 91.2477 456.018C91.8654 454.736 92.9449 453.771 94.2875 453.302C95.6299 452.832 97.0747 452.914 98.3555 453.533C99.6364 454.151 100.6 455.232 101.069 456.576C101.077 456.6 101.086 456.625 101.094 456.649C101.186 456.927 101.256 457.211 101.302 457.498C101.302 457.499 101.302 457.499 101.302 457.5C101.305 457.52 101.308 457.541 101.311 457.561C101.313 457.569 101.314 457.576 101.315 457.584C101.319 457.616 101.324 457.648 101.328 457.68C101.329 457.694 101.33 457.707 101.33 457.721C101.33 457.882 101.21 458.022 101.046 458.043ZM97.276 460.157C96.9097 460.4 96.4963 460.515 96.0873 460.515C95.3839 460.515 94.6933 460.173 94.2776 459.543C93.6203 458.545 93.8959 457.199 94.8919 456.541C95.3745 456.222 95.9519 456.111 96.5182 456.227C97.0846 456.343 97.5719 456.673 97.8902 457.156C98.5476 458.153 98.272 459.5 97.276 460.157Z" fill="white"/>
</g>
<path d="M256.198 247.958L189.58 252.051C182.712 252.474 176.975 257.272 175.606 263.74L165.955 309.313L286.923 301.879L271.469 257.77C269.293 251.558 263.035 247.537 256.198 247.958Z" fill="url(#paint5_linear_519_3362)"/>
<path d="M256.798 521.41L190.108 518.756C183.232 518.483 177.393 513.809 175.884 507.372L165.254 462.019L286.354 466.838L271.854 511.27C269.812 517.527 263.642 521.683 256.798 521.41Z" fill="url(#paint6_linear_519_3362)"/>
<path d="M279.121 477.423L168.905 478.614C160.164 478.708 153.001 471.691 152.907 462.939L151.333 316.897C151.24 308.302 158.01 301.2 166.591 300.89L280.771 296.775C289.831 296.449 297.313 303.792 297.167 312.866L294.777 461.833C294.639 470.417 287.697 477.331 279.121 477.423Z" fill="url(#paint7_linear_519_3362)"/>
<path d="M168.869 475.258C161.99 475.333 156.332 469.79 156.258 462.903L154.684 316.861C154.611 310.032 159.894 304.49 166.711 304.244L280.892 300.129C280.999 300.125 281.107 300.123 281.215 300.122C284.605 300.085 287.791 301.393 290.187 303.804C292.581 306.213 293.87 309.412 293.815 312.812L291.425 461.779C291.316 468.596 285.895 473.994 279.085 474.068L168.869 475.258Z" fill="url(#paint8_linear_519_3362)"/>
<path d="M168.759 465.192C167.424 465.206 166.327 464.131 166.312 462.795L164.738 316.752C164.724 315.383 165.705 314.354 167.072 314.305L281.322 310.188C281.994 310.181 282.578 310.422 283.056 310.903C283.534 311.384 283.77 311.971 283.759 312.65L281.369 461.617C281.347 462.984 280.34 463.986 278.975 464.001L168.759 465.192Z" fill="#EAEFF8"/>
<path d="M196.713 451.53C199.429 453.298 200.199 456.936 198.432 459.655C196.666 462.373 193.032 463.144 190.317 461.375C187.601 459.607 186.831 455.97 188.598 453.251C190.364 450.532 193.998 449.762 196.713 451.53Z" fill="url(#paint9_linear_519_3362)"/>
<path d="M214.805 462.177C218.045 462.177 220.671 459.547 220.671 456.304C220.671 453.061 218.045 450.432 214.805 450.432C211.566 450.432 208.939 453.061 208.939 456.304C208.939 459.547 211.566 462.177 214.805 462.177Z" fill="url(#paint10_linear_519_3362)"/>
<path d="M239.293 451.233C242.009 453.002 242.779 456.639 241.012 459.358C239.246 462.077 235.613 462.847 232.897 461.079C230.181 459.311 229.411 455.673 231.178 452.954C232.944 450.235 236.578 449.465 239.293 451.233Z" fill="url(#paint11_linear_519_3362)"/>
<path d="M257.384 461.88C260.623 461.88 263.249 459.251 263.249 456.007C263.249 452.764 260.623 450.135 257.384 450.135C254.144 450.135 251.518 452.764 251.518 456.007C251.518 459.251 254.144 461.88 257.384 461.88Z" fill="url(#paint12_linear_519_3362)"/>
<path d="M210.353 261.046C210.083 261.046 209.856 260.836 209.837 260.563C209.818 260.277 210.034 260.03 210.319 260.011L215.435 259.668C215.714 259.648 215.966 259.865 215.986 260.15C216.005 260.436 215.789 260.682 215.504 260.702L210.388 261.045C210.376 261.045 210.364 261.046 210.353 261.046Z" fill="#BDD0FB"/>
<path d="M179.205 293.132C179.18 293.132 179.154 293.131 179.129 293.127C178.846 293.085 178.651 292.822 178.693 292.539L181.923 270.747C182.69 265.577 187.027 261.572 192.235 261.223L204.117 260.426C204.397 260.406 204.648 260.623 204.668 260.908C204.687 261.194 204.471 261.441 204.187 261.46L192.304 262.256C187.577 262.573 183.642 266.208 182.946 270.899L179.716 292.69C179.678 292.948 179.457 293.132 179.205 293.132Z" fill="#BDD0FB"/>
<path d="M267.682 379.091C267.691 384.687 266.605 390.297 264.5 395.501C262.398 400.708 259.277 405.504 255.362 409.559C251.446 413.609 246.742 416.937 241.532 419.218C236.335 421.519 230.654 422.797 224.929 422.936C219.207 423.074 213.405 422.095 208.006 419.987C202.613 417.875 197.613 414.692 193.425 410.63C189.236 406.572 185.854 401.652 183.568 396.245C182.429 393.54 181.545 390.722 180.968 387.84C180.391 384.959 180.1 382.023 180.09 379.091C180.1 376.16 180.391 373.223 180.968 370.342C181.545 367.46 182.429 364.642 183.568 361.938C185.854 356.531 189.236 351.611 193.425 347.552C197.613 343.49 202.614 340.308 208.006 338.195C213.405 336.087 219.207 335.109 224.929 335.246C230.654 335.385 236.335 336.663 241.532 338.965C246.742 341.246 251.446 344.574 255.362 348.624C259.277 352.678 262.398 357.474 264.5 362.681C266.605 367.885 267.691 373.495 267.682 379.091ZM261.843 379.091C261.832 376.668 261.579 374.251 261.081 371.882C260.583 369.512 259.818 367.199 258.836 364.977C256.861 360.536 253.937 356.492 250.317 353.162C246.696 349.83 242.378 347.236 237.745 345.524C233.103 343.818 228.136 343.045 223.212 343.18C213.349 343.437 203.873 347.546 197.228 354.234C193.894 357.56 191.243 361.48 189.461 365.72C187.678 369.96 186.756 374.513 186.764 379.091C186.756 383.67 187.678 388.223 189.461 392.463C191.243 396.703 193.894 400.623 197.228 403.949C203.873 410.637 213.349 414.746 223.212 415.003C228.136 415.138 233.103 414.364 237.745 412.659C242.378 410.947 246.696 408.353 250.317 405.02C253.938 401.691 256.861 397.646 258.836 393.206C259.818 390.984 260.583 388.67 261.081 386.301C261.579 383.932 261.832 381.514 261.843 379.091Z" fill="url(#paint13_linear_519_3362)"/>
<path d="M236.364 358.004C231.392 358.004 226.965 360.614 224.093 364.68C221.222 360.614 216.795 358.004 211.823 358.004C203.167 358.004 196.15 365.907 196.15 375.656C196.15 384.354 211.173 400.294 220.929 406.561C222.839 407.788 225.312 407.68 227.113 406.298C235.506 399.858 252.036 384.235 252.036 375.656C252.036 365.907 245.019 358.004 236.364 358.004Z" fill="url(#paint14_linear_519_3362)"/>
<path d="M225.137 390.494C225.119 390.494 225.101 390.493 225.083 390.493C224.562 390.472 224.097 390.16 223.881 389.684L216.404 373.216L209.054 381.275C208.793 381.561 208.423 381.725 208.036 381.725H190.1C189.338 381.725 188.721 381.106 188.721 380.344C188.721 379.582 189.338 378.963 190.1 378.963H207.427L215.776 369.809C216.089 369.466 216.551 369.302 217.01 369.376C217.468 369.448 217.858 369.746 218.05 370.168L225.257 386.041L232.689 372.577C232.945 372.114 233.446 371.837 233.969 371.867C234.497 371.894 234.962 372.222 235.167 372.71L238.148 379.798H253.917C254.679 379.798 255.296 380.416 255.296 381.179C255.296 381.941 254.679 382.56 253.917 382.56H237.233C236.678 382.56 236.177 382.227 235.962 381.715L233.728 376.404L226.344 389.781C226.101 390.222 225.637 390.494 225.137 390.494Z" fill="white"/>
<path d="M114.825 329.878L115.223 330.83L115.225 330.833C115.262 330.922 115.22 331.025 115.131 331.062C115.042 331.099 114.94 331.057 114.902 330.968C114.902 330.968 114.902 330.966 114.901 330.966L114.516 330.001C114.482 329.916 114.523 329.819 114.608 329.785C114.693 329.751 114.788 329.791 114.823 329.875L114.825 329.878Z" fill="white"/>
<path d="M116.235 333.011L116.705 333.929L116.707 333.933C116.758 334.033 116.719 334.155 116.619 334.207C116.519 334.258 116.397 334.218 116.345 334.118C116.345 334.118 116.344 334.116 116.344 334.115L115.885 333.182C115.838 333.085 115.878 332.969 115.974 332.922C116.069 332.875 116.185 332.913 116.233 333.007L116.235 333.011Z" fill="white"/>
<path d="M117.879 336.028L118.414 336.908L118.416 336.913C118.483 337.022 118.448 337.164 118.339 337.231C118.23 337.298 118.088 337.263 118.021 337.154C118.021 337.153 118.02 337.151 118.019 337.15L117.494 336.253C117.431 336.147 117.467 336.01 117.573 335.948C117.678 335.886 117.813 335.92 117.876 336.024L117.879 336.028Z" fill="white"/>
<path d="M119.735 338.916L120.331 339.755L120.334 339.76C120.417 339.877 120.39 340.039 120.272 340.122C120.156 340.206 119.993 340.178 119.91 340.061C119.909 340.06 119.908 340.058 119.908 340.058L119.319 339.199C119.241 339.085 119.27 338.928 119.384 338.849C119.498 338.772 119.652 338.8 119.731 338.911L119.735 338.916Z" fill="white"/>
<path d="M121.787 341.666L122.438 342.463L122.442 342.468C122.542 342.591 122.524 342.773 122.401 342.874C122.278 342.975 122.096 342.956 121.995 342.833C121.995 342.832 121.993 342.83 121.992 342.829L121.347 342.012C121.252 341.891 121.272 341.715 121.393 341.619C121.513 341.524 121.687 341.543 121.783 341.661L121.787 341.666Z" fill="white"/>
<path d="M124.016 344.273L124.717 345.027L124.721 345.031C124.84 345.159 124.833 345.36 124.705 345.479C124.577 345.598 124.377 345.591 124.257 345.463C124.257 345.462 124.255 345.46 124.254 345.459L123.558 344.685C123.444 344.559 123.454 344.364 123.58 344.25C123.706 344.137 123.898 344.146 124.012 344.268L124.016 344.273Z" fill="white"/>
<path d="M126.407 346.733L127.152 347.442L127.157 347.446C127.295 347.578 127.301 347.797 127.169 347.935C127.038 348.073 126.82 348.079 126.681 347.947C126.681 347.947 126.678 347.944 126.677 347.944L125.935 347.214C125.802 347.083 125.8 346.87 125.93 346.737C126.059 346.606 126.269 346.602 126.402 346.729L126.407 346.733Z" fill="white"/>
<path d="M128.94 349.043L129.724 349.706L129.729 349.71C129.887 349.844 129.907 350.079 129.774 350.237C129.64 350.395 129.405 350.415 129.247 350.282C129.246 350.281 129.243 350.279 129.242 350.278L128.459 349.594C128.307 349.461 128.291 349.231 128.424 349.078C128.555 348.928 128.782 348.911 128.934 349.039L128.94 349.043Z" fill="white"/>
<path d="M131.6 351.201L132.422 351.82L132.427 351.824C132.605 351.957 132.641 352.21 132.507 352.388C132.374 352.565 132.122 352.601 131.944 352.468C131.943 352.467 131.94 352.464 131.939 352.464L131.117 351.824C130.945 351.69 130.914 351.442 131.048 351.271C131.18 351.101 131.423 351.069 131.595 351.197L131.6 351.201Z" fill="white"/>
<path d="M134.379 353.21L135.235 353.783L135.24 353.787C135.438 353.919 135.491 354.187 135.358 354.385C135.226 354.583 134.958 354.636 134.761 354.503C134.76 354.502 134.756 354.5 134.755 354.499L133.898 353.904C133.707 353.771 133.659 353.508 133.792 353.316C133.924 353.126 134.183 353.078 134.374 353.206L134.379 353.21Z" fill="white"/>
<path d="M137.26 355.065L138.142 355.592L138.148 355.596C138.366 355.725 138.437 356.008 138.307 356.226C138.178 356.444 137.896 356.515 137.678 356.385C137.677 356.384 137.673 356.382 137.672 356.381L136.786 355.833C136.574 355.702 136.509 355.424 136.64 355.212C136.769 355.002 137.042 354.936 137.253 355.061L137.26 355.065Z" fill="white"/>
<path d="M140.233 356.766L141.142 357.247L141.149 357.251C141.387 357.377 141.478 357.672 141.352 357.91C141.227 358.148 140.932 358.24 140.694 358.114C140.692 358.113 140.688 358.111 140.686 358.11L139.772 357.607C139.54 357.48 139.455 357.188 139.583 356.956C139.709 356.726 139.995 356.641 140.226 356.763L140.233 356.766Z" fill="white"/>
<path d="M143.287 358.313L144.218 358.747L144.225 358.75C144.483 358.87 144.595 359.177 144.475 359.436C144.355 359.695 144.048 359.807 143.79 359.687C143.788 359.686 143.784 359.684 143.782 359.683L142.845 359.228C142.592 359.106 142.487 358.802 142.61 358.549C142.731 358.3 143.029 358.194 143.28 358.31L143.287 358.313Z" fill="white"/>
<path d="M146.416 359.706L147.366 360.096L147.373 360.099C147.651 360.213 147.784 360.531 147.67 360.81C147.556 361.088 147.238 361.222 146.96 361.108C146.958 361.107 146.954 361.105 146.952 361.104L145.995 360.693C145.723 360.576 145.597 360.261 145.713 359.988C145.829 359.719 146.139 359.593 146.409 359.703L146.416 359.706Z" fill="white"/>
<path d="M149.604 360.957L150.571 361.305L150.577 361.307C150.875 361.414 151.03 361.743 150.923 362.041C150.815 362.339 150.487 362.494 150.189 362.387C150.187 362.386 150.182 362.384 150.181 362.384L149.206 362.014C148.915 361.904 148.768 361.578 148.879 361.286C148.988 360.997 149.308 360.85 149.597 360.954L149.604 360.957Z" fill="white"/>
<path d="M152.842 362.07L153.822 362.378L153.829 362.38C154.146 362.48 154.322 362.818 154.222 363.135C154.123 363.452 153.785 363.629 153.468 363.529C153.466 363.528 153.461 363.527 153.459 363.526L152.47 363.197C152.16 363.094 151.992 362.758 152.095 362.447C152.197 362.139 152.527 361.971 152.835 362.068L152.842 362.07Z" fill="white"/>
<path d="M156.122 363.053L157.113 363.323L157.12 363.325C157.455 363.416 157.653 363.763 157.562 364.099C157.47 364.435 157.124 364.633 156.789 364.542C156.786 364.541 156.781 364.54 156.778 364.539L155.778 364.248C155.449 364.153 155.259 363.808 155.355 363.478C155.45 363.151 155.788 362.962 156.114 363.051L156.122 363.053Z" fill="white"/>
<path d="M159.439 363.911L160.44 364.146L160.447 364.148C160.801 364.231 161.02 364.585 160.937 364.94C160.854 365.294 160.5 365.514 160.146 365.431C160.144 365.431 160.138 365.429 160.136 365.429L159.126 365.174C158.778 365.086 158.567 364.733 158.655 364.384C158.741 364.04 159.088 363.829 159.432 363.91L159.439 363.911Z" fill="white"/>
<path d="M162.782 364.654L163.79 364.856L163.797 364.857C164.168 364.931 164.41 365.293 164.336 365.666C164.262 366.038 163.9 366.28 163.528 366.206C163.525 366.205 163.519 366.204 163.517 366.203L162.5 365.983C162.133 365.903 161.901 365.542 161.98 365.175C162.059 364.813 162.413 364.581 162.775 364.653L162.782 364.654Z" fill="white"/>
<path d="M166.148 365.289L167.161 365.459L167.167 365.46C167.557 365.525 167.82 365.894 167.754 366.284C167.689 366.674 167.32 366.937 166.931 366.872C166.928 366.872 166.922 366.87 166.919 366.87L165.897 366.681C165.513 366.61 165.259 366.241 165.33 365.857C165.4 365.476 165.762 365.224 166.141 365.287L166.148 365.289Z" fill="white"/>
<path d="M169.534 365.821L170.552 365.963L170.558 365.964C170.965 366.02 171.249 366.396 171.193 366.804C171.136 367.211 170.761 367.495 170.354 367.439C170.351 367.438 170.344 367.437 170.342 367.437L169.314 367.277C168.912 367.214 168.638 366.838 168.7 366.436C168.762 366.039 169.131 365.766 169.527 365.82L169.534 365.821Z" fill="white"/>
<path d="M172.933 366.262L173.956 366.377L173.962 366.378C174.385 366.426 174.69 366.808 174.643 367.233C174.595 367.657 174.213 367.962 173.789 367.915C173.786 367.914 173.779 367.913 173.776 367.913L172.744 367.779C172.326 367.725 172.03 367.342 172.085 366.923C172.138 366.509 172.513 366.215 172.926 366.261L172.933 366.262Z" fill="white"/>
<path d="M176.344 366.617L177.37 366.709L177.376 366.709C177.816 366.748 178.142 367.137 178.102 367.578C178.063 368.019 177.674 368.345 177.234 368.306C177.231 368.306 177.224 368.305 177.221 368.305L176.186 368.195C175.751 368.149 175.435 367.759 175.481 367.324C175.526 366.893 175.908 366.579 176.338 366.617L176.344 366.617Z" fill="white"/>
<path d="M179.766 366.895L180.794 366.964L180.799 366.965C181.255 366.996 181.601 367.391 181.57 367.849C181.539 368.306 181.144 368.652 180.687 368.621C180.684 368.621 180.677 368.62 180.674 368.62L179.637 368.533C179.185 368.495 178.85 368.098 178.888 367.646C178.925 367.198 179.314 366.865 179.76 366.895L179.766 366.895Z" fill="white"/>
<path d="M183.193 367.102L184.222 367.152L184.227 367.152C184.7 367.175 185.065 367.577 185.042 368.051C185.019 368.524 184.617 368.89 184.144 368.867C184.141 368.867 184.133 368.866 184.13 368.866L183.093 368.799C182.625 368.769 182.27 368.365 182.301 367.896C182.33 367.433 182.726 367.08 183.188 367.102L183.193 367.102Z" fill="white"/>
<path d="M96.3411 382.604L97.3502 382.821L97.3524 382.822C97.5783 382.87 97.722 383.093 97.6735 383.319C97.6248 383.545 97.4024 383.689 97.1765 383.641C97.1759 383.64 97.1728 383.64 97.172 383.64L96.1611 383.41C95.9391 383.359 95.7998 383.138 95.8501 382.916C95.9002 382.695 96.1184 382.556 96.3388 382.603L96.3411 382.604Z" fill="white"/>
<path d="M99.7089 383.307L100.722 383.506L100.724 383.507C100.961 383.553 101.116 383.784 101.069 384.021C101.022 384.258 100.792 384.413 100.555 384.366C100.554 384.366 100.551 384.366 100.55 384.366L99.5353 384.154C99.3018 384.105 99.152 383.876 99.2006 383.643C99.2487 383.411 99.4745 383.261 99.7063 383.306L99.7089 383.307Z" fill="white"/>
<path d="M103.087 383.95L104.103 384.131L104.106 384.131C104.354 384.176 104.52 384.413 104.476 384.662C104.432 384.911 104.194 385.077 103.946 385.032C103.945 385.032 103.941 385.032 103.941 385.031L102.922 384.838C102.677 384.792 102.516 384.555 102.563 384.31C102.609 384.067 102.842 383.906 103.085 383.949L103.087 383.95Z" fill="white"/>
<path d="M106.479 384.532L107.498 384.695L107.501 384.696C107.76 384.737 107.938 384.982 107.896 385.242C107.854 385.502 107.61 385.68 107.35 385.638C107.349 385.638 107.346 385.637 107.345 385.637L106.323 385.462C106.067 385.418 105.895 385.174 105.938 384.918C105.982 384.663 106.222 384.491 106.476 384.532L106.479 384.532Z" fill="white"/>
<path d="M109.88 385.055L110.901 385.199L110.904 385.2C111.175 385.238 111.364 385.489 111.325 385.761C111.287 386.032 111.036 386.221 110.765 386.183C110.764 386.183 110.76 386.182 110.759 386.182L109.734 386.025C109.467 385.984 109.283 385.734 109.324 385.466C109.365 385.2 109.611 385.017 109.877 385.054L109.88 385.055Z" fill="white"/>
<path d="M113.286 385.516L114.31 385.643L114.312 385.643C114.595 385.678 114.795 385.936 114.76 386.218C114.726 386.501 114.468 386.702 114.186 386.667C114.185 386.667 114.181 386.666 114.18 386.666L113.152 386.527C112.873 386.489 112.678 386.233 112.716 385.954C112.753 385.676 113.006 385.482 113.283 385.516L113.286 385.516Z" fill="white"/>
<path d="M116.703 385.917L117.729 386.026L117.731 386.026C118.025 386.057 118.238 386.321 118.207 386.615C118.176 386.909 117.913 387.122 117.619 387.091C117.618 387.091 117.614 387.091 117.613 387.09L116.583 386.97C116.293 386.935 116.085 386.673 116.119 386.382C116.153 386.094 116.412 385.887 116.7 385.917L116.703 385.917Z" fill="white"/>
<path d="M120.123 386.258L121.15 386.349L121.153 386.349C121.458 386.376 121.683 386.645 121.657 386.95C121.63 387.256 121.361 387.481 121.056 387.454C121.055 387.454 121.051 387.454 121.05 387.454L120.018 387.351C119.716 387.321 119.496 387.052 119.526 386.751C119.556 386.451 119.821 386.232 120.119 386.258H120.123Z" fill="white"/>
<path d="M123.552 386.539L124.581 386.611L124.584 386.612C124.9 386.634 125.138 386.908 125.116 387.225C125.093 387.541 124.819 387.779 124.503 387.757C124.502 387.757 124.498 387.757 124.497 387.757L123.463 387.672C123.15 387.647 122.918 387.372 122.943 387.06C122.969 386.749 123.239 386.517 123.549 386.539L123.552 386.539Z" fill="white"/>
<path d="M126.982 386.759L128.012 386.813L128.015 386.814C128.342 386.831 128.594 387.11 128.576 387.438C128.559 387.765 128.28 388.017 127.953 387.999C127.952 387.999 127.948 387.999 127.946 387.999L126.911 387.933C126.587 387.912 126.342 387.633 126.363 387.308C126.383 386.987 126.658 386.742 126.979 386.759L126.982 386.759Z" fill="white"/>
<path d="M130.416 386.919L131.447 386.955H131.45C131.788 386.967 132.052 387.251 132.04 387.59C132.028 387.928 131.745 388.193 131.407 388.181C131.406 388.181 131.401 388.181 131.4 388.181L130.364 388.132C130.029 388.117 129.77 387.833 129.786 387.498C129.801 387.165 130.081 386.907 130.413 386.919L130.416 386.919Z" fill="white"/>
<path d="M133.851 387.018L134.882 387.037H134.885C135.234 387.043 135.512 387.331 135.506 387.68C135.5 388.029 135.212 388.308 134.863 388.302C134.862 388.302 134.857 388.301 134.856 388.301L133.819 388.272C133.473 388.262 133.201 387.973 133.211 387.627C133.221 387.284 133.505 387.013 133.847 387.018H133.851Z" fill="white"/>
<path d="M137.287 387.058H138.318H138.322C138.682 387.058 138.973 387.35 138.973 387.71C138.973 388.07 138.682 388.362 138.322 388.362C138.321 388.362 138.316 388.362 138.315 388.362L137.277 388.35C136.92 388.346 136.635 388.054 136.639 387.697C136.643 387.343 136.931 387.058 137.284 387.058H137.287Z" fill="white"/>
<path d="M140.723 387.036L141.754 387.018H141.757C142.128 387.012 142.433 387.307 142.44 387.678C142.446 388.049 142.151 388.354 141.781 388.361C141.78 388.361 141.775 388.361 141.773 388.361L140.735 388.368C140.368 388.37 140.069 388.074 140.066 387.706C140.064 387.341 140.356 387.043 140.719 387.037L140.723 387.036Z" fill="white"/>
<path d="M144.16 386.955L145.19 386.919L145.194 386.919C145.575 386.906 145.894 387.204 145.908 387.585C145.921 387.966 145.623 388.286 145.242 388.3C145.241 388.3 145.236 388.3 145.234 388.3L144.197 388.325C143.819 388.334 143.505 388.034 143.496 387.656C143.487 387.281 143.782 386.969 144.156 386.955L144.16 386.955Z" fill="white"/>
<path d="M147.592 386.813L148.622 386.759L148.625 386.759C149.017 386.738 149.351 387.039 149.371 387.431C149.392 387.822 149.091 388.157 148.7 388.177C148.699 388.177 148.694 388.178 148.692 388.178L147.655 388.221C147.266 388.237 146.939 387.935 146.922 387.546C146.907 387.16 147.204 386.834 147.588 386.813L147.592 386.813Z" fill="white"/>
<path d="M151.024 386.611L152.052 386.539L152.056 386.538C152.457 386.51 152.806 386.813 152.834 387.215C152.862 387.617 152.56 387.966 152.158 387.994C152.157 387.994 152.151 387.995 152.15 387.995L151.113 388.056C150.715 388.08 150.373 387.775 150.349 387.376C150.326 386.98 150.625 386.64 151.02 386.612L151.024 386.611Z" fill="white"/>
<path d="M154.447 386.348L155.474 386.258L155.477 386.258C155.889 386.221 156.252 386.526 156.288 386.938C156.325 387.35 156.02 387.714 155.609 387.75C155.607 387.75 155.602 387.751 155.6 387.751L154.565 387.83C154.156 387.862 153.799 387.555 153.768 387.146C153.737 386.74 154.038 386.384 154.443 386.349L154.447 386.348Z" fill="white"/>
<path d="M157.867 386.025L158.892 385.917L158.896 385.916C159.318 385.872 159.696 386.178 159.74 386.6C159.785 387.022 159.479 387.4 159.058 387.445C159.056 387.445 159.051 387.446 159.049 387.446L158.015 387.544C157.596 387.584 157.225 387.276 157.185 386.856C157.146 386.44 157.449 386.07 157.863 386.026L157.867 386.025Z" fill="white"/>
<path d="M161.279 385.642L162.302 385.516L162.306 385.515C162.737 385.462 163.13 385.768 163.184 386.2C163.237 386.632 162.931 387.026 162.499 387.079C162.498 387.079 162.492 387.08 162.49 387.08L161.458 387.196C161.03 387.245 160.643 386.936 160.595 386.507C160.547 386.08 160.851 385.696 161.275 385.643L161.279 385.642Z" fill="white"/>
<path d="M164.685 385.198L165.705 385.054L165.709 385.053C166.15 384.99 166.558 385.298 166.621 385.739C166.683 386.181 166.377 386.589 165.936 386.652C165.934 386.652 165.928 386.653 165.926 386.653L164.897 386.788C164.458 386.845 164.056 386.535 163.999 386.096C163.942 385.661 164.247 385.261 164.68 385.199L164.685 385.198Z" fill="white"/>
<path d="M168.082 384.695L169.099 384.532L169.103 384.531C169.554 384.459 169.977 384.766 170.049 385.217C170.121 385.668 169.815 386.092 169.364 386.164C169.363 386.164 169.357 386.165 169.355 386.166L168.327 386.318C167.879 386.385 167.462 386.075 167.396 385.627C167.33 385.181 167.634 384.767 168.077 384.695L168.082 384.695Z" fill="white"/>
<path d="M171.468 384.13L172.482 383.949L172.486 383.949C172.946 383.867 173.385 384.173 173.467 384.633C173.549 385.093 173.243 385.533 172.783 385.615C172.782 385.615 172.775 385.616 172.774 385.617L171.749 385.788C171.292 385.864 170.859 385.555 170.783 385.097C170.707 384.642 171.011 384.212 171.463 384.131L171.468 384.13Z" fill="white"/>
<path d="M174.843 383.506L175.358 383.406L175.36 383.405C175.827 383.314 176.28 383.619 176.371 384.086C176.463 384.554 176.158 385.007 175.691 385.099C175.689 385.099 175.683 385.1 175.681 385.101L175.161 385.197C174.694 385.282 174.246 384.973 174.161 384.506C174.076 384.043 174.379 383.597 174.84 383.507L174.843 383.506Z" fill="white"/>
<path d="M113.698 432.309L114.473 431.62C114.682 431.434 115.003 431.453 115.188 431.663C115.374 431.872 115.355 432.193 115.146 432.378C115.145 432.379 115.144 432.38 115.143 432.381L115.139 432.384L114.36 433.06L114.358 433.063C114.149 433.244 113.833 433.221 113.651 433.012C113.472 432.805 113.493 432.491 113.698 432.309Z" fill="white"/>
<path d="M116.3 430.029L117.088 429.355C117.31 429.166 117.642 429.192 117.831 429.413C118.019 429.635 117.993 429.967 117.772 430.157C117.772 430.157 117.771 430.158 117.77 430.159L117.765 430.162L116.973 430.824L116.971 430.826C116.75 431.01 116.422 430.98 116.238 430.759C116.055 430.54 116.083 430.214 116.3 430.029Z" fill="white"/>
<path d="M118.943 427.799L119.743 427.139C119.976 426.947 120.321 426.981 120.513 427.214C120.704 427.448 120.671 427.792 120.438 427.984C120.437 427.985 120.436 427.985 120.435 427.986L120.431 427.99L119.627 428.636L119.625 428.638C119.392 428.825 119.052 428.788 118.865 428.555C118.68 428.324 118.715 427.987 118.943 427.799Z" fill="white"/>
<path d="M121.624 425.617L122.437 424.972C122.682 424.777 123.038 424.818 123.232 425.064C123.427 425.309 123.386 425.666 123.141 425.86C123.14 425.861 123.139 425.862 123.138 425.862L123.133 425.866L122.318 426.498L122.315 426.5C122.071 426.69 121.719 426.645 121.529 426.4C121.341 426.157 121.384 425.808 121.624 425.617Z" fill="white"/>
<path d="M124.347 423.482L125.171 422.851C125.428 422.654 125.796 422.703 125.993 422.96C126.19 423.218 126.141 423.586 125.883 423.783C125.883 423.784 125.882 423.785 125.881 423.785L125.876 423.789L125.049 424.407L125.047 424.409C124.79 424.601 124.426 424.548 124.234 424.291C124.044 424.036 124.095 423.675 124.347 423.482Z" fill="white"/>
<path d="M127.105 421.395L127.94 420.779C128.209 420.579 128.589 420.637 128.788 420.907C128.987 421.176 128.929 421.556 128.66 421.755C128.659 421.756 128.658 421.757 128.657 421.757L128.652 421.761L127.815 422.364L127.812 422.366C127.543 422.56 127.168 422.499 126.974 422.23C126.782 421.963 126.841 421.59 127.105 421.395Z" fill="white"/>
<path d="M129.903 419.357L130.749 418.755C131.031 418.554 131.422 418.62 131.622 418.902C131.823 419.184 131.756 419.576 131.475 419.777C131.474 419.777 131.473 419.778 131.472 419.779L131.466 419.782L130.619 420.371L130.616 420.373C130.335 420.568 129.948 420.498 129.753 420.217C129.559 419.937 129.627 419.553 129.903 419.357Z" fill="white"/>
<path d="M132.734 417.368L133.59 416.781C133.885 416.58 134.287 416.655 134.488 416.95C134.69 417.245 134.615 417.647 134.32 417.849C134.319 417.85 134.318 417.85 134.317 417.851L134.311 417.855L133.453 418.428L133.451 418.43C133.156 418.626 132.759 418.547 132.563 418.253C132.368 417.961 132.445 417.566 132.734 417.368Z" fill="white"/>
<path d="M135.602 415.43L136.47 414.859C136.777 414.657 137.19 414.743 137.392 415.05C137.594 415.358 137.509 415.772 137.201 415.974C137.2 415.975 137.199 415.975 137.198 415.976L137.192 415.98L136.324 416.537L136.321 416.539C136.014 416.736 135.606 416.646 135.409 416.339C135.214 416.034 135.301 415.629 135.602 415.43Z" fill="white"/>
<path d="M138.505 413.547L139.383 412.992C139.704 412.79 140.127 412.886 140.329 413.207C140.531 413.528 140.435 413.952 140.115 414.154C140.114 414.155 140.112 414.156 140.111 414.156L140.105 414.16L139.227 414.7L139.223 414.702C138.904 414.899 138.485 414.799 138.288 414.479C138.093 414.161 138.19 413.745 138.505 413.547Z" fill="white"/>
<path d="M141.444 411.719L142.334 411.182C142.668 410.981 143.101 411.088 143.303 411.422C143.504 411.757 143.396 412.191 143.063 412.393C143.061 412.393 143.06 412.394 143.059 412.395L143.052 412.399L142.164 412.921L142.16 412.923C141.826 413.119 141.398 413.007 141.202 412.674C141.008 412.343 141.116 411.917 141.444 411.719Z" fill="white"/>
<path d="M144.428 409.951L145.329 409.433C145.677 409.233 146.12 409.353 146.32 409.701C146.519 410.049 146.399 410.493 146.052 410.693C146.051 410.694 146.049 410.694 146.048 410.695L146.041 410.699L145.142 411.202L145.137 411.205C144.791 411.399 144.352 411.275 144.158 410.927C143.965 410.582 144.087 410.147 144.428 409.951Z" fill="white"/>
<path d="M147.442 408.247L148.355 407.749C148.717 407.552 149.17 407.685 149.367 408.047C149.564 408.41 149.431 408.863 149.069 409.06C149.068 409.061 149.066 409.062 149.065 409.062L149.057 409.067L148.147 409.549L148.143 409.552C147.782 409.743 147.334 409.605 147.143 409.244C146.953 408.885 147.087 408.441 147.442 408.247Z" fill="white"/>
<path d="M150.499 406.612L151.424 406.136C151.8 405.943 152.261 406.091 152.455 406.468C152.648 406.844 152.5 407.306 152.124 407.5C152.122 407.501 152.121 407.501 152.119 407.502L152.111 407.507L151.19 407.967L151.185 407.969C150.81 408.157 150.353 408.005 150.166 407.629C149.98 407.256 150.129 406.803 150.499 406.612Z" fill="white"/>
<path d="M153.598 405.053L154.535 404.601C154.926 404.413 155.396 404.577 155.584 404.968C155.772 405.36 155.608 405.83 155.217 406.018C155.216 406.019 155.214 406.02 155.213 406.02L155.203 406.025L154.272 406.461L154.266 406.463C153.876 406.646 153.412 406.477 153.23 406.087C153.049 405.699 153.214 405.238 153.598 405.053Z" fill="white"/>
<path d="M156.741 403.576L157.692 403.151C158.098 402.969 158.575 403.152 158.756 403.558C158.938 403.965 158.755 404.442 158.349 404.624C158.348 404.624 158.346 404.625 158.345 404.625L158.334 404.63L157.392 405.039L157.385 405.042C156.98 405.218 156.509 405.031 156.334 404.626C156.159 404.223 156.342 403.755 156.741 403.576Z" fill="white"/>
<path d="M159.927 402.192L160.891 401.796C161.313 401.623 161.795 401.825 161.968 402.247C162.141 402.669 161.94 403.152 161.518 403.325C161.516 403.326 161.515 403.326 161.513 403.327L161.501 403.332L160.547 403.711L160.54 403.714C160.119 403.881 159.643 403.674 159.476 403.253C159.31 402.835 159.512 402.362 159.927 402.192Z" fill="white"/>
<path d="M163.158 400.91L164.137 400.547C164.574 400.385 165.061 400.609 165.223 401.048C165.385 401.486 165.161 401.973 164.723 402.135C164.722 402.136 164.72 402.136 164.719 402.137L164.705 402.142L163.74 402.487L163.731 402.49C163.294 402.646 162.814 402.418 162.658 401.981C162.504 401.547 162.727 401.07 163.158 400.91Z" fill="white"/>
<path d="M166.438 399.744L166.869 399.602C167.321 399.452 167.809 399.698 167.958 400.15C168.107 400.603 167.862 401.091 167.41 401.24C167.408 401.241 167.406 401.242 167.405 401.242L167.396 401.245L166.972 401.38L166.967 401.381C166.515 401.525 166.032 401.274 165.888 400.822C165.745 400.372 165.992 399.892 166.438 399.744Z" fill="white"/>
<path d="M284.999 377.336C284.999 377.336 288.274 378.931 288.877 380.764C289.36 382.234 292.982 382.423 293.34 385.315C293.525 386.808 294.629 388.004 296.114 388.232C299.813 388.799 305.515 390.723 306.427 397.153C307.123 402.061 304.624 403.922 302.001 404.567C300.074 405.04 298.794 406.916 299.184 408.863C299.558 410.73 299 412.889 295.768 414.597C288.526 418.423 281.293 405.533 281.293 405.533L279.811 383.027L284.999 377.336Z" fill="url(#paint15_linear_519_3362)"/>
<path d="M245.593 372C245.593 372 260.054 394.898 277.249 399.321C277.249 399.321 273.899 408.875 271.312 409.969C271.312 409.969 250.157 392.297 244.721 375.254L245.593 372Z" fill="url(#paint16_linear_519_3362)"/>
<path d="M314.77 518.457L315.238 522.315C315.327 523.046 315.903 523.625 316.634 523.709C317.869 523.85 319.851 523.995 321.791 523.789C322.642 523.699 323.194 522.836 322.935 522.02C322.462 520.531 321.597 518.296 320.351 516.98H316.077C315.286 516.98 314.674 517.672 314.77 518.457Z" fill="url(#paint17_linear_519_3362)"/>
<path d="M281.294 473.273L280.572 477.522C280.572 477.522 282.988 502.019 283.418 511.818C283.485 513.354 283.088 514.872 282.283 516.181L278.082 523.01L288.758 516.704L288.97 515.399L287.223 512.994L289.512 485.551C289.646 483.939 289.314 482.322 288.555 480.894L286.346 476.741L281.294 473.273Z" fill="url(#paint18_linear_519_3362)"/>
<path d="M277.379 524H280.786C281.424 524 282.025 523.707 282.414 523.201C283.476 521.819 285.677 519.124 286.729 519.053C288.146 518.959 287.964 524 287.964 524H288.758L289.764 517.736C290.017 516.159 289.234 514.598 287.82 513.86C287.82 513.86 287.497 516.257 285.741 517.317C283.985 518.377 278.596 522.175 278.596 522.175C278.596 522.175 277.936 522.081 277.212 522.212C276.137 522.406 276.287 524 277.379 524Z" fill="url(#paint19_linear_519_3362)"/>
<path d="M295.918 475.291C295.918 475.291 310.07 502.167 312.32 508.303C314.57 514.439 315.358 519.558 315.388 520.043C315.435 520.8 316.376 521.527 318.97 521.527C320.309 521.527 320.964 520.989 321.285 520.47C321.559 520.026 321.574 519.471 321.343 519.003C320.524 517.345 317.926 512.044 316.964 509.64C315.815 506.77 313.344 493.762 311.989 489.239C310.634 484.716 309.102 479.81 303.2 475.291C303.2 475.291 299.149 471.319 295.918 475.291Z" fill="url(#paint20_linear_519_3362)"/>
<path d="M286.978 431.254C283.327 415.768 292.575 407.009 292.575 407.009C286.74 401.401 276.107 398.849 276.107 398.849C276.107 398.849 265.962 406.275 267.166 412.087C267.871 415.493 274.297 432.491 274.297 432.491C274.297 432.491 280.239 435.306 286.978 431.254Z" fill="url(#paint21_linear_519_3362)"/>
<path d="M295.07 438.921C293.584 434.441 286.976 431.254 286.976 431.254C280.237 435.306 274.295 432.491 274.295 432.491C274.295 432.491 272.963 437.59 273.882 442.329C274.802 447.068 280.572 477.522 280.572 477.522C289.664 479.366 303.648 475.666 303.648 475.666C297.856 465.373 296.555 443.402 295.07 438.921Z" fill="url(#paint22_linear_519_3362)"/>
<path d="M282.74 388.615L285.708 401.962C285.992 403.138 284.922 402.945 283.734 402.721C281.79 402.354 279.284 401.599 278.447 400.084C278.361 399.93 278.319 399.756 278.295 399.581L277.02 390.326C276.918 389.592 277.315 388.879 277.992 388.579L280.452 387.486C281.4 387.066 282.496 387.607 282.74 388.615Z" fill="url(#paint23_linear_519_3362)"/>
<path d="M292.574 407.009C292.574 407.009 313.289 421.846 295.223 437.437C295.223 437.437 294.534 438.218 293.179 438.623C292.495 438.828 290.471 440.361 289.445 441.16C289.115 441.417 288.638 441.33 288.416 440.975C288.243 440.697 288.222 440.35 288.362 440.053L290.927 434.624C291.639 433.959 292.729 433.912 293.496 434.513C293.985 434.896 294.702 434.736 294.976 434.177C296.373 431.33 299.01 422.955 288.216 413.491C287.81 413.135 287.708 412.547 287.957 412.068C288.715 410.61 290.449 407.713 292.574 407.009Z" fill="url(#paint24_linear_519_3362)"/>
<path d="M277.055 376.448C277.055 376.448 273.895 378.59 272.538 384.043C271.18 389.496 273.386 391.452 275.648 391.332C277.91 391.212 281.189 390.512 284.031 386.6C286.872 382.688 281.196 373.832 277.055 376.448Z" fill="url(#paint25_linear_519_3362)"/>
<path d="M281.164 384.4C281.164 384.4 282.322 376.586 275.842 377.782L274.531 379.147C274.531 379.147 271.359 375.571 274.87 372.868C278.38 370.165 283.251 370.857 285.946 375.778C288.641 380.7 289.619 384.158 287.36 387.216C285.101 390.274 283.402 387.651 283.402 387.651C283.402 387.651 284.438 385.004 283.579 383.869C282.719 382.733 281.61 384.529 281.61 384.529L281.164 384.4Z" fill="url(#paint26_linear_519_3362)"/>
<path d="M282.051 385.07C282.051 385.07 282.622 381.05 284.673 382.199C286.724 383.348 283.934 385.954 282.815 386.841L282.051 385.07Z" fill="url(#paint27_linear_519_3362)"/>
<path d="M245.693 376.714C245.649 377.187 247.404 377.513 247.962 375.5C247.809 374.625 247.536 370.797 246.866 370.202C243.3 367.034 236.941 363.471 236.941 363.471C236.23 364.558 237.163 365.274 237.163 365.274L240.337 367.419C240.006 368.517 239.523 369.487 239.468 370.741C239.427 371.69 239.777 372.619 240.406 373.339C241.038 374.062 241.888 374.995 242.655 375.704C244.106 377.044 245.693 376.714 245.693 376.714Z" fill="url(#paint28_linear_519_3362)"/>
<path d="M243.967 375.154L244.452 374.954C244.388 374.797 242.864 371.091 242.128 370.32C241.848 370.028 241.712 369.777 241.725 369.575C241.731 369.466 241.785 369.358 241.888 369.248L244.456 370.623L245.591 372.402L246.033 372.118L244.825 370.224L241.817 368.614L241.681 368.725C241.376 368.974 241.219 369.241 241.201 369.543C241.179 369.902 241.358 370.275 241.748 370.684C242.303 371.264 243.538 374.107 243.967 375.154Z" fill="url(#paint29_linear_519_3362)"/>
<circle cx="91.5629" cy="98.563" r="47" transform="rotate(-165 91.5629 98.563)" fill="white" fill-opacity="0.1"/>
<circle cx="81.7893" cy="109.921" r="22.5" transform="rotate(-165 81.7893 109.921)" fill="#5C73FE"/>
<circle cx="312.172" cy="129.171" r="19.213" transform="rotate(45 312.172 129.171)" fill="white" fill-opacity="0.1"/>
<circle cx="317.953" cy="127.148" r="9.19769" transform="rotate(45 317.953 127.148)" fill="#5C73FE"/>
<defs>
<linearGradient id="paint0_linear_519_3362" x1="601.129" y1="600.993" x2="348.555" y2="285.01" gradientUnits="userSpaceOnUse">
<stop stop-color="#DAE3FE"/>
<stop offset="1" stop-color="#E9EFFD"/>
</linearGradient>
<linearGradient id="paint1_linear_519_3362" x1="95.2598" y1="505.866" x2="294.09" y2="294.443" gradientUnits="userSpaceOnUse">
<stop stop-color="#DAE3FE"/>
<stop offset="1" stop-color="#E9EFFD"/>
</linearGradient>
<linearGradient id="paint2_linear_519_3362" x1="9.62141" y1="125.405" x2="-48.4241" y2="-114.111" gradientUnits="userSpaceOnUse">
<stop stop-color="#FF928E"/>
<stop offset="1" stop-color="#FE7062"/>
</linearGradient>
<linearGradient id="paint3_linear_519_3362" x1="56.5778" y1="114.026" x2="-1.46767" y2="-125.49" gradientUnits="userSpaceOnUse">
<stop stop-color="#FF928E"/>
<stop offset="1" stop-color="#FE7062"/>
</linearGradient>
<linearGradient id="paint4_linear_519_3362" x1="12.548" y1="124.696" x2="-45.4975" y2="-114.82" gradientUnits="userSpaceOnUse">
<stop stop-color="#FF928E"/>
<stop offset="1" stop-color="#FE7062"/>
</linearGradient>
<linearGradient id="paint5_linear_519_3362" x1="186.471" y1="342.603" x2="271.399" y2="216.471" gradientUnits="userSpaceOnUse">
<stop stop-color="#09005D"/>
<stop offset="1" stop-color="#1A0F91"/>
</linearGradient>
<linearGradient id="paint6_linear_519_3362" x1="185.045" y1="428.296" x2="272.671" y2="552.563" gradientUnits="userSpaceOnUse">
<stop stop-color="#09005D"/>
<stop offset="1" stop-color="#1A0F91"/>
</linearGradient>
<linearGradient id="paint7_linear_519_3362" x1="152.103" y1="388.479" x2="297.972" y2="386.905" gradientUnits="userSpaceOnUse">
<stop stop-color="#09005D"/>
<stop offset="1" stop-color="#1A0F91"/>
</linearGradient>
<linearGradient id="paint8_linear_519_3362" x1="229.009" y1="352.062" x2="260.107" y2="158.779" gradientUnits="userSpaceOnUse">
<stop stop-color="#4F52FF"/>
<stop offset="1" stop-color="#4042E2"/>
</linearGradient>
<linearGradient id="paint9_linear_519_3362" x1="-81.5137" y1="164.818" x2="-250.72" y2="-14.2048" gradientUnits="userSpaceOnUse">
<stop stop-color="#FF928E"/>
<stop offset="1" stop-color="#FE7062"/>
</linearGradient>
<linearGradient id="paint10_linear_519_3362" x1="-70.1817" y1="154.11" x2="-239.389" y2="-24.9136" gradientUnits="userSpaceOnUse">
<stop stop-color="#FF928E"/>
<stop offset="1" stop-color="#FE7062"/>
</linearGradient>
<linearGradient id="paint11_linear_519_3362" x1="233.148" y1="463.101" x2="275.634" y2="363.215" gradientUnits="userSpaceOnUse">
<stop stop-color="#E1473D"/>
<stop offset="1" stop-color="#E9605A"/>
</linearGradient>
<linearGradient id="paint12_linear_519_3362" x1="251.127" y1="470.749" x2="293.614" y2="370.862" gradientUnits="userSpaceOnUse">
<stop stop-color="#E1473D"/>
<stop offset="1" stop-color="#E9605A"/>
</linearGradient>
<linearGradient id="paint13_linear_519_3362" x1="283.58" y1="174.191" x2="249.722" y2="290.147" gradientUnits="userSpaceOnUse">
<stop stop-color="#E1473D"/>
<stop offset="1" stop-color="#E9605A"/>
</linearGradient>
<linearGradient id="paint14_linear_519_3362" x1="282.625" y1="173.912" x2="248.767" y2="289.867" gradientUnits="userSpaceOnUse">
<stop stop-color="#E1473D"/>
<stop offset="1" stop-color="#E9605A"/>
</linearGradient>
<linearGradient id="paint15_linear_519_3362" x1="316.062" y1="375.615" x2="387.149" y2="319.085" gradientUnits="userSpaceOnUse">
<stop stop-color="#09005D"/>
<stop offset="1" stop-color="#1A0F91"/>
</linearGradient>
<linearGradient id="paint16_linear_519_3362" x1="256.391" y1="382.807" x2="282.581" y2="418.968" gradientUnits="userSpaceOnUse">
<stop stop-color="#FEBBBA"/>
<stop offset="1" stop-color="#FF928E"/>
</linearGradient>
<linearGradient id="paint17_linear_519_3362" x1="314.76" y1="520.436" x2="322.999" y2="520.436" gradientUnits="userSpaceOnUse">
<stop stop-color="#4F52FF"/>
<stop offset="1" stop-color="#4042E2"/>
</linearGradient>
<linearGradient id="paint18_linear_519_3362" x1="279.942" y1="552.965" x2="291.826" y2="414.227" gradientUnits="userSpaceOnUse">
<stop stop-color="#FEBBBA"/>
<stop offset="1" stop-color="#FF928E"/>
</linearGradient>
<linearGradient id="paint19_linear_519_3362" x1="276.478" y1="518.93" x2="289.811" y2="518.93" gradientUnits="userSpaceOnUse">
<stop stop-color="#4F52FF"/>
<stop offset="1" stop-color="#4042E2"/>
</linearGradient>
<linearGradient id="paint20_linear_519_3362" x1="303.796" y1="555.03" x2="315.683" y2="416.255" gradientUnits="userSpaceOnUse">
<stop stop-color="#FEBBBA"/>
<stop offset="1" stop-color="#FF928E"/>
</linearGradient>
<linearGradient id="paint21_linear_519_3362" x1="364.881" y1="335.553" x2="322.773" y2="375.546" gradientUnits="userSpaceOnUse">
<stop stop-color="#FF928E"/>
<stop offset="1" stop-color="#FE7062"/>
</linearGradient>
<linearGradient id="paint22_linear_519_3362" x1="301.932" y1="433.319" x2="272.239" y2="480.775" gradientUnits="userSpaceOnUse">
<stop stop-color="#09005D"/>
<stop offset="1" stop-color="#1A0F91"/>
</linearGradient>
<linearGradient id="paint23_linear_519_3362" x1="278.644" y1="416.209" x2="280.876" y2="399.896" gradientUnits="userSpaceOnUse">
<stop stop-color="#FEBBBA"/>
<stop offset="1" stop-color="#FF928E"/>
</linearGradient>
<linearGradient id="paint24_linear_519_3362" x1="291.238" y1="463.851" x2="295.385" y2="416.74" gradientUnits="userSpaceOnUse">
<stop stop-color="#FEBBBA"/>
<stop offset="1" stop-color="#FF928E"/>
</linearGradient>
<linearGradient id="paint25_linear_519_3362" x1="274.677" y1="396.563" x2="287.046" y2="358.825" gradientUnits="userSpaceOnUse">
<stop stop-color="#FEBBBA"/>
<stop offset="1" stop-color="#FF928E"/>
</linearGradient>
<linearGradient id="paint26_linear_519_3362" x1="291.036" y1="368.831" x2="346.96" y2="306.073" gradientUnits="userSpaceOnUse">
<stop stop-color="#09005D"/>
<stop offset="1" stop-color="#1A0F91"/>
</linearGradient>
<linearGradient id="paint27_linear_519_3362" x1="279.187" y1="398.041" x2="291.555" y2="360.304" gradientUnits="userSpaceOnUse">
<stop stop-color="#FEBBBA"/>
<stop offset="1" stop-color="#FF928E"/>
</linearGradient>
<linearGradient id="paint28_linear_519_3362" x1="253.252" y1="385.081" x2="279.442" y2="421.242" gradientUnits="userSpaceOnUse">
<stop stop-color="#FEBBBA"/>
<stop offset="1" stop-color="#FF928E"/>
</linearGradient>
<linearGradient id="paint29_linear_519_3362" x1="246.033" y1="371.884" x2="241.199" y2="371.884" gradientUnits="userSpaceOnUse">
<stop stop-color="#FEBBBA"/>
<stop offset="1" stop-color="#FF928E"/>
</linearGradient>
</defs>
</svg>
