<svg width="360" height="524" viewBox="0 0 360 524" fill="none" xmlns="http://www.w3.org/2000/svg">
<path d="M171.031 476.087C165.177 482.204 159.638 486.149 155.262 489.266C103.822 525.901 42.9546 515.222 30.0186 512.614C10.9161 508.763 -26.0086 501.319 -52.7044 470.158C-93.093 423.013 -86.8039 348.739 -55.4758 299.709C-49.7454 290.74 -19.4757 240.964 42.0472 232.981C79.2803 228.15 122.682 237.894 154.112 264.031C220.088 318.896 215.391 429.732 171.031 476.087Z" fill="url(#paint0_linear_523_4140)" fill-opacity="0.4"/>
<path d="M437.031 349.297C431.177 355.414 425.638 359.359 421.262 362.476C369.822 399.111 308.955 388.432 296.019 385.824C276.916 381.973 239.991 374.529 213.296 343.368C172.907 296.223 179.196 221.948 210.524 172.919C216.255 163.95 246.524 114.173 308.047 106.191C345.28 101.36 388.682 111.103 420.112 137.241C486.088 192.106 481.391 302.942 437.031 349.297Z" fill="url(#paint1_linear_523_4140)" fill-opacity="0.6"/>
<g opacity="0.86">
<path d="M51.5332 366.166C45.5187 352.073 44.746 337.409 48.3707 325.305C51.6111 314.485 50.5988 302.807 45.3362 292.814C44.783 291.763 44.2658 290.678 43.7884 289.559C36.555 272.609 41.1524 254.47 54.0571 249.042C66.9617 243.615 83.2868 252.955 90.5203 269.904C91.9994 273.37 92.983 276.885 93.5018 280.331C95.1578 291.328 100.785 301.408 109.593 308.285C117.463 314.431 124.255 323.119 128.764 333.685C135.489 349.443 135.661 365.916 130.459 378.725C128.492 383.569 127.414 388.746 127.325 393.964C127.176 402.637 122.982 410.235 115.737 413.282C107.921 416.569 98.7429 413.64 92.2296 406.639C88.5438 402.678 84.1199 399.488 79.2773 397.036C67.8454 391.247 57.6143 380.414 51.5332 366.166Z" fill="#91B3FA"/>
<path opacity="0.57" d="M57.2324 268.974C60.3271 280.884 63.8048 292.687 67.4067 304.453C68.3059 307.395 69.2526 310.322 70.1897 313.252L71.5962 317.647L73.0398 322.031C74.0135 324.949 74.9467 327.881 75.9539 330.789L78.9742 339.512C81.0628 345.302 83.1016 351.109 85.2985 356.861C86.3928 359.738 87.4302 362.635 88.5836 365.49L92.0025 374.069C96.6773 385.461 101.643 396.742 107.174 407.752L107.654 407.52L103.832 399.126L102.872 397.031L101.965 394.911L100.159 390.669L98.3457 386.432C97.7386 385.02 97.1844 383.586 96.601 382.165C95.4537 379.314 94.2837 376.473 93.155 373.615C88.7145 362.153 84.4273 350.633 80.3801 339.027C78.4011 333.208 76.372 327.407 74.4337 321.574L72.968 317.204L71.539 312.821C70.5846 309.9 69.6303 306.979 68.7057 304.048C66.8061 298.203 64.9485 292.343 63.1392 286.469C61.2987 280.604 59.5136 274.72 57.7476 268.833L57.2324 268.974Z" fill="white"/>
</g>
<path d="M60.6129 435.939C54.123 427.075 51.1889 416.977 51.7341 407.963C52.2215 399.904 49.6085 391.926 44.312 385.8C43.7553 385.156 43.2179 384.482 42.7028 383.778C34.8979 373.119 35.1337 359.741 43.2298 353.9C51.3259 348.058 64.2162 351.963 72.0212 362.623C73.6171 364.803 74.8763 367.096 75.8006 369.415C78.7503 376.815 84.3151 382.943 91.5696 386.332C98.0526 389.36 104.2 394.332 109.065 400.977C116.322 410.888 119.134 422.342 117.606 432.1C117.028 435.791 117.123 439.571 117.914 443.222C119.228 449.291 117.55 455.256 113.005 458.536C108.102 462.074 101.234 461.496 95.5558 457.656C92.3428 455.483 88.742 453.965 84.9703 453.029C76.0664 450.818 67.1742 444.9 60.6129 435.939Z" fill="#BDD0FB"/>
<path opacity="0.57" d="M48.6992 367.285C52.7998 375.093 57.1494 382.765 61.5795 390.391C62.6862 392.298 63.8234 394.187 64.9546 396.08L66.6521 398.919L68.3732 401.744C69.528 403.623 70.6567 405.518 71.8328 407.384L75.361 412.982C77.7609 416.685 80.1291 420.407 82.5984 424.065C83.8302 425.896 85.0259 427.75 86.2953 429.556L90.0772 434.99C95.1931 442.185 100.493 449.255 106.142 456.047L106.439 455.808L102.406 450.568L101.396 449.26L100.418 447.928L98.4679 445.259L96.5129 442.595C95.8598 441.708 95.2396 440.797 94.6013 439.899C93.3366 438.095 92.0579 436.301 90.8053 434.489C85.8411 427.209 80.9742 419.864 76.2602 412.419C73.9318 408.679 71.5714 404.96 69.269 401.204L67.5344 398.391L65.8237 395.565C64.6819 393.681 63.5403 391.797 62.4177 389.902C60.1402 386.131 57.8895 382.343 55.67 378.537C53.4303 374.742 51.2263 370.926 49.0352 367.105L48.6992 367.285Z" fill="white"/>
<path d="M208.102 502.714C208.102 502.714 224.959 360.862 287.443 277.925C291.644 272.35 300.808 273.376 303.586 279.753C322.164 322.394 364.212 453.225 208.102 502.714Z" fill="#91B3FA"/>
<path opacity="0.25" d="M221.617 492.273C221.3 492.641 221.844 493.113 222.211 492.789C235.737 480.858 286.612 423.858 294.58 319.989C294.606 319.656 294.078 319.584 294.022 319.914C289.875 344.231 271.688 434.195 221.617 492.273Z" fill="white"/>
<path d="M107.545 242.698L253.263 244.415C261.318 244.51 267.636 251.946 267.631 261.289L267.501 492.414C267.498 498.88 262.605 504.243 256.704 504.271L100.479 505.008C94.967 505.034 90.4453 500.101 90.4453 494.045V262.412C90.4453 251.438 98.1 242.587 107.545 242.698Z" fill="url(#paint2_linear_523_4140)"/>
<path d="M245.715 265.239H111.407C105.774 265.239 101.25 269.846 101.25 275.293V469.346C101.25 474.792 105.774 479.015 111.407 479.015H245.715C251.347 479.015 255.955 474.792 255.955 469.346V275.293C255.955 269.846 251.347 265.239 245.715 265.239Z" fill="url(#paint3_linear_523_4140)"/>
<path opacity="0.54" d="M237.661 285.936H203.368C201.862 285.936 200.641 287.063 200.641 288.453C200.641 289.843 201.862 290.97 203.368 290.97H237.661C239.167 290.97 240.389 289.843 240.389 288.453C240.389 287.063 239.167 285.936 237.661 285.936Z" fill="white"/>
<path opacity="0.5" d="M237.661 278.059H203.368C201.862 278.059 200.641 279.186 200.641 280.576C200.641 281.967 201.862 283.094 203.368 283.094H237.661C239.167 283.094 240.389 281.967 240.389 280.576C240.389 279.186 239.167 278.059 237.661 278.059Z" fill="white"/>
<path opacity="0.47" d="M243.867 473.395H112.615C111.152 473.395 109.955 472.207 109.955 470.754V392.357C109.955 390.905 111.152 389.716 112.615 389.716H243.867C245.33 389.716 246.527 390.905 246.527 392.357V470.754C246.527 472.207 245.33 473.395 243.867 473.395Z" fill="white"/>
<g opacity="0.5">
<path d="M168.447 398.906L235.54 398.109C236.228 398.101 236.787 398.659 236.774 399.342L236.755 400.414C236.743 401.075 236.197 401.605 235.53 401.602L168.457 401.327C167.777 401.325 167.23 400.77 167.242 400.095C167.254 399.441 167.788 398.914 168.447 398.906Z" fill="white"/>
<path d="M167.141 405.676L167.133 406.133C167.121 406.801 167.657 407.353 168.33 407.365L235.388 408.559C236.061 408.571 236.617 408.039 236.629 407.371L236.637 406.914C236.649 406.245 236.113 405.694 235.44 405.682L168.382 404.487C167.709 404.475 167.153 405.007 167.141 405.676Z" fill="white"/>
<path d="M187.387 412.006L187.383 412.207C187.371 412.875 187.907 413.427 188.58 413.439L235.284 414.271C235.958 414.283 236.514 413.751 236.526 413.082L236.543 412.14C236.555 411.464 236.007 410.909 235.326 410.908L188.608 410.818C187.942 410.816 187.399 411.345 187.387 412.006Z" fill="white"/>
<path d="M237.072 468.379L120.977 468.823C120.685 468.824 120.448 468.59 120.447 468.301C120.446 468.012 120.681 467.777 120.973 467.776L237.068 467.333C237.359 467.331 237.596 467.565 237.597 467.854C237.598 468.143 237.363 468.378 237.072 468.379Z" fill="white"/>
<path d="M130.34 466.367H123.358C123.252 466.367 123.166 466.282 123.166 466.177V459.658C123.166 459.553 123.252 459.468 123.358 459.468H130.34C130.446 459.468 130.532 459.553 130.532 459.658V466.177C130.532 466.282 130.446 466.367 130.34 466.367Z" fill="white"/>
<path d="M139.995 466.367H133.012C132.906 466.367 132.82 466.282 132.82 466.177V459.658C132.82 459.553 132.906 459.468 133.012 459.468H139.995C140.1 459.468 140.186 459.553 140.186 459.658V466.177C140.186 466.282 140.1 466.367 139.995 466.367Z" fill="white"/>
<path d="M149.473 466.367H142.838C142.636 466.367 142.473 466.205 142.473 466.004V441.683C142.473 441.483 142.636 441.321 142.838 441.321H149.473C149.675 441.321 149.839 441.483 149.839 441.683V466.004C149.839 466.205 149.675 466.367 149.473 466.367Z" fill="white"/>
<path d="M159.301 466.367H152.319C152.213 466.367 152.127 466.282 152.127 466.177V459.658C152.127 459.553 152.213 459.468 152.319 459.468H159.301C159.407 459.468 159.493 459.553 159.493 459.658V466.177C159.493 466.282 159.407 466.367 159.301 466.367Z" fill="white"/>
<path d="M168.67 466.367H162.255C161.992 466.367 161.779 466.156 161.779 465.895V424.451C161.779 424.19 161.992 423.979 162.255 423.979H168.67C168.933 423.979 169.145 424.191 169.145 424.451V465.895C169.145 466.156 168.933 466.367 168.67 466.367Z" fill="white"/>
<path d="M178.608 466.367H171.625C171.519 466.367 171.434 466.282 171.434 466.177V459.658C171.434 459.553 171.519 459.468 171.625 459.468H178.608C178.714 459.468 178.8 459.553 178.8 459.658V466.177C178.8 466.282 178.714 466.367 178.608 466.367Z" fill="white"/>
<path d="M188.028 466.367H181.51C181.276 466.367 181.086 466.179 181.086 465.946V433.071C181.086 432.838 181.276 432.65 181.51 432.65H188.028C188.262 432.65 188.452 432.838 188.452 433.071V465.946C188.452 466.179 188.262 466.367 188.028 466.367Z" fill="white"/>
<path d="M197.915 466.367H190.932C190.826 466.367 190.74 466.282 190.74 466.177V459.658C190.74 459.553 190.826 459.468 190.932 459.468H197.915C198.02 459.468 198.106 459.553 198.106 459.658V466.177C198.106 466.282 198.02 466.367 197.915 466.367Z" fill="white"/>
<path d="M207.285 466.367H200.87C200.607 466.367 200.395 466.156 200.395 465.895V424.451C200.395 424.19 200.607 423.979 200.87 423.979H207.285C207.548 423.979 207.76 424.191 207.76 424.451V465.895C207.76 466.156 207.548 466.367 207.285 466.367Z" fill="white"/>
<path d="M217.221 466.367H210.239C210.133 466.367 210.047 466.282 210.047 466.177V459.658C210.047 459.553 210.133 459.468 210.239 459.468H217.221C217.327 459.468 217.413 459.553 217.413 459.658V466.177C217.413 466.282 217.327 466.367 217.221 466.367Z" fill="white"/>
<path d="M226.731 466.367H220.037C219.852 466.367 219.701 466.218 219.701 466.033V445.507C219.701 445.322 219.852 445.173 220.037 445.173H226.731C226.917 445.173 227.067 445.322 227.067 445.507V466.033C227.067 466.218 226.917 466.367 226.731 466.367Z" fill="white"/>
<path d="M236.528 466.367H229.545C229.439 466.367 229.354 466.282 229.354 466.177V459.658C229.354 459.553 229.439 459.468 229.545 459.468H236.528C236.634 459.468 236.72 459.553 236.72 459.658V466.177C236.72 466.282 236.634 466.367 236.528 466.367Z" fill="white"/>
<path opacity="0.7" d="M131.889 419.184C138.208 419.184 143.331 414.098 143.331 407.825C143.331 401.552 138.208 396.467 131.889 396.467C125.57 396.467 120.447 401.552 120.447 407.825C120.447 414.098 125.57 419.184 131.889 419.184Z" fill="white"/>
</g>
<path d="M119.215 279.154L121.601 286.535L123.978 279.154H127.369V289.762H124.786V287.285L125.035 282.214L122.452 289.762H120.749L118.159 282.207L118.408 287.285V289.762H115.832V279.154H119.215Z" fill="url(#paint4_linear_523_4140)"/>
<path d="M138.055 284.677C138.055 285.711 137.862 286.627 137.475 287.424C137.089 288.22 136.54 288.833 135.828 289.263C135.116 289.693 134.305 289.908 133.395 289.908C132.485 289.908 131.677 289.7 130.973 289.285C130.268 288.87 129.719 288.276 129.325 287.504C128.931 286.731 128.725 285.845 128.705 284.844V284.247C128.705 283.208 128.897 282.291 129.281 281.497C129.665 280.702 130.216 280.089 130.932 279.657C131.649 279.225 132.465 279.009 133.38 279.009C134.285 279.009 135.092 279.222 135.802 279.65C136.511 280.077 137.063 280.685 137.457 281.475C137.851 282.264 138.05 283.169 138.055 284.189L138.055 284.677ZM135.435 284.232C135.435 283.178 135.258 282.378 134.903 281.832C134.548 281.285 134.041 281.012 133.38 281.012C132.089 281.012 131.406 281.974 131.333 283.897L131.325 284.677C131.325 285.716 131.499 286.515 131.846 287.074C132.194 287.632 132.71 287.912 133.395 287.912C134.045 287.912 134.547 287.637 134.899 287.088C135.252 286.54 135.43 285.75 135.435 284.72V284.232Z" fill="url(#paint5_linear_523_4140)"/>
<path d="M148.307 289.762H145.746L141.959 283.161V289.762H139.383V279.154H141.959L145.739 285.755V279.154H148.307V289.762Z" fill="url(#paint6_linear_523_4140)"/>
<path d="M149.938 289.762V279.154H153.38C154.324 279.154 155.173 279.367 155.926 279.792C156.68 280.217 157.268 280.817 157.691 281.591C158.114 282.366 158.329 283.234 158.333 284.196V284.684C158.333 285.656 158.127 286.526 157.713 287.296C157.3 288.066 156.718 288.668 155.967 289.103C155.215 289.538 154.378 289.757 153.453 289.762H149.938V289.762ZM152.514 281.129V287.795H153.409C154.148 287.795 154.715 287.534 155.112 287.012C155.508 286.49 155.706 285.714 155.706 284.684V284.225C155.706 283.2 155.508 282.428 155.112 281.908C154.715 281.389 154.138 281.129 153.38 281.129H152.514Z" fill="url(#paint7_linear_523_4140)"/>
<path d="M165.569 287.78H162.039L161.422 289.762H158.67L162.589 279.154H165.011L168.959 289.762H166.192L165.569 287.78ZM162.655 285.806H164.952L163.8 282.127L162.655 285.806Z" fill="url(#paint8_linear_523_4140)"/>
<path d="M172.548 283.759L174.515 279.154H177.296L173.854 285.952V289.762H171.241V285.952L167.807 279.154H170.574L172.548 283.759Z" fill="url(#paint9_linear_523_4140)"/>
<path opacity="0.7" d="M245.657 325.171H111.852C111.091 325.171 110.469 324.553 110.469 323.798V303.914C110.469 303.159 111.091 302.541 111.852 302.541H245.657C246.418 302.541 247.041 303.159 247.041 303.914V323.798C247.041 324.553 246.418 325.171 245.657 325.171Z" fill="white"/>
<path d="M121.14 321.821C119.217 320.268 118.924 317.436 120.488 315.528L124.81 310.254C126.374 308.345 129.227 308.054 131.149 309.607C133.072 311.159 133.365 313.991 131.801 315.9L127.479 321.174C125.915 323.082 123.062 323.373 121.14 321.821Z" fill="#91B3FA"/>
<path d="M130.755 317.176L134.847 312.183C136.411 310.275 136.118 307.443 134.195 305.891C132.273 304.338 129.42 304.629 127.856 306.538L123.682 311.632C124.117 312.193 124.605 312.714 125.129 313.193C126.803 314.714 128.678 316.181 130.755 317.176Z" fill="url(#paint10_linear_523_4140)"/>
<path d="M218.703 310.982L215.331 318.833H213.125L216.502 311.474H212.201V309.875H218.703V310.982Z" fill="url(#paint11_linear_523_4140)"/>
<path d="M221.108 316.82C221.438 316.82 221.713 316.917 221.932 317.112C222.151 317.307 222.261 317.556 222.261 317.859C222.261 318.163 222.151 318.412 221.932 318.607C221.713 318.802 221.438 318.899 221.108 318.899C220.773 318.899 220.497 318.801 220.28 318.604C220.064 318.407 219.955 318.159 219.955 317.86C219.955 317.56 220.064 317.312 220.28 317.115C220.497 316.918 220.773 316.82 221.108 316.82Z" fill="url(#paint12_linear_523_4140)"/>
<path d="M229.885 315.171C229.885 316.381 229.611 317.314 229.063 317.97C228.516 318.626 227.744 318.955 226.749 318.955C225.744 318.955 224.968 318.624 224.418 317.964C223.869 317.304 223.594 316.373 223.594 315.171V313.534C223.594 312.324 223.867 311.391 224.415 310.735C224.962 310.079 225.736 309.75 226.736 309.75C227.736 309.75 228.511 310.08 229.06 310.741C229.61 311.401 229.885 312.334 229.885 313.54V315.171ZM227.796 313.27C227.796 312.626 227.711 312.145 227.542 311.827C227.372 311.509 227.104 311.35 226.736 311.35C226.377 311.35 226.115 311.498 225.952 311.793C225.789 312.088 225.701 312.535 225.689 313.134V315.423C225.689 316.092 225.773 316.581 225.943 316.89C226.112 317.2 226.381 317.355 226.749 317.355C227.104 317.355 227.366 317.204 227.536 316.903C227.705 316.601 227.792 316.128 227.796 315.484V313.27Z" fill="url(#paint13_linear_523_4140)"/>
<path d="M237.234 315.171C237.234 316.381 236.96 317.314 236.413 317.97C235.865 318.626 235.094 318.955 234.098 318.955C233.094 318.955 232.317 318.624 231.768 317.964C231.218 317.304 230.943 316.373 230.943 315.171V313.534C230.943 312.324 231.217 311.391 231.765 310.735C232.312 310.079 233.086 309.75 234.086 309.75C235.086 309.75 235.86 310.08 236.41 310.741C236.959 311.401 237.234 312.334 237.234 313.54V315.171ZM235.146 313.27C235.146 312.626 235.061 312.145 234.891 311.827C234.722 311.509 234.453 311.35 234.086 311.35C233.726 311.35 233.465 311.498 233.302 311.793C233.138 312.088 233.051 312.535 233.038 313.134V315.423C233.038 316.092 233.123 316.581 233.292 316.89C233.462 317.2 233.73 317.355 234.098 317.355C234.453 317.355 234.716 317.204 234.885 316.903C235.055 316.601 235.141 316.128 235.146 315.484V313.27Z" fill="url(#paint14_linear_523_4140)"/>
<path opacity="0.7" d="M245.882 353.858H112.077C111.316 353.858 110.693 353.24 110.693 352.484V332.601C110.693 331.845 111.316 331.227 112.077 331.227H245.882C246.643 331.227 247.265 331.845 247.265 332.601V352.484C247.265 353.24 246.643 353.858 245.882 353.858Z" fill="white"/>
<path d="M132.145 348.152C135.036 345.283 135.036 340.631 132.145 337.762C129.255 334.892 124.569 334.892 121.679 337.762C118.788 340.631 118.788 345.283 121.679 348.152C124.569 351.021 129.255 351.021 132.145 348.152Z" fill="#91B3FA"/>
<path opacity="0.25" d="M131.462 337.231L131.761 337.465C131.796 337.492 131.802 337.543 131.775 337.578L122.784 348.908C122.757 348.943 122.705 348.949 122.67 348.921L122.371 348.688C122.336 348.66 122.329 348.609 122.357 348.574L131.347 337.245C131.375 337.209 131.427 337.203 131.462 337.231Z" fill="white"/>
<path d="M219.207 340.687C219.207 341.122 219.099 341.505 218.882 341.838C218.665 342.17 218.366 342.436 217.986 342.637C218.416 342.847 218.757 343.133 219.009 343.496C219.261 343.859 219.387 344.288 219.387 344.785C219.387 345.585 219.109 346.216 218.553 346.68C217.997 347.143 217.232 347.375 216.257 347.375C215.278 347.375 214.505 347.142 213.939 346.677C213.373 346.211 213.09 345.581 213.09 344.785C213.09 344.305 213.214 343.88 213.462 343.511C213.71 343.142 214.061 342.851 214.515 342.637C214.131 342.437 213.829 342.17 213.61 341.838C213.391 341.505 213.282 341.122 213.282 340.687C213.282 339.908 213.548 339.293 214.081 338.841C214.614 338.39 215.333 338.165 216.238 338.165C217.151 338.165 217.874 338.39 218.407 338.841C218.941 339.293 219.207 339.908 219.207 340.687ZM217.292 344.619C217.292 344.249 217.196 343.966 217.004 343.767C216.812 343.568 216.558 343.468 216.245 343.468C215.93 343.468 215.676 343.568 215.482 343.767C215.288 343.966 215.191 344.249 215.191 344.619C215.191 344.975 215.289 345.258 215.485 345.465C215.682 345.672 215.939 345.775 216.257 345.775C216.567 345.775 216.817 345.673 217.007 345.468C217.197 345.263 217.292 344.98 217.292 344.619ZM216.238 339.764C215.957 339.764 215.744 339.856 215.597 340.038C215.45 340.221 215.377 340.474 215.377 340.798C215.377 341.118 215.451 341.376 215.6 341.573C215.749 341.77 215.968 341.868 216.257 341.868C216.542 341.868 216.756 341.77 216.898 341.573C217.041 341.376 217.112 341.118 217.112 340.798C217.112 340.478 217.039 340.226 216.892 340.041C216.746 339.857 216.528 339.764 216.238 339.764Z" fill="url(#paint15_linear_523_4140)"/>
<path d="M221.797 345.24C222.128 345.24 222.403 345.338 222.622 345.533C222.841 345.727 222.95 345.977 222.95 346.28C222.95 346.584 222.841 346.833 222.622 347.028C222.403 347.222 222.128 347.32 221.797 347.32C221.463 347.32 221.187 347.221 220.97 347.025C220.753 346.828 220.645 346.58 220.645 346.28C220.645 345.981 220.753 345.733 220.97 345.536C221.187 345.339 221.463 345.24 221.797 345.24Z" fill="url(#paint16_linear_523_4140)"/>
<path d="M226.218 341.905H227.203C227.984 341.905 228.375 341.526 228.375 340.767C228.375 340.472 228.282 340.231 228.096 340.044C227.91 339.857 227.648 339.764 227.309 339.764C227.032 339.764 226.791 339.844 226.587 340.004C226.382 340.164 226.28 340.363 226.28 340.601H224.191C224.191 340.129 224.323 339.709 224.588 339.339C224.852 338.97 225.219 338.682 225.688 338.475C226.157 338.268 226.672 338.164 227.234 338.164C228.238 338.164 229.028 338.392 229.602 338.847C230.176 339.303 230.463 339.928 230.463 340.724C230.463 341.109 230.345 341.474 230.107 341.816C229.87 342.158 229.523 342.436 229.069 342.65C229.548 342.822 229.924 343.083 230.197 343.434C230.47 343.785 230.606 344.219 230.606 344.735C230.606 345.535 230.296 346.175 229.676 346.655C229.057 347.135 228.242 347.375 227.234 347.375C226.644 347.375 226.095 347.263 225.589 347.04C225.083 346.816 224.7 346.506 224.439 346.111C224.179 345.715 224.049 345.265 224.049 344.76H226.15C226.15 345.035 226.261 345.273 226.485 345.474C226.708 345.675 226.983 345.775 227.309 345.775C227.677 345.775 227.97 345.674 228.189 345.471C228.408 345.268 228.518 345.008 228.518 344.692C228.518 344.241 228.404 343.921 228.177 343.733C227.949 343.544 227.635 343.45 227.235 343.45H226.218V341.905H226.218Z" fill="url(#paint17_linear_523_4140)"/>
<path d="M237.926 343.591C237.926 344.801 237.652 345.734 237.104 346.391C236.557 347.047 235.785 347.375 234.79 347.375C233.786 347.375 233.009 347.045 232.459 346.384C231.91 345.724 231.635 344.793 231.635 343.591V341.955C231.635 340.745 231.908 339.811 232.456 339.155C233.003 338.499 233.777 338.171 234.777 338.171C235.777 338.171 236.552 338.501 237.101 339.161C237.651 339.822 237.926 340.755 237.926 341.961V343.591ZM235.837 341.69C235.837 341.046 235.752 340.565 235.583 340.247C235.413 339.929 235.145 339.77 234.777 339.77C234.418 339.77 234.156 339.918 233.993 340.213C233.83 340.509 233.742 340.956 233.73 341.555V343.843C233.73 344.512 233.814 345.001 233.984 345.311C234.153 345.621 234.422 345.775 234.79 345.775C235.145 345.775 235.407 345.625 235.577 345.323C235.746 345.022 235.833 344.549 235.837 343.905V341.69Z" fill="url(#paint18_linear_523_4140)"/>
<path opacity="0.7" d="M245.642 382.544H111.837C111.076 382.544 110.453 381.926 110.453 381.171V361.287C110.453 360.532 111.076 359.914 111.837 359.914H245.642C246.402 359.914 247.025 360.532 247.025 361.287V381.171C247.025 381.926 246.402 382.544 245.642 382.544Z" fill="white"/>
<path d="M121.075 379.194C119.153 377.641 118.859 374.809 120.423 372.901L124.919 367.415C126.483 365.507 129.335 365.216 131.258 366.768C133.18 368.321 133.474 371.152 131.91 373.061L127.414 378.547C125.85 380.455 122.998 380.746 121.075 379.194Z" fill="#91B3FA"/>
<path d="M130.691 374.549L134.782 369.556C136.346 367.648 136.053 364.816 134.131 363.264C132.208 361.711 129.356 362.002 127.792 363.911L123.617 369.005C124.052 369.565 124.541 370.087 125.065 370.566C126.739 372.086 128.614 373.554 130.691 374.549Z" fill="url(#paint19_linear_523_4140)"/>
<path d="M217.924 372.591C217.473 372.993 216.969 373.194 216.411 373.194C215.593 373.194 214.944 372.919 214.465 372.369C213.986 371.82 213.746 371.086 213.746 370.167C213.746 369.593 213.88 369.059 214.149 368.567C214.417 368.075 214.795 367.685 215.28 367.398C215.766 367.111 216.302 366.968 216.888 366.968C217.483 366.968 218.022 367.116 218.503 367.414C218.984 367.711 219.359 368.131 219.628 368.675C219.896 369.218 220.035 369.845 220.043 370.555V371.348C220.043 372.337 219.848 373.194 219.458 373.92C219.067 374.646 218.51 375.204 217.787 375.593C217.064 375.983 216.221 376.178 215.259 376.178H215.128V374.517L215.525 374.511C216.963 374.441 217.762 373.801 217.924 372.591ZM216.975 371.699C217.43 371.699 217.756 371.504 217.954 371.114V370.253C217.954 369.679 217.857 369.254 217.663 368.979C217.469 368.705 217.207 368.567 216.876 368.567C216.583 368.567 216.337 368.723 216.139 369.035C215.94 369.346 215.841 369.724 215.841 370.167C215.841 370.634 215.942 371.007 216.145 371.283C216.347 371.56 216.624 371.699 216.975 371.699Z" fill="url(#paint20_linear_523_4140)"/>
<path d="M222.485 374.043C222.815 374.043 223.09 374.14 223.309 374.335C223.528 374.53 223.638 374.779 223.638 375.083C223.638 375.386 223.528 375.636 223.309 375.83C223.09 376.025 222.815 376.123 222.485 376.123C222.15 376.123 221.874 376.024 221.657 375.827C221.44 375.63 221.332 375.382 221.332 375.083C221.332 374.784 221.44 374.535 221.657 374.338C221.874 374.141 222.15 374.043 222.485 374.043Z" fill="url(#paint21_linear_523_4140)"/>
<path d="M230.511 372.554H231.428V374.154H230.511V376.055H228.422V374.154H224.932L224.809 372.886L228.422 367.115V367.097H230.511V372.554ZM226.798 372.554H228.422V369.798L228.292 370.007L226.798 372.554Z" fill="url(#paint22_linear_523_4140)"/>
<path d="M232.47 371.679L233.022 367.096H238.296V368.708H234.72L234.516 370.488C234.664 370.401 234.86 370.325 235.101 370.259C235.343 370.193 235.58 370.16 235.811 370.16C236.708 370.16 237.397 370.424 237.878 370.951C238.359 371.478 238.6 372.217 238.6 373.169C238.6 373.743 238.471 374.263 238.213 374.728C237.955 375.194 237.592 375.552 237.125 375.802C236.658 376.052 236.107 376.177 235.47 376.177C234.904 376.177 234.373 376.062 233.877 375.83C233.382 375.599 232.993 375.281 232.712 374.877C232.431 374.474 232.293 374.017 232.297 373.509H234.392C234.413 373.837 234.518 374.097 234.708 374.289C234.898 374.482 235.148 374.578 235.458 374.578C236.16 374.578 236.512 374.062 236.512 373.031C236.512 372.077 236.082 371.6 235.222 371.6C234.735 371.6 234.371 371.756 234.132 372.067L232.47 371.679Z" fill="url(#paint23_linear_523_4140)"/>
<path d="M275.576 519.007H43.1617C41.8437 519.007 40.7754 517.946 40.7754 516.638V453.533H278.114V516.488C278.114 517.879 276.978 519.007 275.576 519.007Z" fill="url(#paint24_linear_523_4140)"/>
<path d="M269.049 507.198H47.262C42.6138 507.198 38.8457 503.457 38.8457 498.843V441.724H276.934V499.37C276.934 503.693 273.404 507.198 269.049 507.198Z" fill="#7D97F4"/>
<path opacity="0.3" d="M141.252 507.197H140.362C140.26 507.197 140.178 507.115 140.178 507.014V441.908C140.178 441.806 140.26 441.724 140.362 441.724H141.252C141.353 441.724 141.436 441.806 141.436 441.908V507.014C141.436 507.115 141.353 507.197 141.252 507.197Z" fill="white"/>
<path opacity="0.3" d="M242.351 507.197H241.462C241.36 507.197 241.277 507.115 241.277 507.014V441.908C241.277 441.806 241.36 441.724 241.462 441.724H242.351C242.453 441.724 242.536 441.806 242.536 441.908V507.014C242.536 507.115 242.453 507.197 242.351 507.197Z" fill="white"/>
<path opacity="0.3" d="M175.65 507.197H174.761C174.659 507.197 174.576 507.115 174.576 507.014V441.908C174.576 441.806 174.659 441.724 174.761 441.724H175.65C175.752 441.724 175.835 441.806 175.835 441.908V507.014C175.835 507.115 175.752 507.197 175.65 507.197Z" fill="white"/>
<path opacity="0.3" d="M208.91 507.197H208.021C207.919 507.197 207.836 507.115 207.836 507.014V441.908C207.836 441.806 207.919 441.724 208.021 441.724H208.91C209.012 441.724 209.094 441.806 209.094 441.908V507.014C209.094 507.115 209.012 507.197 208.91 507.197Z" fill="white"/>
<path d="M106.738 443.301H73.6504V505.231H106.738V443.301Z" fill="url(#paint25_linear_523_4140)"/>
<path d="M92.7757 490.785C96.0805 487.504 96.0805 482.185 92.7757 478.904C89.4709 475.624 84.1128 475.624 80.8081 478.904C77.5033 482.185 77.5033 487.504 80.8081 490.785C84.1128 494.066 89.471 494.066 92.7757 490.785Z" fill="#91B3FA"/>
<path opacity="0.25" d="M93.8826 480.374L94.1249 480.753C94.1499 480.792 94.1381 480.844 94.0988 480.869L80.0599 489.716C80.0206 489.741 79.9679 489.729 79.943 489.69L79.7006 489.311C79.6756 489.272 79.6874 489.22 79.7267 489.195L93.7657 480.348C93.805 480.323 93.8576 480.335 93.8826 480.374Z" fill="white"/>
<path d="M92.0645 498.431L91.8467 498.341C89.3118 497.295 88.1 494.38 89.1539 491.863L93.4693 481.56C94.5233 479.043 97.4597 477.84 99.9947 478.887L100.212 478.976C102.747 480.023 103.959 482.938 102.905 485.454L98.5899 495.758C97.536 498.274 94.5995 499.477 92.0645 498.431Z" fill="#7D97F4"/>
<path d="M100.894 490.254L103.716 483.514C104.795 480.938 103.555 477.955 100.96 476.884C98.3648 475.812 95.359 477.044 94.2801 479.62L91.4004 486.496C92.0561 486.966 92.7567 487.376 93.4818 487.729C95.7965 488.844 98.3123 489.838 100.894 490.254Z" fill="url(#paint26_linear_523_4140)"/>
<path d="M93.7401 472.25L92.422 473.033C90.0138 474.464 86.8639 473.679 85.4223 471.288L77.4468 458.062C75.8687 455.445 76.7345 452.022 79.3707 450.455L79.597 450.321C82.2261 448.758 85.665 449.616 87.2388 452.226L95.3869 465.738C96.7378 467.979 95.9968 470.909 93.7401 472.25Z" fill="#7D97F4"/>
<path d="M91.5312 459.344L87.311 452.345C85.6977 449.67 82.173 448.791 79.478 450.392C76.783 451.994 75.898 455.493 77.5112 458.168L81.8171 465.309C82.6786 465.037 83.516 464.685 84.3169 464.273C86.866 462.951 89.4385 461.369 91.5312 459.344Z" fill="url(#paint27_linear_523_4140)"/>
<g opacity="0.8">
<path d="M54.3425 459.478C54.3425 460.834 53.9977 461.872 53.3084 462.593C52.6188 463.314 51.6246 463.674 50.3256 463.674C49.0533 463.674 47.9708 463.426 47.0781 462.93V460.262C48.1706 460.969 49.1731 461.323 50.0859 461.323C50.6055 461.323 50.9966 461.181 51.2598 460.897C51.5228 460.613 51.6546 460.225 51.6546 459.736C51.6546 459.254 51.4981 458.812 51.1851 458.412C50.8718 458.012 50.3557 457.567 49.6363 457.078C49.0099 456.648 48.5352 456.236 48.2123 455.843C47.8893 455.449 47.6395 455.008 47.463 454.518C47.2863 454.029 47.1981 453.461 47.1981 452.812C47.1981 451.569 47.5461 450.584 48.2424 449.856C48.9384 449.129 49.8728 448.765 51.0453 448.765C52.1644 448.765 53.2402 449.076 54.2726 449.698L53.3733 451.86C53.0536 451.675 52.719 451.509 52.3691 451.364C52.0195 451.218 51.6448 451.146 51.2452 451.146C50.8054 451.146 50.4671 451.29 50.2308 451.577C49.9944 451.865 49.8763 452.257 49.8763 452.753C49.8763 453.242 50.0175 453.669 50.3009 454.032C50.5838 454.396 51.0784 454.809 51.7846 455.272C52.7372 455.907 53.4016 456.555 53.778 457.216C54.1542 457.878 54.3425 458.632 54.3425 459.478Z" fill="white"/>
<path d="M65.123 448.974V458.357C65.123 460.084 64.7298 461.401 63.944 462.31C63.1579 463.22 62.0221 463.675 60.5367 463.675C59.0842 463.675 57.9786 463.223 57.2191 462.32C56.4599 461.418 56.0801 460.084 56.0801 458.318V448.974H58.7778V458.516C58.7778 460.361 59.394 461.284 60.6265 461.284C61.1993 461.284 61.6423 461.049 61.9553 460.58C62.2684 460.11 62.4252 459.442 62.4252 458.576V448.974L65.123 448.974Z" fill="white"/>
<path d="M159.315 463.675H155.918L154.489 456.076C154.269 455.038 154.113 453.811 154.019 452.396L153.94 453.13L153.53 456.116L152.141 463.674H148.744L146.096 449.172H148.764L150.073 457.356C150.199 458.176 150.369 459.462 150.582 461.214C150.749 459.442 150.905 458.176 151.052 457.415L152.611 449.172H155.428L156.987 457.415C157.194 458.638 157.357 459.911 157.477 461.234C157.71 459.277 157.88 457.984 157.987 457.356L159.256 449.172H161.944L159.315 463.675Z" fill="white"/>
<path d="M169.997 463.674H163.412V449.172H169.997V451.503H166.13V454.955H169.717V457.296H166.13V461.314H169.997V463.674Z" fill="white"/>
<path d="M119.453 463.476H116.745V451.344H113.947V448.974H122.251V451.344H119.453V463.476H119.453Z" fill="white"/>
<path d="M133.383 448.974V458.357C133.383 460.084 132.99 461.401 132.204 462.31C131.418 463.22 130.282 463.675 128.796 463.675C127.344 463.675 126.238 463.223 125.479 462.32C124.72 461.418 124.34 460.084 124.34 458.318V448.974H127.038V458.516C127.038 460.361 127.654 461.284 128.886 461.284C129.459 461.284 129.902 461.049 130.215 460.58C130.528 460.11 130.685 459.442 130.685 458.576V448.974L133.383 448.974Z" fill="white"/>
<path d="M187.279 463.675H184.571V451.543H181.773V449.173H190.077V451.543H187.279V463.675Z" fill="white"/>
<path d="M200.658 463.675H197.94V457.316H194.353V463.675H191.635V449.173H194.353V454.936H197.94V449.173H200.658V463.675Z" fill="white"/>
<path d="M219.731 463.675H217.033V449.173H223.578V451.504H219.731V455.531H223.318V457.862H219.731V463.675Z" fill="white"/>
<path d="M228.124 458.031V463.675H225.406V449.173H228.964C230.469 449.173 231.58 449.526 232.296 450.234C233.012 450.942 233.37 452.023 233.37 453.477C233.37 455.309 232.747 456.589 231.502 457.316L234.309 463.675H231.402L229.093 458.031L228.124 458.031ZM228.124 455.71H228.824C229.463 455.71 229.923 455.529 230.203 455.169C230.482 454.809 230.622 454.271 230.622 453.557C230.622 452.817 230.474 452.289 230.178 451.975C229.881 451.661 229.423 451.504 228.804 451.504H228.124V455.71Z" fill="white"/>
<path d="M258.208 459.478C258.208 460.834 257.863 461.872 257.174 462.593C256.484 463.314 255.49 463.674 254.191 463.674C252.918 463.674 251.836 463.426 250.943 462.93V460.262C252.036 460.969 253.038 461.323 253.951 461.323C254.471 461.323 254.862 461.181 255.125 460.897C255.388 460.613 255.52 460.225 255.52 459.736C255.52 459.254 255.363 458.812 255.05 458.412C254.737 458.012 254.221 457.567 253.501 457.078C252.875 456.648 252.4 456.236 252.077 455.843C251.754 455.449 251.505 455.008 251.328 454.518C251.152 454.029 251.063 453.461 251.063 452.812C251.063 451.569 251.411 450.584 252.108 449.856C252.804 449.129 253.738 448.765 254.91 448.765C256.029 448.765 257.105 449.076 258.138 449.698L257.238 451.86C256.919 451.675 256.584 451.509 256.234 451.364C255.885 451.218 255.51 451.146 255.11 451.146C254.671 451.146 254.332 451.29 254.096 451.577C253.859 451.865 253.741 452.257 253.741 452.753C253.741 453.242 253.883 453.669 254.166 454.032C254.449 454.396 254.944 454.809 255.65 455.272C256.602 455.907 257.267 456.555 257.643 457.216C258.019 457.878 258.208 458.632 258.208 459.478Z" fill="white"/>
<path d="M266.92 463.476L266.081 459.816H262.274L261.435 463.476H258.717L262.334 448.914H266.021L269.648 463.476H266.92ZM265.572 457.425L264.792 454.053C264.745 453.848 264.641 453.334 264.477 452.51C264.314 451.687 264.216 451.136 264.183 450.859C264.096 451.427 263.986 452.054 263.853 452.738C263.72 453.423 263.373 454.985 262.814 457.425L265.572 457.425Z" fill="white"/>
</g>
<path d="M73.4117 507.197H72.5225C72.4205 507.197 72.3379 507.115 72.3379 507.014V441.908C72.3379 441.806 72.4205 441.724 72.5225 441.724H73.4117C73.5136 441.724 73.5963 441.806 73.5963 441.908V507.014C73.5963 507.115 73.5136 507.197 73.4117 507.197Z" fill="white"/>
<path d="M107.812 507.197H106.923C106.821 507.197 106.738 507.115 106.738 507.014V441.908C106.738 441.806 106.821 441.724 106.923 441.724H107.812C107.914 441.724 107.997 441.806 107.997 441.908V507.014C107.997 507.115 107.914 507.197 107.812 507.197Z" fill="white"/>
<path d="M98.917 442.164H81.0092C80.7054 442.164 80.459 441.919 80.459 441.618V437.254C80.459 436.952 80.7054 436.708 81.0092 436.708H98.917C99.2209 436.708 99.4673 436.952 99.4673 437.254V441.618C99.4673 441.92 99.2209 442.164 98.917 442.164Z" fill="url(#paint28_linear_523_4140)"/>
<path d="M101.333 437.305H76.0853C74.0934 437.305 72.4785 435.701 72.4785 433.724V388.2C72.4785 386.222 74.0934 384.619 76.0853 384.619H101.333C103.325 384.619 104.94 386.222 104.94 388.2V433.724C104.94 435.702 103.325 437.305 101.333 437.305Z" fill="#7D97F4"/>
<path d="M254.893 370.571C254.893 370.571 255.044 369.109 254.366 367.483C253.688 365.856 249.902 365.575 248.884 364.397C247.867 363.219 247.641 365.351 248.206 365.856C248.771 366.361 242.386 365.744 241.595 364.229C241.595 364.229 239.871 362.35 239.871 364.425C239.871 366.501 244.787 369.222 246.765 369.418C248.743 369.614 250.126 370.729 250.226 371.252C251.201 371.662 254.893 370.571 254.893 370.571Z" fill="url(#paint29_linear_523_4140)"/>
<path d="M269.877 352.263C269.877 352.263 262.786 361.592 263.239 376.402C263.691 391.212 260.828 385.004 257.814 377.674C254.8 370.344 254.8 370.344 254.8 370.344L250.076 371.281C250.076 371.281 256.005 399.564 264.293 397.819C272.582 396.074 273.335 374.831 273.335 370.643C273.335 366.454 269.877 352.263 269.877 352.263Z" fill="url(#paint30_linear_523_4140)"/>
<path fill-rule="evenodd" clip-rule="evenodd" d="M287.543 514.263L288.11 515.644L287.88 520.617C287.848 521.315 287.28 521.902 286.515 522.019C285.47 522.179 283.95 522.341 282.52 522.231C281.401 522.145 280.7 521.102 281.138 520.17L282.824 516.583C283.076 516.047 283.537 515.635 284.101 515.442L287.543 514.263Z" fill="url(#paint31_linear_523_4140)"/>
<path fill-rule="evenodd" clip-rule="evenodd" d="M289.307 469.178C289.307 469.178 289.307 505.233 287.598 515.389C287.51 515.91 287.11 516.329 286.585 516.418C286.106 516.498 285.451 516.48 284.669 516.136C284.275 515.963 284.014 515.581 283.961 515.157L279.131 469.809L289.307 469.178Z" fill="url(#paint32_linear_523_4140)"/>
<path fill-rule="evenodd" clip-rule="evenodd" d="M293.616 514.263L293.049 515.644L292.643 520.617C292.675 521.315 293.243 521.902 294.008 522.019C295.053 522.179 297.209 522.341 298.639 522.231C299.758 522.145 300.459 521.102 300.021 520.17L298.335 516.583C298.083 516.047 297.622 515.635 297.058 515.442L293.616 514.263Z" fill="url(#paint33_linear_523_4140)"/>
<path fill-rule="evenodd" clip-rule="evenodd" d="M291.852 469.178C291.852 469.178 291.852 505.709 293.603 515.63C293.66 515.956 293.891 516.229 294.208 516.33C294.717 516.491 295.573 516.588 296.657 516.058C296.939 515.921 297.136 515.65 297.175 515.341L302.028 469.809L291.852 469.178Z" fill="url(#paint34_linear_523_4140)"/>
<path d="M274.696 397.819C269.663 409.374 270.106 441.958 277.213 474.643C277.213 474.643 294.829 476.204 303.323 474.643C303.323 474.643 314.963 407.188 302.694 397.819H274.696Z" fill="url(#paint35_linear_523_4140)"/>
<path d="M311.188 354.411C311.188 354.411 304.581 343.48 290.74 340.357L283.504 340.045C283.504 340.045 273.123 345.042 268.719 354.411L274.381 378.457L274.696 397.819C274.696 397.819 291.369 401.567 302.694 397.819L305.21 374.085L311.188 354.411Z" fill="url(#paint36_linear_523_4140)"/>
<path d="M282.875 331.301V343.136C282.875 344.093 283.577 344.908 284.531 345.05C286.111 345.286 288.554 345.469 290.651 344.843C291.617 344.554 292.212 343.594 292.019 342.612L289.796 331.301H282.875Z" fill="url(#paint37_linear_523_4140)"/>
<path d="M275.025 314.522C275.025 314.522 268.017 334.702 277.674 336.873C289.039 339.428 292.446 324.524 292.446 324.524C292.446 324.524 281.777 296.535 275.025 314.522Z" fill="url(#paint38_linear_523_4140)"/>
<path d="M295.219 315.103C295.219 315.103 290.932 307.415 294.126 304.115C297.321 300.814 303.474 302.068 304.515 308.449C305.556 314.83 297.397 322.018 295.219 315.103Z" fill="white"/>
<path d="M271.921 312.949C271.511 314.602 273.037 316.087 274.698 315.661C276.37 315.232 278.431 314.83 280.226 314.852C292.346 314.998 287.839 322.928 287.873 324.177C287.942 326.731 290.365 322.78 290.533 323.637C290.898 325.502 289.58 331.224 289.58 331.224C289.58 331.224 296.812 329.044 299.712 325.58C303.294 321.302 300.944 313.265 298.986 310.287C297.191 307.557 289.929 303.454 286.478 303.859C283.393 304.22 274.185 303.827 271.921 312.949Z" fill="white"/>
<path d="M289.021 325.865C289.021 325.865 289.838 321.157 292.38 322.027C294.921 322.896 290.661 328.32 289.114 329.299L289.021 325.865Z" fill="url(#paint39_linear_523_4140)"/>
<path d="M311.187 354.411C311.187 354.411 334.152 389.7 307.727 405.939L305.316 402.536C305.316 402.536 317.794 384.39 306.154 368.151L311.187 354.411Z" fill="url(#paint40_linear_523_4140)"/>
<path d="M302.378 523.516C301.77 523.516 301.277 523.027 301.277 522.423V408.125C301.277 407.521 301.77 407.031 302.378 407.031C302.987 407.031 303.479 407.521 303.479 408.125V522.423C303.479 523.027 302.987 523.516 302.378 523.516Z" fill="#7D97F4"/>
<path d="M305.209 402.503C305.209 402.503 299.232 404.689 298.918 409.374C298.603 414.058 299.232 415.307 300.176 413.746C301.12 412.184 302.064 410.623 303.951 409.374C305.839 408.125 307.726 405.938 307.726 405.938C307.726 405.938 307.411 402.503 305.209 402.503Z" fill="url(#paint41_linear_523_4140)"/>
<path d="M-205.112 419.955C-197.781 427.52 -191.221 431.968 -186.199 435.325C-137.216 468.067 -81.2235 458.63 -63.9121 455.405C-35.9821 450.2 -12.4053 446.529 7.85121 428.208C53.8805 386.576 51.6417 299.728 16.4697 245.93C12.2994 239.551 -22.8193 187.436 -78.933 180.093C-80.3055 179.913 -81.3295 179.811 -82.2265 179.716C-90.9071 178.796 -144.699 173.94 -188.562 210.729C-194.84 215.995 -204.945 225.494 -214.314 239.981C-248.575 292.952 -248.683 374.994 -205.112 419.955Z" fill="url(#paint42_linear_523_4140)" fill-opacity="0.2"/>
<path d="M605.374 419.68C562.392 474.062 482.554 489.587 423.812 463.889C414.253 459.707 388.144 447.884 369.653 420.157C334.056 366.782 345.8 283.125 398.649 236.113C437.114 201.896 492.422 191.477 538.665 205.13C548.626 208.071 586.641 219.933 613.066 256.421C616.947 261.781 625.324 274.289 631.115 292.124C644.713 334.003 633.386 384.238 605.374 419.68Z" fill="url(#paint43_linear_523_4140)" fill-opacity="0.2"/>
<defs>
<linearGradient id="paint0_linear_523_4140" x1="241.129" y1="599.993" x2="-11.4446" y2="284.01" gradientUnits="userSpaceOnUse">
<stop stop-color="#DAE3FE"/>
<stop offset="1" stop-color="#E9EFFD"/>
</linearGradient>
<linearGradient id="paint1_linear_523_4140" x1="507.129" y1="473.203" x2="254.555" y2="157.22" gradientUnits="userSpaceOnUse">
<stop stop-color="#DAE3FE"/>
<stop offset="1" stop-color="#E9EFFD"/>
</linearGradient>
<linearGradient id="paint2_linear_523_4140" x1="185.316" y1="528.318" x2="177.191" y2="330.36" gradientUnits="userSpaceOnUse">
<stop stop-color="#09005D"/>
<stop offset="1" stop-color="#1A0F91"/>
</linearGradient>
<linearGradient id="paint3_linear_523_4140" x1="118.603" y1="268.348" x2="314.408" y2="612.554" gradientUnits="userSpaceOnUse">
<stop stop-color="#FF928E"/>
<stop offset="1" stop-color="#FE7062"/>
</linearGradient>
<linearGradient id="paint4_linear_523_4140" x1="122.987" y1="257.918" x2="126.541" y2="188.861" gradientUnits="userSpaceOnUse">
<stop stop-color="#E1473D"/>
<stop offset="1" stop-color="#E9605A"/>
</linearGradient>
<linearGradient id="paint5_linear_523_4140" x1="134.735" y1="258.522" x2="138.289" y2="189.466" gradientUnits="userSpaceOnUse">
<stop stop-color="#E1473D"/>
<stop offset="1" stop-color="#E9605A"/>
</linearGradient>
<linearGradient id="paint6_linear_523_4140" x1="145.172" y1="259.06" x2="148.726" y2="190.004" gradientUnits="userSpaceOnUse">
<stop stop-color="#E1473D"/>
<stop offset="1" stop-color="#E9605A"/>
</linearGradient>
<linearGradient id="paint7_linear_523_4140" x1="155.307" y1="259.581" x2="158.861" y2="190.525" gradientUnits="userSpaceOnUse">
<stop stop-color="#E1473D"/>
<stop offset="1" stop-color="#E9605A"/>
</linearGradient>
<linearGradient id="paint8_linear_523_4140" x1="165.364" y1="260.099" x2="168.919" y2="191.043" gradientUnits="userSpaceOnUse">
<stop stop-color="#E1473D"/>
<stop offset="1" stop-color="#E9605A"/>
</linearGradient>
<linearGradient id="paint9_linear_523_4140" x1="173.525" y1="260.519" x2="177.079" y2="191.463" gradientUnits="userSpaceOnUse">
<stop stop-color="#E1473D"/>
<stop offset="1" stop-color="#E9605A"/>
</linearGradient>
<linearGradient id="paint10_linear_523_4140" x1="207.852" y1="172.663" x2="188.828" y2="206.884" gradientUnits="userSpaceOnUse">
<stop stop-color="#FF928E"/>
<stop offset="1" stop-color="#FE7062"/>
</linearGradient>
<linearGradient id="paint11_linear_523_4140" x1="212.201" y1="314.354" x2="218.703" y2="314.354" gradientUnits="userSpaceOnUse">
<stop stop-color="#E1473D"/>
<stop offset="1" stop-color="#E9605A"/>
</linearGradient>
<linearGradient id="paint12_linear_523_4140" x1="219.955" y1="317.859" x2="222.261" y2="317.859" gradientUnits="userSpaceOnUse">
<stop stop-color="#E1473D"/>
<stop offset="1" stop-color="#E9605A"/>
</linearGradient>
<linearGradient id="paint13_linear_523_4140" x1="223.594" y1="314.352" x2="229.885" y2="314.352" gradientUnits="userSpaceOnUse">
<stop stop-color="#E1473D"/>
<stop offset="1" stop-color="#E9605A"/>
</linearGradient>
<linearGradient id="paint14_linear_523_4140" x1="230.943" y1="314.352" x2="237.234" y2="314.352" gradientUnits="userSpaceOnUse">
<stop stop-color="#E1473D"/>
<stop offset="1" stop-color="#E9605A"/>
</linearGradient>
<linearGradient id="paint15_linear_523_4140" x1="213.09" y1="342.77" x2="219.387" y2="342.77" gradientUnits="userSpaceOnUse">
<stop stop-color="#E1473D"/>
<stop offset="1" stop-color="#E9605A"/>
</linearGradient>
<linearGradient id="paint16_linear_523_4140" x1="220.645" y1="346.28" x2="222.95" y2="346.28" gradientUnits="userSpaceOnUse">
<stop stop-color="#E1473D"/>
<stop offset="1" stop-color="#E9605A"/>
</linearGradient>
<linearGradient id="paint17_linear_523_4140" x1="224.049" y1="342.77" x2="230.606" y2="342.77" gradientUnits="userSpaceOnUse">
<stop stop-color="#E1473D"/>
<stop offset="1" stop-color="#E9605A"/>
</linearGradient>
<linearGradient id="paint18_linear_523_4140" x1="231.635" y1="342.773" x2="237.926" y2="342.773" gradientUnits="userSpaceOnUse">
<stop stop-color="#E1473D"/>
<stop offset="1" stop-color="#E9605A"/>
</linearGradient>
<linearGradient id="paint19_linear_523_4140" x1="232.441" y1="186.332" x2="213.417" y2="220.552" gradientUnits="userSpaceOnUse">
<stop stop-color="#FF928E"/>
<stop offset="1" stop-color="#FE7062"/>
</linearGradient>
<linearGradient id="paint20_linear_523_4140" x1="213.746" y1="371.573" x2="220.043" y2="371.573" gradientUnits="userSpaceOnUse">
<stop stop-color="#E1473D"/>
<stop offset="1" stop-color="#E9605A"/>
</linearGradient>
<linearGradient id="paint21_linear_523_4140" x1="221.332" y1="375.083" x2="223.638" y2="375.083" gradientUnits="userSpaceOnUse">
<stop stop-color="#E1473D"/>
<stop offset="1" stop-color="#E9605A"/>
</linearGradient>
<linearGradient id="paint22_linear_523_4140" x1="224.809" y1="371.576" x2="231.428" y2="371.576" gradientUnits="userSpaceOnUse">
<stop stop-color="#E1473D"/>
<stop offset="1" stop-color="#E9605A"/>
</linearGradient>
<linearGradient id="paint23_linear_523_4140" x1="232.297" y1="371.637" x2="238.6" y2="371.637" gradientUnits="userSpaceOnUse">
<stop stop-color="#E1473D"/>
<stop offset="1" stop-color="#E9605A"/>
</linearGradient>
<linearGradient id="paint24_linear_523_4140" x1="165.334" y1="331.549" x2="162.619" y2="403.364" gradientUnits="userSpaceOnUse">
<stop stop-color="#4F52FF"/>
<stop offset="1" stop-color="#4042E2"/>
</linearGradient>
<linearGradient id="paint25_linear_523_4140" x1="65.0598" y1="367.006" x2="94.5024" y2="494.504" gradientUnits="userSpaceOnUse">
<stop stop-color="#4F52FF"/>
<stop offset="1" stop-color="#4042E2"/>
</linearGradient>
<linearGradient id="paint26_linear_523_4140" x1="348.519" y1="-620.613" x2="339.985" y2="-582.457" gradientUnits="userSpaceOnUse">
<stop stop-color="#FF928E"/>
<stop offset="1" stop-color="#FE7062"/>
</linearGradient>
<linearGradient id="paint27_linear_523_4140" x1="-1360.06" y1="-1203.32" x2="-1334.55" y2="-1173.54" gradientUnits="userSpaceOnUse">
<stop stop-color="#FF928E"/>
<stop offset="1" stop-color="#FE7062"/>
</linearGradient>
<linearGradient id="paint28_linear_523_4140" x1="86.4872" y1="424.603" x2="90.5589" y2="442.235" gradientUnits="userSpaceOnUse">
<stop stop-color="#4F52FF"/>
<stop offset="1" stop-color="#4042E2"/>
</linearGradient>
<linearGradient id="paint29_linear_523_4140" x1="248.343" y1="364.146" x2="232.583" y2="416.895" gradientUnits="userSpaceOnUse">
<stop stop-color="#FEBBBA"/>
<stop offset="1" stop-color="#FF928E"/>
</linearGradient>
<linearGradient id="paint30_linear_523_4140" x1="337.327" y1="244.64" x2="318.303" y2="278.861" gradientUnits="userSpaceOnUse">
<stop stop-color="#4F52FF"/>
<stop offset="1" stop-color="#4042E2"/>
</linearGradient>
<linearGradient id="paint31_linear_523_4140" x1="708.609" y1="863.596" x2="749.115" y2="897.088" gradientUnits="userSpaceOnUse">
<stop stop-color="#2B3582"/>
<stop offset="1" stop-color="#150E42"/>
</linearGradient>
<linearGradient id="paint32_linear_523_4140" x1="289.307" y1="492.818" x2="279.131" y2="492.818" gradientUnits="userSpaceOnUse">
<stop stop-color="#FEBBBA"/>
<stop offset="1" stop-color="#FF928E"/>
</linearGradient>
<linearGradient id="paint33_linear_523_4140" x1="-76.7041" y1="822.246" x2="-117.21" y2="855.738" gradientUnits="userSpaceOnUse">
<stop stop-color="#2B3582"/>
<stop offset="1" stop-color="#150E42"/>
</linearGradient>
<linearGradient id="paint34_linear_523_4140" x1="291.852" y1="492.818" x2="302.028" y2="492.818" gradientUnits="userSpaceOnUse">
<stop stop-color="#FEBBBA"/>
<stop offset="1" stop-color="#FF928E"/>
</linearGradient>
<linearGradient id="paint35_linear_523_4140" x1="292.031" y1="428.857" x2="327.445" y2="341.223" gradientUnits="userSpaceOnUse">
<stop stop-color="#09005D"/>
<stop offset="1" stop-color="#1A0F91"/>
</linearGradient>
<linearGradient id="paint36_linear_523_4140" x1="354.463" y1="254.166" x2="335.439" y2="288.387" gradientUnits="userSpaceOnUse">
<stop stop-color="#4F52FF"/>
<stop offset="1" stop-color="#4042E2"/>
</linearGradient>
<linearGradient id="paint37_linear_523_4140" x1="278.988" y1="361.587" x2="289.806" y2="330.141" gradientUnits="userSpaceOnUse">
<stop stop-color="#FEBBBA"/>
<stop offset="1" stop-color="#FF928E"/>
</linearGradient>
<linearGradient id="paint38_linear_523_4140" x1="309.765" y1="241.509" x2="293.296" y2="291.659" gradientUnits="userSpaceOnUse">
<stop stop-color="#FF928E"/>
<stop offset="1" stop-color="#FEB3B1"/>
</linearGradient>
<linearGradient id="paint39_linear_523_4140" x1="317.893" y1="244.177" x2="301.423" y2="294.328" gradientUnits="userSpaceOnUse">
<stop stop-color="#FEBBBA"/>
<stop offset="1" stop-color="#FF928E"/>
</linearGradient>
<linearGradient id="paint40_linear_523_4140" x1="375.874" y1="266.069" x2="356.85" y2="300.29" gradientUnits="userSpaceOnUse">
<stop stop-color="#4F52FF"/>
<stop offset="1" stop-color="#4042E2"/>
</linearGradient>
<linearGradient id="paint41_linear_523_4140" x1="298.836" y1="408.443" x2="307.726" y2="408.443" gradientUnits="userSpaceOnUse">
<stop stop-color="#FEBBBA"/>
<stop offset="1" stop-color="#FF928E"/>
</linearGradient>
<linearGradient id="paint42_linear_523_4140" x1="-264.74" y1="504.866" x2="-65.9098" y2="293.443" gradientUnits="userSpaceOnUse">
<stop stop-color="#DAE3FE"/>
<stop offset="1" stop-color="#E9EFFD"/>
</linearGradient>
<linearGradient id="paint43_linear_523_4140" x1="614.145" y1="521.891" x2="457.914" y2="289.094" gradientUnits="userSpaceOnUse">
<stop stop-color="#DAE3FE"/>
<stop offset="1" stop-color="#E9EFFD"/>
</linearGradient>
</defs>
</svg>
