<svg width="64" height="64" viewBox="0 0 64 64" fill="none" xmlns="http://www.w3.org/2000/svg">
<g clip-path="url(#clip0_176_1434)">
<path d="M24.4785 -0.0253715C24.7223 -0.0262332 24.966 -0.0271019 25.2097 -0.0279769C25.9836 -0.0303537 26.7574 -0.0309339 27.5312 -0.0312309C27.6625 -0.0313413 27.7937 -0.0314518 27.929 -0.0315656C34.2191 -0.03627 34.2191 -0.03627 37.2344 0.171894C37.4059 0.18373 37.4059 0.18373 37.5809 0.195805C42.815 0.572126 42.815 0.572126 44.4688 2.34377C45.58 3.69738 45.7999 5.1758 45.875 6.87502C45.8792 6.96906 45.8835 7.0631 45.8879 7.15999C45.9433 8.55881 45.9582 9.74196 45.0938 10.9141C44.3132 11.6769 43.4809 12.125 42.375 12.125C42.375 13.4863 42.375 14.8475 42.375 16.25C42.87 16.2913 43.365 16.3325 43.875 16.375C45.5655 16.7716 47.0637 17.6255 48.0282 19.111C48.1758 19.362 48.3128 19.6157 48.4453 19.875C48.4856 19.9535 48.5259 20.0319 48.5675 20.1128C49.2454 21.5494 49.216 23.224 49.3125 24.7813C49.3204 24.9062 49.3282 25.0311 49.3363 25.1598C49.8256 33.0234 49.9257 40.915 49.6328 48.7891C49.6274 48.9356 49.622 49.0821 49.6164 49.233C49.6009 49.6367 49.5843 50.0403 49.5669 50.4439C49.5621 50.5616 49.5572 50.6793 49.5523 50.8006C49.5448 50.9598 49.5448 50.9598 49.5371 51.1222C49.533 51.214 49.5288 51.3058 49.5245 51.4004C49.5 51.625 49.5 51.625 49.375 51.875C49.477 51.8731 49.5789 51.8711 49.684 51.8691C50.0698 51.8626 50.4555 51.8579 50.8414 51.8544C51.0875 51.8517 51.3335 51.8469 51.5796 51.8421C52.8712 51.8322 54.095 51.9528 55.2344 52.6094C55.3398 52.6684 55.4451 52.7273 55.5537 52.7881C56.8561 53.6471 57.7807 54.9261 58.1763 56.4356C58.4621 58.139 58.3201 59.8189 57.3438 61.2891C57.1913 61.4874 57.0351 61.6829 56.875 61.875C56.8033 61.9636 56.7316 62.0523 56.6577 62.1436C55.6166 63.3074 54.1058 63.9072 52.569 64.0231C52.2546 64.0321 51.941 64.0338 51.6264 64.0324C51.5086 64.0328 51.3907 64.0332 51.2693 64.0337C50.8838 64.0348 50.4983 64.0341 50.1128 64.0332C49.8426 64.0334 49.5725 64.0336 49.3023 64.034C48.7378 64.0343 48.1733 64.0338 47.6087 64.0326C46.8872 64.0312 46.1657 64.032 45.4442 64.0335C44.8869 64.0344 44.3296 64.0341 43.7723 64.0335C43.5063 64.0333 43.2404 64.0335 42.9744 64.0341C42.602 64.0347 42.2297 64.0338 41.8574 64.0324C41.7489 64.0329 41.6403 64.0334 41.5285 64.0339C41.015 64.0304 40.5513 63.9943 40.0519 63.8712C39.4973 63.7356 39.0044 63.7379 38.4379 63.7789C38.2299 63.791 38.0218 63.803 37.8137 63.815C37.7043 63.8219 37.595 63.8287 37.4823 63.8358C34.383 64.027 31.2865 64.0448 28.1824 64.0397C27.759 64.0391 27.3356 64.0389 26.9121 64.0388C22.9169 64.0364 18.9337 63.997 14.9507 63.653C14.5946 63.6224 14.2385 63.5935 13.8823 63.5645C13.6347 63.5436 13.3872 63.5226 13.1396 63.5015C13.0264 63.4922 12.9132 63.483 12.7965 63.4735C10.8341 63.2995 9.23147 62.5713 7.875 61.125C6.99815 59.9938 6.52431 58.8243 6.37402 57.4053C6.3584 57.2606 6.3584 57.2606 6.34246 57.1129C6.21348 55.8529 6.14628 54.5884 6.07779 53.3239C6.05498 52.9038 6.03111 52.4838 6.00708 52.0637C5.95898 51.2094 5.91562 50.3548 5.875 49.5C5.86855 49.3655 5.8621 49.2311 5.85546 49.0925C5.71582 46.0553 5.72507 43.0163 5.72656 39.9766C5.72658 39.8421 5.72659 39.7077 5.72661 39.5692C5.72716 35.656 5.74138 31.7499 5.97942 27.8426C6.00146 27.4757 6.02213 27.1087 6.0426 26.7417C6.08547 25.9786 6.13194 25.2159 6.17969 24.4531C6.19008 24.2804 6.19008 24.2804 6.20067 24.1042C6.33832 21.8654 6.62164 19.6012 8.375 18C8.77601 17.6804 9.18994 17.3962 9.625 17.125C9.74416 17.0496 9.74416 17.0496 9.86572 16.9727C10.8462 16.4184 12.0157 16.25 13.125 16.25C13.125 14.8888 13.125 13.5275 13.125 12.125C12.7538 12.0838 12.3825 12.0425 12 12C10.9579 11.5959 10.185 10.8132 9.72852 9.79982C9.58287 9.20212 9.58793 8.62863 9.59375 8.01564C9.5946 7.88824 9.59544 7.76083 9.59631 7.62957C9.6264 5.40676 9.85715 3.57043 11.457 1.91018C12.626 0.829447 14.0459 0.506129 15.5884 0.397968C15.6891 0.390295 15.7897 0.382622 15.8935 0.374716C16.1058 0.358696 16.318 0.343065 16.5304 0.327808C16.8461 0.305101 17.1617 0.281215 17.4773 0.257099C17.6862 0.241485 17.8951 0.225939 18.104 0.210468C18.1942 0.203695 18.2844 0.196922 18.3773 0.189943C20.4107 0.0448574 22.4403 -0.0208445 24.4785 -0.0253715Z" fill="#F4EFEF"/>
<path d="M36.1016 23.789C36.2066 23.7964 36.3116 23.8037 36.4198 23.8113C38.2581 23.9455 39.8145 24.2052 41.1094 25.625C41.9703 26.6767 42.1424 27.8376 42.2314 29.1582C42.2394 29.2718 42.2475 29.3854 42.2557 29.5025C42.2816 29.8869 42.3053 30.2715 42.3281 30.6562C42.3363 30.7924 42.3444 30.9286 42.3528 31.069C42.7478 37.9851 42.644 44.9693 42.125 51.875C42.3244 51.8737 42.3244 51.8737 42.5278 51.8724C43.7855 51.8648 45.0433 51.8592 46.3011 51.8555C46.9476 51.8536 47.594 51.8509 48.2405 51.8467C48.8654 51.8426 49.4903 51.8403 50.1152 51.8394C50.3526 51.8387 50.59 51.8373 50.8274 51.8353C52.3644 51.8226 53.8594 51.8169 55.2344 52.6093C55.3398 52.6683 55.4451 52.7273 55.5537 52.788C56.8561 53.6471 57.7807 54.926 58.1763 56.4355C58.4621 58.1389 58.3201 59.8188 57.3437 61.289C57.1913 61.4873 57.0351 61.6828 56.875 61.875C56.8033 61.9636 56.7316 62.0522 56.6577 62.1435C55.6165 63.3073 54.1058 63.9072 52.569 64.023C52.2546 64.0321 51.941 64.0338 51.6264 64.0323C51.5086 64.0327 51.3907 64.0332 51.2693 64.0336C50.8838 64.0347 50.4983 64.034 50.1128 64.0332C49.8426 64.0333 49.5725 64.0336 49.3023 64.0339C48.7378 64.0342 48.1733 64.0337 47.6087 64.0325C46.8872 64.0311 46.1657 64.0319 45.4442 64.0334C44.8869 64.0343 44.3296 64.0341 43.7723 64.0334C43.5063 64.0332 43.2404 64.0334 42.9744 64.034C42.602 64.0347 42.2297 64.0337 41.8574 64.0323C41.7489 64.0328 41.6403 64.0333 41.5285 64.0338C39.703 64.0213 38.2419 63.3474 36.9263 62.0791C35.7967 60.8452 35.3129 59.3711 35.333 57.7143C35.3892 57.0929 35.5049 56.4868 35.625 55.875C35.5138 55.8825 35.4027 55.8901 35.2881 55.8979C30.5289 56.211 25.7856 56.2227 21.0234 55.9531C20.8826 55.9452 20.7417 55.9373 20.5966 55.9292C15.8188 55.6554 15.8188 55.6554 14.375 54.125C13.6175 53.1533 13.3305 52.0578 13.2563 50.8452C13.2485 50.7311 13.2407 50.6171 13.2326 50.4996C13.2074 50.1118 13.1853 49.7239 13.1641 49.3359C13.1562 49.1983 13.1484 49.0607 13.1404 48.9189C12.7999 42.6854 12.7979 36.3582 13.1484 30.125C13.1547 30.0017 13.161 29.8784 13.1674 29.7513C13.2642 27.9474 13.5143 26.4318 14.875 25.125C15.0181 24.9857 15.0181 24.9857 15.1641 24.8437C16.8225 23.7638 18.9531 23.8178 20.8672 23.7343C20.9834 23.7292 21.0997 23.724 21.2195 23.7187C26.1574 23.5075 31.17 23.4326 36.1016 23.789Z" fill="#DD636E"/>
<path d="M24.4785 -0.0253715C24.7222 -0.0262332 24.966 -0.0271019 25.2097 -0.0279769C25.9836 -0.0303537 26.7574 -0.0309339 27.5312 -0.0312309C27.6625 -0.0313413 27.7937 -0.0314518 27.9289 -0.0315656C34.2191 -0.03627 34.2191 -0.03627 37.2344 0.171894C37.4059 0.18373 37.4059 0.18373 37.5809 0.195805C42.815 0.572126 42.815 0.572126 44.4687 2.34377C45.58 3.69738 45.7999 5.1758 45.875 6.87502C45.8792 6.96906 45.8835 7.0631 45.8879 7.15999C45.9433 8.55881 45.9582 9.74196 45.0937 10.9141C44.1096 11.8758 43.1102 12.163 41.7603 12.1584C41.636 12.159 41.5117 12.1596 41.3836 12.1602C40.9674 12.1617 40.5511 12.1615 40.1349 12.1613C39.8363 12.1621 39.5377 12.1629 39.2392 12.1639C38.5124 12.1659 37.7857 12.1666 37.059 12.1668C36.468 12.1669 35.877 12.1674 35.2859 12.1682C33.6089 12.1704 31.9319 12.1716 30.2549 12.1714C30.1645 12.1714 30.0742 12.1714 29.9811 12.1713C29.8906 12.1713 29.8001 12.1713 29.7069 12.1713C28.2415 12.1712 26.7762 12.1736 25.3108 12.1771C23.8047 12.1807 22.2987 12.1824 20.7926 12.1822C19.9476 12.1821 19.1027 12.1828 18.2577 12.1855C17.4628 12.1879 16.6678 12.188 15.8729 12.1861C15.5815 12.1859 15.2902 12.1865 14.9988 12.188C14.6002 12.1899 14.2018 12.1888 13.8032 12.1868C13.6314 12.1888 13.6314 12.1888 13.4561 12.1907C12.3656 12.1791 11.3759 11.8474 10.5669 11.0977C9.34989 9.6856 9.54602 7.94067 9.64201 6.18935C9.78248 4.36292 10.3016 2.97835 11.664 1.71877C12.8237 0.78481 14.1373 0.499718 15.5884 0.397968C15.689 0.390295 15.7897 0.382622 15.8935 0.374716C16.1057 0.358696 16.318 0.343065 16.5304 0.327808C16.8461 0.305101 17.1617 0.281215 17.4773 0.257099C17.6862 0.241485 17.8951 0.225939 18.104 0.210468C18.1942 0.203695 18.2844 0.196922 18.3773 0.189943C20.4107 0.0448574 22.4402 -0.0208445 24.4785 -0.0253715Z" fill="#DD636E"/>
<path d="M13.125 12.125C22.7775 12.125 32.43 12.125 42.375 12.125C42.375 13.4863 42.375 14.8475 42.375 16.25C40.9727 16.25 40.9727 16.25 40.3374 16.1997C40.1942 16.189 40.0511 16.1783 39.9036 16.1672C39.6177 16.145 39.3319 16.1226 39.0461 16.0999C35.5951 15.8432 32.1351 15.8515 28.6767 15.8518C28.1458 15.8518 27.6149 15.851 27.084 15.8493C24.2123 15.8402 21.3459 15.8633 18.4766 15.9858C18.3563 15.9907 18.236 15.9956 18.1121 16.0006C17.7734 16.0147 17.4348 16.0304 17.0962 16.0467C16.9482 16.0529 16.9482 16.0529 16.7972 16.0592C16.0809 16.0971 15.3996 16.1584 14.8198 16.6157C13.6813 17.8968 13.0366 19.3655 12.9023 21.0781C12.8914 21.2145 12.8914 21.2145 12.8802 21.3536C12.8566 21.6523 12.8345 21.9511 12.8125 22.25C12.8046 22.3537 12.7967 22.4574 12.7886 22.5643C12.6669 24.1641 12.5672 25.7649 12.4844 27.3672C12.4772 27.5048 12.4772 27.5048 12.4698 27.6451C12.4336 28.3466 12.4036 29.0482 12.375 29.75C12.3696 29.8767 12.3641 30.0035 12.3585 30.134C12.225 33.3282 12.2252 36.5223 12.2266 39.7188C12.2265 39.999 12.2265 40.2792 12.2265 40.5594C12.2274 44.4424 12.2576 48.3165 12.4826 52.194C12.506 52.6052 12.5269 53.0165 12.548 53.4278C12.605 54.536 12.6738 55.6429 12.75 56.75C12.7583 56.8816 12.7666 57.0131 12.7752 57.1487C12.937 59.6511 13.4746 61.55 15.125 63.5C12.5263 63.5615 10.193 63.3047 8.17968 61.5C6.49599 59.7182 6.32017 57.4897 6.17968 55.1641C6.17214 55.0439 6.1646 54.9238 6.15683 54.8001C6.10875 54.0323 6.06402 53.2645 6.02106 52.4965C6.00134 52.1488 5.98053 51.8012 5.95934 51.4536C5.4911 43.6336 5.50306 35.6617 5.97941 27.8426C6.00145 27.4756 6.02212 27.1087 6.04259 26.7416C6.08546 25.9786 6.13193 25.2159 6.17968 24.4531C6.1866 24.338 6.19353 24.2228 6.20066 24.1041C6.33831 21.8654 6.62163 19.6012 8.37499 18C8.776 17.6804 9.18993 17.3961 9.62499 17.125C9.70443 17.0747 9.78387 17.0245 9.86571 16.9727C10.8462 16.4184 12.0157 16.25 13.125 16.25C13.125 14.8888 13.125 13.5275 13.125 12.125Z" fill="#E8DED8"/>
<path d="M27.2409 31.2268C27.5204 31.2266 27.7998 31.2243 28.0793 31.2219C30.5822 31.211 30.5822 31.211 31.1524 31.7738C31.4117 32.1829 31.4443 32.4259 31.4609 32.9067C31.4684 33.0547 31.4758 33.2027 31.4834 33.3552C31.4945 33.6658 31.5056 33.9763 31.5166 34.2869C31.524 34.4347 31.5314 34.5825 31.5391 34.7349C31.5461 34.9371 31.5461 34.9371 31.5532 35.1433C31.6429 35.5891 31.7555 35.7378 32.125 36C32.4878 36.0831 32.4878 36.0831 32.8901 36.0859C33.1119 36.0971 33.1119 36.0971 33.3381 36.1084C33.4921 36.1139 33.6461 36.1194 33.8047 36.125C34.1093 36.1359 34.4138 36.1488 34.7183 36.1641C34.9207 36.1711 34.9207 36.1711 35.1272 36.1782C35.5856 36.2665 35.7973 36.4214 36.125 36.75C36.554 37.6122 36.4164 38.7942 36.4141 39.7266C36.4161 39.8878 36.4181 40.049 36.4202 40.2151C36.4212 42.2392 36.4212 42.2392 36 43.125C35.5565 43.48 35.2078 43.5476 34.648 43.5552C34.5112 43.5585 34.3745 43.5618 34.2336 43.5652C34.0213 43.5677 34.0213 43.5677 33.8047 43.5703C33.5233 43.5746 33.2418 43.58 32.9605 43.5864C32.8361 43.588 32.7118 43.5895 32.5837 43.5911C32.2354 43.6265 32.0367 43.6757 31.75 43.875C31.4771 44.2675 31.4672 44.6156 31.4614 45.0855C31.4583 45.222 31.4551 45.3586 31.4519 45.4993C31.4475 45.7857 31.4436 46.0722 31.4402 46.3586C31.4369 46.4954 31.4336 46.6321 31.4302 46.773C31.4285 46.8974 31.4268 47.0219 31.4251 47.1501C31.3664 47.5599 31.2486 47.7957 31 48.125C29.9358 48.5423 28.7752 48.5227 27.6484 48.5234C27.5214 48.525 27.3943 48.5265 27.2634 48.5281C26.2631 48.53 25.2505 48.5296 24.3594 48.0317C23.9028 47.2394 24.0099 46.2771 23.9883 45.3826C23.9818 45.2291 23.9754 45.0756 23.9688 44.9175C23.9655 44.7774 23.9623 44.6374 23.959 44.4931C23.9026 44.1061 23.9026 44.1061 23.6035 43.8289C23.1968 43.5943 22.9663 43.5659 22.5 43.5708C22.3582 43.5696 22.2164 43.5684 22.0703 43.5671C21.7734 43.5693 21.4766 43.5719 21.1797 43.575C20.1011 43.5645 20.1011 43.5645 19.6016 43.2456C19.0277 42.3069 19.0892 41.3304 19.0993 40.2592C19.1016 40.0088 19.1017 39.7584 19.1018 39.5081C19.1039 39.0467 19.1121 38.5862 19.125 38.125C19.1275 38.0122 19.13 37.8994 19.1325 37.7831C19.1606 37.3119 19.2307 36.955 19.499 36.5605C20.0097 36.1387 20.3724 36.1483 21.0156 36.1563C21.228 36.152 21.4404 36.1471 21.6528 36.1416C21.7552 36.1395 21.8575 36.1375 21.963 36.1354C22.5188 36.1153 23.0992 36.0641 23.625 35.875C23.8866 35.4825 23.9086 35.3704 23.9224 34.9199C23.9266 34.8066 23.9309 34.6934 23.9353 34.5767C23.9386 34.4586 23.9419 34.3404 23.9453 34.2188C24.0138 32.1162 24.0138 32.1162 24.4688 31.6406C25.3026 31.0954 26.2775 31.2267 27.2409 31.2268Z" fill="#F4EFEF"/>
<path d="M46.75 51.875C47.7503 51.8672 48.7506 51.8595 49.7812 51.8515C50.0939 51.8481 50.4065 51.8447 50.7286 51.8412C50.9812 51.8401 51.2338 51.8391 51.4863 51.8383C51.6136 51.8364 51.7409 51.8345 51.872 51.8325C53.0431 51.8321 54.207 52.0172 55.2344 52.6093C55.3924 52.6978 55.3924 52.6978 55.5537 52.788C56.8561 53.6471 57.7807 54.926 58.1763 56.4355C58.4621 58.1389 58.3201 59.8188 57.3438 61.289C57.1913 61.4873 57.0351 61.6828 56.875 61.875C56.8033 61.9636 56.7316 62.0522 56.6577 62.1435C55.6089 63.3158 54.0779 63.9251 52.5273 64.0216C52.1557 64.0286 51.7848 64.0281 51.4131 64.0244C51.2939 64.0241 51.1748 64.0239 51.052 64.0236C50.6128 64.0223 50.1736 64.0188 49.7344 64.0156C48.7495 64.0104 47.7647 64.0053 46.75 64C46.75 59.9987 46.75 55.9975 46.75 51.875Z" fill="#DD636D"/>
<path d="M42 51.125C42.0412 51.125 42.0825 51.125 42.125 51.125C42.125 51.3725 42.125 51.62 42.125 51.875C43.6512 51.875 45.1775 51.875 46.75 51.875C46.75 55.8762 46.75 59.8775 46.75 64C45.2689 64.0077 45.2689 64.0077 43.7578 64.0156C43.4483 64.0179 43.1388 64.0202 42.8198 64.0225C42.5715 64.0233 42.3231 64.0239 42.0747 64.0244C41.9482 64.0257 41.8217 64.027 41.6914 64.0283C39.7885 64.0288 38.3078 63.411 36.9263 62.0791C35.803 60.8521 35.2802 59.3451 35.335 57.6904C35.502 55.8527 36.1488 54.5091 37.5 53.25C38.6376 52.4232 39.7539 51.979 41.1641 51.9922C41.3208 51.9933 41.4776 51.9944 41.6391 51.9956C41.7582 51.9971 41.8773 51.9985 42 52C42 51.7113 42 51.4225 42 51.125Z" fill="#FECF64"/>
<path d="M21.375 0.12482C21.0594 0.444201 20.7412 0.735265 20.3906 1.01544C19.1942 2.05843 18.6059 3.61327 18.492 5.16388C18.4843 5.30052 18.4766 5.43716 18.4687 5.57794C18.4596 5.72071 18.4505 5.86347 18.4411 6.01056C18.4162 6.42355 18.3949 6.83656 18.375 7.24982C18.3691 7.35693 18.3633 7.46405 18.3573 7.5744C18.2856 8.99421 18.4291 10.0158 19.375 11.117C19.687 11.4528 20.0066 11.7286 20.375 11.9998C19.3699 12.0279 18.3647 12.053 17.3594 12.0746C16.8925 12.0847 16.4257 12.0958 15.9588 12.1091C15.5074 12.122 15.056 12.1322 14.6045 12.1407C14.4332 12.1444 14.2619 12.149 14.0906 12.1545C12.7349 12.1975 11.5931 12.0485 10.5669 11.0975C9.34989 9.6854 9.54602 7.94047 9.64201 6.18915C9.78248 4.36272 10.3016 2.97815 11.664 1.71857C12.8294 0.780064 14.1489 0.499891 15.6059 0.393374C15.7078 0.385405 15.8097 0.377435 15.9146 0.369224C16.129 0.352666 16.3434 0.33651 16.5578 0.320743C16.8791 0.296972 17.2001 0.27154 17.5212 0.245913C18.8089 0.146541 20.0834 0.102513 21.375 0.12482Z" fill="#DA4A54"/>
<path d="M58.125 58.375C58.2117 59.697 57.835 60.732 56.9785 61.7432C56.9031 61.8279 56.8277 61.9127 56.75 62C56.6562 62.1155 56.6562 62.1155 56.5605 62.2334C55.6272 63.294 54.2403 63.8021 52.875 64C52.3962 64.0302 51.92 64.0294 51.4404 64.0244C51.309 64.0241 51.1776 64.0237 51.0422 64.0233C50.6271 64.022 50.212 64.0188 49.7969 64.0156C49.5135 64.0144 49.2301 64.0132 48.9468 64.0122C48.2562 64.0097 47.5656 64.0048 46.875 64C46.875 62.5975 46.875 61.195 46.875 59.75C47.5982 59.7408 47.5982 59.7408 48.3359 59.7314C48.8092 59.7247 49.2826 59.7175 49.7559 59.7103C50.0817 59.7056 50.4075 59.7012 50.7334 59.6973C53.186 59.6672 56.0283 58.375 58.125 58.375Z" fill="#DA4A54"/>
<path d="M35.375 58.25C35.4359 58.2983 35.4968 58.3467 35.5596 58.3965C37.2239 59.619 39.2245 59.6373 41.208 59.6646C41.3671 59.6671 41.5263 59.6697 41.6903 59.6724C42.1091 59.6792 42.5278 59.6855 42.9466 59.6915C43.3757 59.6979 43.8048 59.7048 44.2339 59.7117C45.0726 59.7251 45.9113 59.7375 46.75 59.75C46.75 61.1525 46.75 62.555 46.75 64C45.8983 64.0058 45.0466 64.0107 44.1949 64.0137C43.9055 64.015 43.6161 64.0167 43.3267 64.0189C42.9094 64.0219 42.4921 64.0233 42.0747 64.0244C41.9465 64.0257 41.8184 64.027 41.6863 64.0283C39.7857 64.0286 38.3059 63.4091 36.9263 62.0791C35.9822 61.0479 35.3205 59.666 35.375 58.25Z" fill="#EBB044"/>
</g>
<defs>
<clipPath id="clip0_176_1434">
<rect width="64" height="64" fill="white"/>
</clipPath>
</defs>
</svg>
